G04 #@! TF.GenerationSoftware,KiCad,Pcbnew,5.1.4*
G04 #@! TF.CreationDate,2019-11-07T18:24:18+01:00*
G04 #@! TF.ProjectId,nano-rgb,6e616e6f-2d72-4676-922e-6b696361645f,rev?*
G04 #@! TF.SameCoordinates,Original*
G04 #@! TF.FileFunction,Copper,L2,Bot*
G04 #@! TF.FilePolarity,Positive*
%FSLAX46Y46*%
G04 Gerber Fmt 4.6, Leading zero omitted, Abs format (unit mm)*
G04 Created by KiCad (PCBNEW 5.1.4) date 2019-11-07 18:24:18*
%MOMM*%
%LPD*%
G04 APERTURE LIST*
%ADD10C,6.400000*%
%ADD11C,2.000000*%
%ADD12C,1.600000*%
%ADD13O,1.600000X1.600000*%
%ADD14R,1.600000X1.600000*%
%ADD15R,1.980000X3.960000*%
%ADD16O,1.980000X3.960000*%
%ADD17R,1.700000X1.700000*%
%ADD18O,1.700000X1.700000*%
%ADD19O,1.800000X1.800000*%
%ADD20R,1.800000X1.800000*%
%ADD21C,0.250000*%
%ADD22C,2.000000*%
%ADD23C,0.254000*%
G04 APERTURE END LIST*
D10*
X145000000Y-145000000D03*
X225000000Y-145000000D03*
X225000000Y-65000000D03*
X145000000Y-65000000D03*
D11*
X200660000Y-126340000D03*
X200660000Y-121840000D03*
X207160000Y-126340000D03*
X207160000Y-121840000D03*
X219860000Y-132000000D03*
X219860000Y-136500000D03*
X213360000Y-132000000D03*
X213360000Y-136500000D03*
D12*
X219710000Y-102790000D03*
D13*
X219710000Y-115490000D03*
D14*
X189230000Y-121840000D03*
D13*
X156210000Y-137080000D03*
X186690000Y-121840000D03*
X158750000Y-137080000D03*
X184150000Y-121840000D03*
X161290000Y-137080000D03*
X181610000Y-121840000D03*
X163830000Y-137080000D03*
X179070000Y-121840000D03*
X166370000Y-137080000D03*
X176530000Y-121840000D03*
X168910000Y-137080000D03*
X173990000Y-121840000D03*
X171450000Y-137080000D03*
X171450000Y-121840000D03*
X173990000Y-137080000D03*
X168910000Y-121840000D03*
X176530000Y-137080000D03*
X166370000Y-121840000D03*
X179070000Y-137080000D03*
X163830000Y-121840000D03*
X181610000Y-137080000D03*
X161290000Y-121840000D03*
X184150000Y-137080000D03*
X158750000Y-121840000D03*
X186690000Y-137080000D03*
X156210000Y-121840000D03*
X189230000Y-137080000D03*
X153670000Y-121840000D03*
X153670000Y-137080000D03*
D15*
X149860000Y-76120000D03*
D16*
X154860000Y-76120000D03*
D15*
X165100000Y-76120000D03*
D16*
X170100000Y-76120000D03*
X180100000Y-76120000D03*
X175100000Y-76120000D03*
X195500000Y-76120000D03*
D15*
X190500000Y-76120000D03*
D16*
X215740000Y-76120000D03*
X220740000Y-76120000D03*
X210740000Y-76120000D03*
D15*
X205740000Y-76120000D03*
D17*
X153670000Y-100250000D03*
D18*
X151130000Y-100250000D03*
X190500000Y-100250000D03*
D17*
X193040000Y-100250000D03*
D13*
X162560000Y-115490000D03*
D12*
X162560000Y-102790000D03*
X171450000Y-102790000D03*
D13*
X171450000Y-115490000D03*
X180340000Y-115490000D03*
D12*
X180340000Y-102790000D03*
X201930000Y-102790000D03*
D13*
X201930000Y-115490000D03*
X210820000Y-115490000D03*
D12*
X210820000Y-102790000D03*
D11*
X219860000Y-121840000D03*
X219860000Y-126340000D03*
X213360000Y-121840000D03*
X213360000Y-126340000D03*
X200660000Y-136500000D03*
X200660000Y-132000000D03*
X207160000Y-136500000D03*
X207160000Y-132000000D03*
D19*
X165100000Y-95170000D03*
X162560000Y-95170000D03*
D20*
X160020000Y-95170000D03*
X168910000Y-95170000D03*
D19*
X171450000Y-95170000D03*
X173990000Y-95170000D03*
D20*
X177800000Y-95170000D03*
D19*
X180340000Y-95170000D03*
X182880000Y-95170000D03*
X204470000Y-95170000D03*
X201930000Y-95170000D03*
D20*
X199390000Y-95170000D03*
X208280000Y-95170000D03*
D19*
X210820000Y-95170000D03*
X213360000Y-95170000D03*
X222250000Y-95170000D03*
X219710000Y-95170000D03*
D20*
X217170000Y-95170000D03*
D21*
X158750000Y-128190000D02*
X161290000Y-125650000D01*
X149860000Y-128190000D02*
X158750000Y-128190000D01*
X214630000Y-110410000D02*
X157480000Y-110410000D01*
X157480000Y-110410000D02*
X148590000Y-119300000D01*
X161290000Y-125650000D02*
X161290000Y-121840000D01*
X148590000Y-126920000D02*
X149860000Y-128190000D01*
X219710000Y-115490000D02*
X214630000Y-110410000D01*
X148590000Y-119300000D02*
X148590000Y-126920000D01*
X210820000Y-115490000D02*
X208280000Y-115490000D01*
X208280000Y-115490000D02*
X204470000Y-111680000D01*
X204470000Y-111680000D02*
X158750000Y-111680000D01*
X158750000Y-111680000D02*
X152400000Y-118030000D01*
X158750000Y-121840000D02*
X158750000Y-125650000D01*
X158750000Y-125650000D02*
X157480000Y-126920000D01*
X157480000Y-126920000D02*
X149860000Y-126920000D01*
X149860000Y-126920000D02*
X149860000Y-120570000D01*
X149860000Y-120570000D02*
X152400000Y-118030000D01*
D22*
X190500000Y-87550000D02*
X190500000Y-76120000D01*
X149860000Y-76120000D02*
X149860000Y-81200000D01*
X149860000Y-81200000D02*
X156210000Y-87550000D01*
X160020000Y-95170000D02*
X158750000Y-93900000D01*
X158750000Y-93900000D02*
X158750000Y-87550000D01*
X156210000Y-87550000D02*
X158750000Y-87550000D01*
X168910000Y-95170000D02*
X167640000Y-93900000D01*
X167640000Y-93900000D02*
X167640000Y-87550000D01*
X158750000Y-87550000D02*
X167640000Y-87550000D01*
X177800000Y-95170000D02*
X176530000Y-93900000D01*
X176530000Y-93900000D02*
X176530000Y-87550000D01*
X167640000Y-87550000D02*
X176530000Y-87550000D01*
X176530000Y-87550000D02*
X190500000Y-87550000D01*
X217170000Y-95170000D02*
X215900000Y-93900000D01*
X215900000Y-93900000D02*
X215900000Y-87550000D01*
X208280000Y-95170000D02*
X207010000Y-93900000D01*
X207010000Y-93900000D02*
X207010000Y-87550000D01*
X207010000Y-87550000D02*
X215900000Y-87550000D01*
X199390000Y-95170000D02*
X198120000Y-93900000D01*
X198120000Y-93900000D02*
X198120000Y-87550000D01*
X190500000Y-87550000D02*
X198120000Y-87550000D01*
X198120000Y-87550000D02*
X207010000Y-87550000D01*
X222250000Y-87550000D02*
X215900000Y-87550000D01*
X226060000Y-118030000D02*
X226060000Y-91360000D01*
X200660000Y-121840000D02*
X222250000Y-121840000D01*
X226060000Y-91360000D02*
X222250000Y-87550000D01*
X222250000Y-121840000D02*
X226060000Y-118030000D01*
X200660000Y-132000000D02*
X223520000Y-132000000D01*
X226060000Y-129460000D02*
X226060000Y-118030000D01*
X223520000Y-132000000D02*
X226060000Y-129460000D01*
X181610000Y-121840000D02*
X181610000Y-126920000D01*
X186690000Y-132000000D02*
X186690000Y-137080000D01*
X181610000Y-126920000D02*
X186690000Y-132000000D01*
X200660000Y-132000000D02*
X186690000Y-132000000D01*
D21*
X199390000Y-112950000D02*
X201930000Y-115490000D01*
X160020000Y-112950000D02*
X199390000Y-112950000D01*
X156210000Y-116760000D02*
X160020000Y-112950000D01*
X156210000Y-121840000D02*
X156210000Y-116760000D01*
D23*
G36*
X228873000Y-61126942D02*
G01*
X228873000Y-148873000D01*
X141126957Y-148873000D01*
X141125509Y-144622285D01*
X141165000Y-144622285D01*
X141165000Y-145377715D01*
X141312377Y-146118628D01*
X141601467Y-146816554D01*
X142021161Y-147444670D01*
X142555330Y-147978839D01*
X143183446Y-148398533D01*
X143881372Y-148687623D01*
X144622285Y-148835000D01*
X145377715Y-148835000D01*
X146118628Y-148687623D01*
X146816554Y-148398533D01*
X147444670Y-147978839D01*
X147978839Y-147444670D01*
X148398533Y-146816554D01*
X148687623Y-146118628D01*
X148835000Y-145377715D01*
X148835000Y-144622285D01*
X221165000Y-144622285D01*
X221165000Y-145377715D01*
X221312377Y-146118628D01*
X221601467Y-146816554D01*
X222021161Y-147444670D01*
X222555330Y-147978839D01*
X223183446Y-148398533D01*
X223881372Y-148687623D01*
X224622285Y-148835000D01*
X225377715Y-148835000D01*
X226118628Y-148687623D01*
X226816554Y-148398533D01*
X227444670Y-147978839D01*
X227978839Y-147444670D01*
X228398533Y-146816554D01*
X228687623Y-146118628D01*
X228835000Y-145377715D01*
X228835000Y-144622285D01*
X228687623Y-143881372D01*
X228398533Y-143183446D01*
X227978839Y-142555330D01*
X227444670Y-142021161D01*
X226816554Y-141601467D01*
X226118628Y-141312377D01*
X225377715Y-141165000D01*
X224622285Y-141165000D01*
X223881372Y-141312377D01*
X223183446Y-141601467D01*
X222555330Y-142021161D01*
X222021161Y-142555330D01*
X221601467Y-143183446D01*
X221312377Y-143881372D01*
X221165000Y-144622285D01*
X148835000Y-144622285D01*
X148687623Y-143881372D01*
X148398533Y-143183446D01*
X147978839Y-142555330D01*
X147444670Y-142021161D01*
X146816554Y-141601467D01*
X146118628Y-141312377D01*
X145377715Y-141165000D01*
X144622285Y-141165000D01*
X143881372Y-141312377D01*
X143183446Y-141601467D01*
X142555330Y-142021161D01*
X142021161Y-142555330D01*
X141601467Y-143183446D01*
X141312377Y-143881372D01*
X141165000Y-144622285D01*
X141125509Y-144622285D01*
X141122940Y-137080000D01*
X152228057Y-137080000D01*
X152255764Y-137361309D01*
X152337818Y-137631808D01*
X152471068Y-137881101D01*
X152650392Y-138099608D01*
X152868899Y-138278932D01*
X153118192Y-138412182D01*
X153388691Y-138494236D01*
X153599508Y-138515000D01*
X153740492Y-138515000D01*
X153951309Y-138494236D01*
X154221808Y-138412182D01*
X154471101Y-138278932D01*
X154689608Y-138099608D01*
X154868932Y-137881101D01*
X154940000Y-137748142D01*
X155011068Y-137881101D01*
X155190392Y-138099608D01*
X155408899Y-138278932D01*
X155658192Y-138412182D01*
X155928691Y-138494236D01*
X156139508Y-138515000D01*
X156280492Y-138515000D01*
X156491309Y-138494236D01*
X156761808Y-138412182D01*
X157011101Y-138278932D01*
X157229608Y-138099608D01*
X157408932Y-137881101D01*
X157480000Y-137748142D01*
X157551068Y-137881101D01*
X157730392Y-138099608D01*
X157948899Y-138278932D01*
X158198192Y-138412182D01*
X158468691Y-138494236D01*
X158679508Y-138515000D01*
X158820492Y-138515000D01*
X159031309Y-138494236D01*
X159301808Y-138412182D01*
X159551101Y-138278932D01*
X159769608Y-138099608D01*
X159948932Y-137881101D01*
X160020000Y-137748142D01*
X160091068Y-137881101D01*
X160270392Y-138099608D01*
X160488899Y-138278932D01*
X160738192Y-138412182D01*
X161008691Y-138494236D01*
X161219508Y-138515000D01*
X161360492Y-138515000D01*
X161571309Y-138494236D01*
X161841808Y-138412182D01*
X162091101Y-138278932D01*
X162309608Y-138099608D01*
X162488932Y-137881101D01*
X162560000Y-137748142D01*
X162631068Y-137881101D01*
X162810392Y-138099608D01*
X163028899Y-138278932D01*
X163278192Y-138412182D01*
X163548691Y-138494236D01*
X163759508Y-138515000D01*
X163900492Y-138515000D01*
X164111309Y-138494236D01*
X164381808Y-138412182D01*
X164631101Y-138278932D01*
X164849608Y-138099608D01*
X165028932Y-137881101D01*
X165100000Y-137748142D01*
X165171068Y-137881101D01*
X165350392Y-138099608D01*
X165568899Y-138278932D01*
X165818192Y-138412182D01*
X166088691Y-138494236D01*
X166299508Y-138515000D01*
X166440492Y-138515000D01*
X166651309Y-138494236D01*
X166921808Y-138412182D01*
X167171101Y-138278932D01*
X167389608Y-138099608D01*
X167568932Y-137881101D01*
X167640000Y-137748142D01*
X167711068Y-137881101D01*
X167890392Y-138099608D01*
X168108899Y-138278932D01*
X168358192Y-138412182D01*
X168628691Y-138494236D01*
X168839508Y-138515000D01*
X168980492Y-138515000D01*
X169191309Y-138494236D01*
X169461808Y-138412182D01*
X169711101Y-138278932D01*
X169929608Y-138099608D01*
X170108932Y-137881101D01*
X170180000Y-137748142D01*
X170251068Y-137881101D01*
X170430392Y-138099608D01*
X170648899Y-138278932D01*
X170898192Y-138412182D01*
X171168691Y-138494236D01*
X171379508Y-138515000D01*
X171520492Y-138515000D01*
X171731309Y-138494236D01*
X172001808Y-138412182D01*
X172251101Y-138278932D01*
X172469608Y-138099608D01*
X172648932Y-137881101D01*
X172720000Y-137748142D01*
X172791068Y-137881101D01*
X172970392Y-138099608D01*
X173188899Y-138278932D01*
X173438192Y-138412182D01*
X173708691Y-138494236D01*
X173919508Y-138515000D01*
X174060492Y-138515000D01*
X174271309Y-138494236D01*
X174541808Y-138412182D01*
X174791101Y-138278932D01*
X175009608Y-138099608D01*
X175188932Y-137881101D01*
X175260000Y-137748142D01*
X175331068Y-137881101D01*
X175510392Y-138099608D01*
X175728899Y-138278932D01*
X175978192Y-138412182D01*
X176248691Y-138494236D01*
X176459508Y-138515000D01*
X176600492Y-138515000D01*
X176811309Y-138494236D01*
X177081808Y-138412182D01*
X177331101Y-138278932D01*
X177549608Y-138099608D01*
X177728932Y-137881101D01*
X177800000Y-137748142D01*
X177871068Y-137881101D01*
X178050392Y-138099608D01*
X178268899Y-138278932D01*
X178518192Y-138412182D01*
X178788691Y-138494236D01*
X178999508Y-138515000D01*
X179140492Y-138515000D01*
X179351309Y-138494236D01*
X179621808Y-138412182D01*
X179871101Y-138278932D01*
X180089608Y-138099608D01*
X180268932Y-137881101D01*
X180340000Y-137748142D01*
X180411068Y-137881101D01*
X180590392Y-138099608D01*
X180808899Y-138278932D01*
X181058192Y-138412182D01*
X181328691Y-138494236D01*
X181539508Y-138515000D01*
X181680492Y-138515000D01*
X181891309Y-138494236D01*
X182161808Y-138412182D01*
X182411101Y-138278932D01*
X182629608Y-138099608D01*
X182808932Y-137881101D01*
X182880000Y-137748142D01*
X182951068Y-137881101D01*
X183130392Y-138099608D01*
X183348899Y-138278932D01*
X183598192Y-138412182D01*
X183868691Y-138494236D01*
X184079508Y-138515000D01*
X184220492Y-138515000D01*
X184431309Y-138494236D01*
X184701808Y-138412182D01*
X184951101Y-138278932D01*
X185169608Y-138099608D01*
X185348932Y-137881101D01*
X185422579Y-137743318D01*
X185537615Y-137935131D01*
X185726586Y-138143519D01*
X185952580Y-138311037D01*
X186206913Y-138431246D01*
X186340961Y-138471904D01*
X186563000Y-138349915D01*
X186563000Y-137207000D01*
X186543000Y-137207000D01*
X186543000Y-136953000D01*
X186563000Y-136953000D01*
X186563000Y-135810085D01*
X186817000Y-135810085D01*
X186817000Y-136953000D01*
X186837000Y-136953000D01*
X186837000Y-137207000D01*
X186817000Y-137207000D01*
X186817000Y-138349915D01*
X187039039Y-138471904D01*
X187173087Y-138431246D01*
X187427420Y-138311037D01*
X187653414Y-138143519D01*
X187842385Y-137935131D01*
X187957421Y-137743318D01*
X188031068Y-137881101D01*
X188210392Y-138099608D01*
X188428899Y-138278932D01*
X188678192Y-138412182D01*
X188948691Y-138494236D01*
X189159508Y-138515000D01*
X189300492Y-138515000D01*
X189511309Y-138494236D01*
X189781808Y-138412182D01*
X190031101Y-138278932D01*
X190249608Y-138099608D01*
X190428932Y-137881101D01*
X190562182Y-137631808D01*
X190644236Y-137361309D01*
X190671943Y-137080000D01*
X190644236Y-136798691D01*
X190562182Y-136528192D01*
X190461040Y-136338967D01*
X199025000Y-136338967D01*
X199025000Y-136661033D01*
X199087832Y-136976912D01*
X199211082Y-137274463D01*
X199390013Y-137542252D01*
X199617748Y-137769987D01*
X199885537Y-137948918D01*
X200183088Y-138072168D01*
X200498967Y-138135000D01*
X200821033Y-138135000D01*
X201136912Y-138072168D01*
X201434463Y-137948918D01*
X201702252Y-137769987D01*
X201929987Y-137542252D01*
X202108918Y-137274463D01*
X202232168Y-136976912D01*
X202295000Y-136661033D01*
X202295000Y-136338967D01*
X205525000Y-136338967D01*
X205525000Y-136661033D01*
X205587832Y-136976912D01*
X205711082Y-137274463D01*
X205890013Y-137542252D01*
X206117748Y-137769987D01*
X206385537Y-137948918D01*
X206683088Y-138072168D01*
X206998967Y-138135000D01*
X207321033Y-138135000D01*
X207636912Y-138072168D01*
X207934463Y-137948918D01*
X208202252Y-137769987D01*
X208429987Y-137542252D01*
X208608918Y-137274463D01*
X208732168Y-136976912D01*
X208795000Y-136661033D01*
X208795000Y-136338967D01*
X211725000Y-136338967D01*
X211725000Y-136661033D01*
X211787832Y-136976912D01*
X211911082Y-137274463D01*
X212090013Y-137542252D01*
X212317748Y-137769987D01*
X212585537Y-137948918D01*
X212883088Y-138072168D01*
X213198967Y-138135000D01*
X213521033Y-138135000D01*
X213836912Y-138072168D01*
X214134463Y-137948918D01*
X214402252Y-137769987D01*
X214629987Y-137542252D01*
X214808918Y-137274463D01*
X214932168Y-136976912D01*
X214995000Y-136661033D01*
X214995000Y-136338967D01*
X218225000Y-136338967D01*
X218225000Y-136661033D01*
X218287832Y-136976912D01*
X218411082Y-137274463D01*
X218590013Y-137542252D01*
X218817748Y-137769987D01*
X219085537Y-137948918D01*
X219383088Y-138072168D01*
X219698967Y-138135000D01*
X220021033Y-138135000D01*
X220336912Y-138072168D01*
X220634463Y-137948918D01*
X220902252Y-137769987D01*
X221129987Y-137542252D01*
X221308918Y-137274463D01*
X221432168Y-136976912D01*
X221495000Y-136661033D01*
X221495000Y-136338967D01*
X221432168Y-136023088D01*
X221308918Y-135725537D01*
X221129987Y-135457748D01*
X220902252Y-135230013D01*
X220634463Y-135051082D01*
X220336912Y-134927832D01*
X220021033Y-134865000D01*
X219698967Y-134865000D01*
X219383088Y-134927832D01*
X219085537Y-135051082D01*
X218817748Y-135230013D01*
X218590013Y-135457748D01*
X218411082Y-135725537D01*
X218287832Y-136023088D01*
X218225000Y-136338967D01*
X214995000Y-136338967D01*
X214932168Y-136023088D01*
X214808918Y-135725537D01*
X214629987Y-135457748D01*
X214402252Y-135230013D01*
X214134463Y-135051082D01*
X213836912Y-134927832D01*
X213521033Y-134865000D01*
X213198967Y-134865000D01*
X212883088Y-134927832D01*
X212585537Y-135051082D01*
X212317748Y-135230013D01*
X212090013Y-135457748D01*
X211911082Y-135725537D01*
X211787832Y-136023088D01*
X211725000Y-136338967D01*
X208795000Y-136338967D01*
X208732168Y-136023088D01*
X208608918Y-135725537D01*
X208429987Y-135457748D01*
X208202252Y-135230013D01*
X207934463Y-135051082D01*
X207636912Y-134927832D01*
X207321033Y-134865000D01*
X206998967Y-134865000D01*
X206683088Y-134927832D01*
X206385537Y-135051082D01*
X206117748Y-135230013D01*
X205890013Y-135457748D01*
X205711082Y-135725537D01*
X205587832Y-136023088D01*
X205525000Y-136338967D01*
X202295000Y-136338967D01*
X202232168Y-136023088D01*
X202108918Y-135725537D01*
X201929987Y-135457748D01*
X201702252Y-135230013D01*
X201434463Y-135051082D01*
X201136912Y-134927832D01*
X200821033Y-134865000D01*
X200498967Y-134865000D01*
X200183088Y-134927832D01*
X199885537Y-135051082D01*
X199617748Y-135230013D01*
X199390013Y-135457748D01*
X199211082Y-135725537D01*
X199087832Y-136023088D01*
X199025000Y-136338967D01*
X190461040Y-136338967D01*
X190428932Y-136278899D01*
X190249608Y-136060392D01*
X190031101Y-135881068D01*
X189781808Y-135747818D01*
X189511309Y-135665764D01*
X189300492Y-135645000D01*
X189159508Y-135645000D01*
X188948691Y-135665764D01*
X188678192Y-135747818D01*
X188428899Y-135881068D01*
X188210392Y-136060392D01*
X188031068Y-136278899D01*
X187957421Y-136416682D01*
X187842385Y-136224869D01*
X187653414Y-136016481D01*
X187427420Y-135848963D01*
X187173087Y-135728754D01*
X187039039Y-135688096D01*
X186817000Y-135810085D01*
X186563000Y-135810085D01*
X186340961Y-135688096D01*
X186206913Y-135728754D01*
X185952580Y-135848963D01*
X185726586Y-136016481D01*
X185537615Y-136224869D01*
X185422579Y-136416682D01*
X185348932Y-136278899D01*
X185169608Y-136060392D01*
X184951101Y-135881068D01*
X184701808Y-135747818D01*
X184431309Y-135665764D01*
X184220492Y-135645000D01*
X184079508Y-135645000D01*
X183868691Y-135665764D01*
X183598192Y-135747818D01*
X183348899Y-135881068D01*
X183130392Y-136060392D01*
X182951068Y-136278899D01*
X182880000Y-136411858D01*
X182808932Y-136278899D01*
X182629608Y-136060392D01*
X182411101Y-135881068D01*
X182161808Y-135747818D01*
X181891309Y-135665764D01*
X181680492Y-135645000D01*
X181539508Y-135645000D01*
X181328691Y-135665764D01*
X181058192Y-135747818D01*
X180808899Y-135881068D01*
X180590392Y-136060392D01*
X180411068Y-136278899D01*
X180340000Y-136411858D01*
X180268932Y-136278899D01*
X180089608Y-136060392D01*
X179871101Y-135881068D01*
X179621808Y-135747818D01*
X179351309Y-135665764D01*
X179140492Y-135645000D01*
X178999508Y-135645000D01*
X178788691Y-135665764D01*
X178518192Y-135747818D01*
X178268899Y-135881068D01*
X178050392Y-136060392D01*
X177871068Y-136278899D01*
X177800000Y-136411858D01*
X177728932Y-136278899D01*
X177549608Y-136060392D01*
X177331101Y-135881068D01*
X177081808Y-135747818D01*
X176811309Y-135665764D01*
X176600492Y-135645000D01*
X176459508Y-135645000D01*
X176248691Y-135665764D01*
X175978192Y-135747818D01*
X175728899Y-135881068D01*
X175510392Y-136060392D01*
X175331068Y-136278899D01*
X175260000Y-136411858D01*
X175188932Y-136278899D01*
X175009608Y-136060392D01*
X174791101Y-135881068D01*
X174541808Y-135747818D01*
X174271309Y-135665764D01*
X174060492Y-135645000D01*
X173919508Y-135645000D01*
X173708691Y-135665764D01*
X173438192Y-135747818D01*
X173188899Y-135881068D01*
X172970392Y-136060392D01*
X172791068Y-136278899D01*
X172720000Y-136411858D01*
X172648932Y-136278899D01*
X172469608Y-136060392D01*
X172251101Y-135881068D01*
X172001808Y-135747818D01*
X171731309Y-135665764D01*
X171520492Y-135645000D01*
X171379508Y-135645000D01*
X171168691Y-135665764D01*
X170898192Y-135747818D01*
X170648899Y-135881068D01*
X170430392Y-136060392D01*
X170251068Y-136278899D01*
X170180000Y-136411858D01*
X170108932Y-136278899D01*
X169929608Y-136060392D01*
X169711101Y-135881068D01*
X169461808Y-135747818D01*
X169191309Y-135665764D01*
X168980492Y-135645000D01*
X168839508Y-135645000D01*
X168628691Y-135665764D01*
X168358192Y-135747818D01*
X168108899Y-135881068D01*
X167890392Y-136060392D01*
X167711068Y-136278899D01*
X167640000Y-136411858D01*
X167568932Y-136278899D01*
X167389608Y-136060392D01*
X167171101Y-135881068D01*
X166921808Y-135747818D01*
X166651309Y-135665764D01*
X166440492Y-135645000D01*
X166299508Y-135645000D01*
X166088691Y-135665764D01*
X165818192Y-135747818D01*
X165568899Y-135881068D01*
X165350392Y-136060392D01*
X165171068Y-136278899D01*
X165100000Y-136411858D01*
X165028932Y-136278899D01*
X164849608Y-136060392D01*
X164631101Y-135881068D01*
X164381808Y-135747818D01*
X164111309Y-135665764D01*
X163900492Y-135645000D01*
X163759508Y-135645000D01*
X163548691Y-135665764D01*
X163278192Y-135747818D01*
X163028899Y-135881068D01*
X162810392Y-136060392D01*
X162631068Y-136278899D01*
X162560000Y-136411858D01*
X162488932Y-136278899D01*
X162309608Y-136060392D01*
X162091101Y-135881068D01*
X161841808Y-135747818D01*
X161571309Y-135665764D01*
X161360492Y-135645000D01*
X161219508Y-135645000D01*
X161008691Y-135665764D01*
X160738192Y-135747818D01*
X160488899Y-135881068D01*
X160270392Y-136060392D01*
X160091068Y-136278899D01*
X160020000Y-136411858D01*
X159948932Y-136278899D01*
X159769608Y-136060392D01*
X159551101Y-135881068D01*
X159301808Y-135747818D01*
X159031309Y-135665764D01*
X158820492Y-135645000D01*
X158679508Y-135645000D01*
X158468691Y-135665764D01*
X158198192Y-135747818D01*
X157948899Y-135881068D01*
X157730392Y-136060392D01*
X157551068Y-136278899D01*
X157480000Y-136411858D01*
X157408932Y-136278899D01*
X157229608Y-136060392D01*
X157011101Y-135881068D01*
X156761808Y-135747818D01*
X156491309Y-135665764D01*
X156280492Y-135645000D01*
X156139508Y-135645000D01*
X155928691Y-135665764D01*
X155658192Y-135747818D01*
X155408899Y-135881068D01*
X155190392Y-136060392D01*
X155011068Y-136278899D01*
X154940000Y-136411858D01*
X154868932Y-136278899D01*
X154689608Y-136060392D01*
X154471101Y-135881068D01*
X154221808Y-135747818D01*
X153951309Y-135665764D01*
X153740492Y-135645000D01*
X153599508Y-135645000D01*
X153388691Y-135665764D01*
X153118192Y-135747818D01*
X152868899Y-135881068D01*
X152650392Y-136060392D01*
X152471068Y-136278899D01*
X152337818Y-136528192D01*
X152255764Y-136798691D01*
X152228057Y-137080000D01*
X141122940Y-137080000D01*
X141121597Y-133135413D01*
X199704192Y-133135413D01*
X199799956Y-133399814D01*
X200089571Y-133540704D01*
X200401108Y-133622384D01*
X200722595Y-133641718D01*
X201041675Y-133597961D01*
X201346088Y-133492795D01*
X201520044Y-133399814D01*
X201615808Y-133135413D01*
X206204192Y-133135413D01*
X206299956Y-133399814D01*
X206589571Y-133540704D01*
X206901108Y-133622384D01*
X207222595Y-133641718D01*
X207541675Y-133597961D01*
X207846088Y-133492795D01*
X208020044Y-133399814D01*
X208115808Y-133135413D01*
X212404192Y-133135413D01*
X212499956Y-133399814D01*
X212789571Y-133540704D01*
X213101108Y-133622384D01*
X213422595Y-133641718D01*
X213741675Y-133597961D01*
X214046088Y-133492795D01*
X214220044Y-133399814D01*
X214315808Y-133135413D01*
X218904192Y-133135413D01*
X218999956Y-133399814D01*
X219289571Y-133540704D01*
X219601108Y-133622384D01*
X219922595Y-133641718D01*
X220241675Y-133597961D01*
X220546088Y-133492795D01*
X220720044Y-133399814D01*
X220815808Y-133135413D01*
X219860000Y-132179605D01*
X218904192Y-133135413D01*
X214315808Y-133135413D01*
X213360000Y-132179605D01*
X212404192Y-133135413D01*
X208115808Y-133135413D01*
X207160000Y-132179605D01*
X206204192Y-133135413D01*
X201615808Y-133135413D01*
X200660000Y-132179605D01*
X199704192Y-133135413D01*
X141121597Y-133135413D01*
X141121231Y-132062595D01*
X199018282Y-132062595D01*
X199062039Y-132381675D01*
X199167205Y-132686088D01*
X199260186Y-132860044D01*
X199524587Y-132955808D01*
X200480395Y-132000000D01*
X200839605Y-132000000D01*
X201795413Y-132955808D01*
X202059814Y-132860044D01*
X202200704Y-132570429D01*
X202282384Y-132258892D01*
X202294189Y-132062595D01*
X205518282Y-132062595D01*
X205562039Y-132381675D01*
X205667205Y-132686088D01*
X205760186Y-132860044D01*
X206024587Y-132955808D01*
X206980395Y-132000000D01*
X207339605Y-132000000D01*
X208295413Y-132955808D01*
X208559814Y-132860044D01*
X208700704Y-132570429D01*
X208782384Y-132258892D01*
X208794189Y-132062595D01*
X211718282Y-132062595D01*
X211762039Y-132381675D01*
X211867205Y-132686088D01*
X211960186Y-132860044D01*
X212224587Y-132955808D01*
X213180395Y-132000000D01*
X213539605Y-132000000D01*
X214495413Y-132955808D01*
X214759814Y-132860044D01*
X214900704Y-132570429D01*
X214982384Y-132258892D01*
X214994189Y-132062595D01*
X218218282Y-132062595D01*
X218262039Y-132381675D01*
X218367205Y-132686088D01*
X218460186Y-132860044D01*
X218724587Y-132955808D01*
X219680395Y-132000000D01*
X220039605Y-132000000D01*
X220995413Y-132955808D01*
X221259814Y-132860044D01*
X221400704Y-132570429D01*
X221482384Y-132258892D01*
X221501718Y-131937405D01*
X221457961Y-131618325D01*
X221352795Y-131313912D01*
X221259814Y-131139956D01*
X220995413Y-131044192D01*
X220039605Y-132000000D01*
X219680395Y-132000000D01*
X218724587Y-131044192D01*
X218460186Y-131139956D01*
X218319296Y-131429571D01*
X218237616Y-131741108D01*
X218218282Y-132062595D01*
X214994189Y-132062595D01*
X215001718Y-131937405D01*
X214957961Y-131618325D01*
X214852795Y-131313912D01*
X214759814Y-131139956D01*
X214495413Y-131044192D01*
X213539605Y-132000000D01*
X213180395Y-132000000D01*
X212224587Y-131044192D01*
X211960186Y-131139956D01*
X211819296Y-131429571D01*
X211737616Y-131741108D01*
X211718282Y-132062595D01*
X208794189Y-132062595D01*
X208801718Y-131937405D01*
X208757961Y-131618325D01*
X208652795Y-131313912D01*
X208559814Y-131139956D01*
X208295413Y-131044192D01*
X207339605Y-132000000D01*
X206980395Y-132000000D01*
X206024587Y-131044192D01*
X205760186Y-131139956D01*
X205619296Y-131429571D01*
X205537616Y-131741108D01*
X205518282Y-132062595D01*
X202294189Y-132062595D01*
X202301718Y-131937405D01*
X202257961Y-131618325D01*
X202152795Y-131313912D01*
X202059814Y-131139956D01*
X201795413Y-131044192D01*
X200839605Y-132000000D01*
X200480395Y-132000000D01*
X199524587Y-131044192D01*
X199260186Y-131139956D01*
X199119296Y-131429571D01*
X199037616Y-131741108D01*
X199018282Y-132062595D01*
X141121231Y-132062595D01*
X141120823Y-130864587D01*
X199704192Y-130864587D01*
X200660000Y-131820395D01*
X201615808Y-130864587D01*
X206204192Y-130864587D01*
X207160000Y-131820395D01*
X208115808Y-130864587D01*
X212404192Y-130864587D01*
X213360000Y-131820395D01*
X214315808Y-130864587D01*
X218904192Y-130864587D01*
X219860000Y-131820395D01*
X220815808Y-130864587D01*
X220720044Y-130600186D01*
X220430429Y-130459296D01*
X220118892Y-130377616D01*
X219797405Y-130358282D01*
X219478325Y-130402039D01*
X219173912Y-130507205D01*
X218999956Y-130600186D01*
X218904192Y-130864587D01*
X214315808Y-130864587D01*
X214220044Y-130600186D01*
X213930429Y-130459296D01*
X213618892Y-130377616D01*
X213297405Y-130358282D01*
X212978325Y-130402039D01*
X212673912Y-130507205D01*
X212499956Y-130600186D01*
X212404192Y-130864587D01*
X208115808Y-130864587D01*
X208020044Y-130600186D01*
X207730429Y-130459296D01*
X207418892Y-130377616D01*
X207097405Y-130358282D01*
X206778325Y-130402039D01*
X206473912Y-130507205D01*
X206299956Y-130600186D01*
X206204192Y-130864587D01*
X201615808Y-130864587D01*
X201520044Y-130600186D01*
X201230429Y-130459296D01*
X200918892Y-130377616D01*
X200597405Y-130358282D01*
X200278325Y-130402039D01*
X199973912Y-130507205D01*
X199799956Y-130600186D01*
X199704192Y-130864587D01*
X141120823Y-130864587D01*
X141116881Y-119300000D01*
X147826324Y-119300000D01*
X147830000Y-119337322D01*
X147830001Y-126882668D01*
X147826324Y-126920000D01*
X147840998Y-127068985D01*
X147884454Y-127212246D01*
X147955026Y-127344276D01*
X148025379Y-127430000D01*
X148050000Y-127460001D01*
X148078998Y-127483799D01*
X149296201Y-128701003D01*
X149319999Y-128730001D01*
X149435724Y-128824974D01*
X149567753Y-128895546D01*
X149711014Y-128939003D01*
X149822667Y-128950000D01*
X149822676Y-128950000D01*
X149859999Y-128953676D01*
X149897322Y-128950000D01*
X158712678Y-128950000D01*
X158750000Y-128953676D01*
X158787322Y-128950000D01*
X158787333Y-128950000D01*
X158898986Y-128939003D01*
X159042247Y-128895546D01*
X159174276Y-128824974D01*
X159290001Y-128730001D01*
X159313804Y-128700997D01*
X161801009Y-126213794D01*
X161830001Y-126190001D01*
X161839056Y-126178967D01*
X199025000Y-126178967D01*
X199025000Y-126501033D01*
X199087832Y-126816912D01*
X199211082Y-127114463D01*
X199390013Y-127382252D01*
X199617748Y-127609987D01*
X199885537Y-127788918D01*
X200183088Y-127912168D01*
X200498967Y-127975000D01*
X200821033Y-127975000D01*
X201136912Y-127912168D01*
X201434463Y-127788918D01*
X201702252Y-127609987D01*
X201929987Y-127382252D01*
X202108918Y-127114463D01*
X202232168Y-126816912D01*
X202295000Y-126501033D01*
X202295000Y-126178967D01*
X205525000Y-126178967D01*
X205525000Y-126501033D01*
X205587832Y-126816912D01*
X205711082Y-127114463D01*
X205890013Y-127382252D01*
X206117748Y-127609987D01*
X206385537Y-127788918D01*
X206683088Y-127912168D01*
X206998967Y-127975000D01*
X207321033Y-127975000D01*
X207636912Y-127912168D01*
X207934463Y-127788918D01*
X208202252Y-127609987D01*
X208429987Y-127382252D01*
X208608918Y-127114463D01*
X208732168Y-126816912D01*
X208795000Y-126501033D01*
X208795000Y-126178967D01*
X211725000Y-126178967D01*
X211725000Y-126501033D01*
X211787832Y-126816912D01*
X211911082Y-127114463D01*
X212090013Y-127382252D01*
X212317748Y-127609987D01*
X212585537Y-127788918D01*
X212883088Y-127912168D01*
X213198967Y-127975000D01*
X213521033Y-127975000D01*
X213836912Y-127912168D01*
X214134463Y-127788918D01*
X214402252Y-127609987D01*
X214629987Y-127382252D01*
X214808918Y-127114463D01*
X214932168Y-126816912D01*
X214995000Y-126501033D01*
X214995000Y-126178967D01*
X218225000Y-126178967D01*
X218225000Y-126501033D01*
X218287832Y-126816912D01*
X218411082Y-127114463D01*
X218590013Y-127382252D01*
X218817748Y-127609987D01*
X219085537Y-127788918D01*
X219383088Y-127912168D01*
X219698967Y-127975000D01*
X220021033Y-127975000D01*
X220336912Y-127912168D01*
X220634463Y-127788918D01*
X220902252Y-127609987D01*
X221129987Y-127382252D01*
X221308918Y-127114463D01*
X221432168Y-126816912D01*
X221495000Y-126501033D01*
X221495000Y-126178967D01*
X221432168Y-125863088D01*
X221308918Y-125565537D01*
X221129987Y-125297748D01*
X220902252Y-125070013D01*
X220634463Y-124891082D01*
X220336912Y-124767832D01*
X220021033Y-124705000D01*
X219698967Y-124705000D01*
X219383088Y-124767832D01*
X219085537Y-124891082D01*
X218817748Y-125070013D01*
X218590013Y-125297748D01*
X218411082Y-125565537D01*
X218287832Y-125863088D01*
X218225000Y-126178967D01*
X214995000Y-126178967D01*
X214932168Y-125863088D01*
X214808918Y-125565537D01*
X214629987Y-125297748D01*
X214402252Y-125070013D01*
X214134463Y-124891082D01*
X213836912Y-124767832D01*
X213521033Y-124705000D01*
X213198967Y-124705000D01*
X212883088Y-124767832D01*
X212585537Y-124891082D01*
X212317748Y-125070013D01*
X212090013Y-125297748D01*
X211911082Y-125565537D01*
X211787832Y-125863088D01*
X211725000Y-126178967D01*
X208795000Y-126178967D01*
X208732168Y-125863088D01*
X208608918Y-125565537D01*
X208429987Y-125297748D01*
X208202252Y-125070013D01*
X207934463Y-124891082D01*
X207636912Y-124767832D01*
X207321033Y-124705000D01*
X206998967Y-124705000D01*
X206683088Y-124767832D01*
X206385537Y-124891082D01*
X206117748Y-125070013D01*
X205890013Y-125297748D01*
X205711082Y-125565537D01*
X205587832Y-125863088D01*
X205525000Y-126178967D01*
X202295000Y-126178967D01*
X202232168Y-125863088D01*
X202108918Y-125565537D01*
X201929987Y-125297748D01*
X201702252Y-125070013D01*
X201434463Y-124891082D01*
X201136912Y-124767832D01*
X200821033Y-124705000D01*
X200498967Y-124705000D01*
X200183088Y-124767832D01*
X199885537Y-124891082D01*
X199617748Y-125070013D01*
X199390013Y-125297748D01*
X199211082Y-125565537D01*
X199087832Y-125863088D01*
X199025000Y-126178967D01*
X161839056Y-126178967D01*
X161853795Y-126161008D01*
X161853799Y-126161004D01*
X161924973Y-126074277D01*
X161924974Y-126074276D01*
X161995546Y-125942247D01*
X162039003Y-125798986D01*
X162050000Y-125687333D01*
X162050000Y-125687324D01*
X162053676Y-125650001D01*
X162050000Y-125612678D01*
X162050000Y-123060901D01*
X162091101Y-123038932D01*
X162309608Y-122859608D01*
X162488932Y-122641101D01*
X162560000Y-122508142D01*
X162631068Y-122641101D01*
X162810392Y-122859608D01*
X163028899Y-123038932D01*
X163278192Y-123172182D01*
X163548691Y-123254236D01*
X163759508Y-123275000D01*
X163900492Y-123275000D01*
X164111309Y-123254236D01*
X164381808Y-123172182D01*
X164631101Y-123038932D01*
X164849608Y-122859608D01*
X165028932Y-122641101D01*
X165100000Y-122508142D01*
X165171068Y-122641101D01*
X165350392Y-122859608D01*
X165568899Y-123038932D01*
X165818192Y-123172182D01*
X166088691Y-123254236D01*
X166299508Y-123275000D01*
X166440492Y-123275000D01*
X166651309Y-123254236D01*
X166921808Y-123172182D01*
X167171101Y-123038932D01*
X167389608Y-122859608D01*
X167568932Y-122641101D01*
X167640000Y-122508142D01*
X167711068Y-122641101D01*
X167890392Y-122859608D01*
X168108899Y-123038932D01*
X168358192Y-123172182D01*
X168628691Y-123254236D01*
X168839508Y-123275000D01*
X168980492Y-123275000D01*
X169191309Y-123254236D01*
X169461808Y-123172182D01*
X169711101Y-123038932D01*
X169929608Y-122859608D01*
X170108932Y-122641101D01*
X170180000Y-122508142D01*
X170251068Y-122641101D01*
X170430392Y-122859608D01*
X170648899Y-123038932D01*
X170898192Y-123172182D01*
X171168691Y-123254236D01*
X171379508Y-123275000D01*
X171520492Y-123275000D01*
X171731309Y-123254236D01*
X172001808Y-123172182D01*
X172251101Y-123038932D01*
X172469608Y-122859608D01*
X172648932Y-122641101D01*
X172720000Y-122508142D01*
X172791068Y-122641101D01*
X172970392Y-122859608D01*
X173188899Y-123038932D01*
X173438192Y-123172182D01*
X173708691Y-123254236D01*
X173919508Y-123275000D01*
X174060492Y-123275000D01*
X174271309Y-123254236D01*
X174541808Y-123172182D01*
X174791101Y-123038932D01*
X175009608Y-122859608D01*
X175188932Y-122641101D01*
X175260000Y-122508142D01*
X175331068Y-122641101D01*
X175510392Y-122859608D01*
X175728899Y-123038932D01*
X175978192Y-123172182D01*
X176248691Y-123254236D01*
X176459508Y-123275000D01*
X176600492Y-123275000D01*
X176811309Y-123254236D01*
X177081808Y-123172182D01*
X177331101Y-123038932D01*
X177549608Y-122859608D01*
X177728932Y-122641101D01*
X177800000Y-122508142D01*
X177871068Y-122641101D01*
X178050392Y-122859608D01*
X178268899Y-123038932D01*
X178518192Y-123172182D01*
X178788691Y-123254236D01*
X178999508Y-123275000D01*
X179140492Y-123275000D01*
X179351309Y-123254236D01*
X179621808Y-123172182D01*
X179871101Y-123038932D01*
X180089608Y-122859608D01*
X180268932Y-122641101D01*
X180342579Y-122503318D01*
X180457615Y-122695131D01*
X180646586Y-122903519D01*
X180872580Y-123071037D01*
X181126913Y-123191246D01*
X181260961Y-123231904D01*
X181483000Y-123109915D01*
X181483000Y-121967000D01*
X181463000Y-121967000D01*
X181463000Y-121713000D01*
X181483000Y-121713000D01*
X181483000Y-120570085D01*
X181737000Y-120570085D01*
X181737000Y-121713000D01*
X181757000Y-121713000D01*
X181757000Y-121967000D01*
X181737000Y-121967000D01*
X181737000Y-123109915D01*
X181959039Y-123231904D01*
X182093087Y-123191246D01*
X182347420Y-123071037D01*
X182573414Y-122903519D01*
X182762385Y-122695131D01*
X182877421Y-122503318D01*
X182951068Y-122641101D01*
X183130392Y-122859608D01*
X183348899Y-123038932D01*
X183598192Y-123172182D01*
X183868691Y-123254236D01*
X184079508Y-123275000D01*
X184220492Y-123275000D01*
X184431309Y-123254236D01*
X184701808Y-123172182D01*
X184951101Y-123038932D01*
X185169608Y-122859608D01*
X185348932Y-122641101D01*
X185420000Y-122508142D01*
X185491068Y-122641101D01*
X185670392Y-122859608D01*
X185888899Y-123038932D01*
X186138192Y-123172182D01*
X186408691Y-123254236D01*
X186619508Y-123275000D01*
X186760492Y-123275000D01*
X186971309Y-123254236D01*
X187241808Y-123172182D01*
X187491101Y-123038932D01*
X187709608Y-122859608D01*
X187802419Y-122746518D01*
X187804188Y-122764482D01*
X187840498Y-122884180D01*
X187899463Y-122994494D01*
X187978815Y-123091185D01*
X188075506Y-123170537D01*
X188185820Y-123229502D01*
X188305518Y-123265812D01*
X188430000Y-123278072D01*
X190030000Y-123278072D01*
X190154482Y-123265812D01*
X190274180Y-123229502D01*
X190384494Y-123170537D01*
X190481185Y-123091185D01*
X190560537Y-122994494D01*
X190570736Y-122975413D01*
X199704192Y-122975413D01*
X199799956Y-123239814D01*
X200089571Y-123380704D01*
X200401108Y-123462384D01*
X200722595Y-123481718D01*
X201041675Y-123437961D01*
X201346088Y-123332795D01*
X201520044Y-123239814D01*
X201615808Y-122975413D01*
X206204192Y-122975413D01*
X206299956Y-123239814D01*
X206589571Y-123380704D01*
X206901108Y-123462384D01*
X207222595Y-123481718D01*
X207541675Y-123437961D01*
X207846088Y-123332795D01*
X208020044Y-123239814D01*
X208115808Y-122975413D01*
X212404192Y-122975413D01*
X212499956Y-123239814D01*
X212789571Y-123380704D01*
X213101108Y-123462384D01*
X213422595Y-123481718D01*
X213741675Y-123437961D01*
X214046088Y-123332795D01*
X214220044Y-123239814D01*
X214315808Y-122975413D01*
X218904192Y-122975413D01*
X218999956Y-123239814D01*
X219289571Y-123380704D01*
X219601108Y-123462384D01*
X219922595Y-123481718D01*
X220241675Y-123437961D01*
X220546088Y-123332795D01*
X220720044Y-123239814D01*
X220815808Y-122975413D01*
X219860000Y-122019605D01*
X218904192Y-122975413D01*
X214315808Y-122975413D01*
X213360000Y-122019605D01*
X212404192Y-122975413D01*
X208115808Y-122975413D01*
X207160000Y-122019605D01*
X206204192Y-122975413D01*
X201615808Y-122975413D01*
X200660000Y-122019605D01*
X199704192Y-122975413D01*
X190570736Y-122975413D01*
X190619502Y-122884180D01*
X190655812Y-122764482D01*
X190668072Y-122640000D01*
X190668072Y-121902595D01*
X199018282Y-121902595D01*
X199062039Y-122221675D01*
X199167205Y-122526088D01*
X199260186Y-122700044D01*
X199524587Y-122795808D01*
X200480395Y-121840000D01*
X200839605Y-121840000D01*
X201795413Y-122795808D01*
X202059814Y-122700044D01*
X202200704Y-122410429D01*
X202282384Y-122098892D01*
X202294189Y-121902595D01*
X205518282Y-121902595D01*
X205562039Y-122221675D01*
X205667205Y-122526088D01*
X205760186Y-122700044D01*
X206024587Y-122795808D01*
X206980395Y-121840000D01*
X207339605Y-121840000D01*
X208295413Y-122795808D01*
X208559814Y-122700044D01*
X208700704Y-122410429D01*
X208782384Y-122098892D01*
X208794189Y-121902595D01*
X211718282Y-121902595D01*
X211762039Y-122221675D01*
X211867205Y-122526088D01*
X211960186Y-122700044D01*
X212224587Y-122795808D01*
X213180395Y-121840000D01*
X213539605Y-121840000D01*
X214495413Y-122795808D01*
X214759814Y-122700044D01*
X214900704Y-122410429D01*
X214982384Y-122098892D01*
X214994189Y-121902595D01*
X218218282Y-121902595D01*
X218262039Y-122221675D01*
X218367205Y-122526088D01*
X218460186Y-122700044D01*
X218724587Y-122795808D01*
X219680395Y-121840000D01*
X220039605Y-121840000D01*
X220995413Y-122795808D01*
X221259814Y-122700044D01*
X221400704Y-122410429D01*
X221482384Y-122098892D01*
X221501718Y-121777405D01*
X221457961Y-121458325D01*
X221352795Y-121153912D01*
X221259814Y-120979956D01*
X220995413Y-120884192D01*
X220039605Y-121840000D01*
X219680395Y-121840000D01*
X218724587Y-120884192D01*
X218460186Y-120979956D01*
X218319296Y-121269571D01*
X218237616Y-121581108D01*
X218218282Y-121902595D01*
X214994189Y-121902595D01*
X215001718Y-121777405D01*
X214957961Y-121458325D01*
X214852795Y-121153912D01*
X214759814Y-120979956D01*
X214495413Y-120884192D01*
X213539605Y-121840000D01*
X213180395Y-121840000D01*
X212224587Y-120884192D01*
X211960186Y-120979956D01*
X211819296Y-121269571D01*
X211737616Y-121581108D01*
X211718282Y-121902595D01*
X208794189Y-121902595D01*
X208801718Y-121777405D01*
X208757961Y-121458325D01*
X208652795Y-121153912D01*
X208559814Y-120979956D01*
X208295413Y-120884192D01*
X207339605Y-121840000D01*
X206980395Y-121840000D01*
X206024587Y-120884192D01*
X205760186Y-120979956D01*
X205619296Y-121269571D01*
X205537616Y-121581108D01*
X205518282Y-121902595D01*
X202294189Y-121902595D01*
X202301718Y-121777405D01*
X202257961Y-121458325D01*
X202152795Y-121153912D01*
X202059814Y-120979956D01*
X201795413Y-120884192D01*
X200839605Y-121840000D01*
X200480395Y-121840000D01*
X199524587Y-120884192D01*
X199260186Y-120979956D01*
X199119296Y-121269571D01*
X199037616Y-121581108D01*
X199018282Y-121902595D01*
X190668072Y-121902595D01*
X190668072Y-121040000D01*
X190655812Y-120915518D01*
X190619502Y-120795820D01*
X190570737Y-120704587D01*
X199704192Y-120704587D01*
X200660000Y-121660395D01*
X201615808Y-120704587D01*
X206204192Y-120704587D01*
X207160000Y-121660395D01*
X208115808Y-120704587D01*
X212404192Y-120704587D01*
X213360000Y-121660395D01*
X214315808Y-120704587D01*
X218904192Y-120704587D01*
X219860000Y-121660395D01*
X220815808Y-120704587D01*
X220720044Y-120440186D01*
X220430429Y-120299296D01*
X220118892Y-120217616D01*
X219797405Y-120198282D01*
X219478325Y-120242039D01*
X219173912Y-120347205D01*
X218999956Y-120440186D01*
X218904192Y-120704587D01*
X214315808Y-120704587D01*
X214220044Y-120440186D01*
X213930429Y-120299296D01*
X213618892Y-120217616D01*
X213297405Y-120198282D01*
X212978325Y-120242039D01*
X212673912Y-120347205D01*
X212499956Y-120440186D01*
X212404192Y-120704587D01*
X208115808Y-120704587D01*
X208020044Y-120440186D01*
X207730429Y-120299296D01*
X207418892Y-120217616D01*
X207097405Y-120198282D01*
X206778325Y-120242039D01*
X206473912Y-120347205D01*
X206299956Y-120440186D01*
X206204192Y-120704587D01*
X201615808Y-120704587D01*
X201520044Y-120440186D01*
X201230429Y-120299296D01*
X200918892Y-120217616D01*
X200597405Y-120198282D01*
X200278325Y-120242039D01*
X199973912Y-120347205D01*
X199799956Y-120440186D01*
X199704192Y-120704587D01*
X190570737Y-120704587D01*
X190560537Y-120685506D01*
X190481185Y-120588815D01*
X190384494Y-120509463D01*
X190274180Y-120450498D01*
X190154482Y-120414188D01*
X190030000Y-120401928D01*
X188430000Y-120401928D01*
X188305518Y-120414188D01*
X188185820Y-120450498D01*
X188075506Y-120509463D01*
X187978815Y-120588815D01*
X187899463Y-120685506D01*
X187840498Y-120795820D01*
X187804188Y-120915518D01*
X187802419Y-120933482D01*
X187709608Y-120820392D01*
X187491101Y-120641068D01*
X187241808Y-120507818D01*
X186971309Y-120425764D01*
X186760492Y-120405000D01*
X186619508Y-120405000D01*
X186408691Y-120425764D01*
X186138192Y-120507818D01*
X185888899Y-120641068D01*
X185670392Y-120820392D01*
X185491068Y-121038899D01*
X185420000Y-121171858D01*
X185348932Y-121038899D01*
X185169608Y-120820392D01*
X184951101Y-120641068D01*
X184701808Y-120507818D01*
X184431309Y-120425764D01*
X184220492Y-120405000D01*
X184079508Y-120405000D01*
X183868691Y-120425764D01*
X183598192Y-120507818D01*
X183348899Y-120641068D01*
X183130392Y-120820392D01*
X182951068Y-121038899D01*
X182877421Y-121176682D01*
X182762385Y-120984869D01*
X182573414Y-120776481D01*
X182347420Y-120608963D01*
X182093087Y-120488754D01*
X181959039Y-120448096D01*
X181737000Y-120570085D01*
X181483000Y-120570085D01*
X181260961Y-120448096D01*
X181126913Y-120488754D01*
X180872580Y-120608963D01*
X180646586Y-120776481D01*
X180457615Y-120984869D01*
X180342579Y-121176682D01*
X180268932Y-121038899D01*
X180089608Y-120820392D01*
X179871101Y-120641068D01*
X179621808Y-120507818D01*
X179351309Y-120425764D01*
X179140492Y-120405000D01*
X178999508Y-120405000D01*
X178788691Y-120425764D01*
X178518192Y-120507818D01*
X178268899Y-120641068D01*
X178050392Y-120820392D01*
X177871068Y-121038899D01*
X177800000Y-121171858D01*
X177728932Y-121038899D01*
X177549608Y-120820392D01*
X177331101Y-120641068D01*
X177081808Y-120507818D01*
X176811309Y-120425764D01*
X176600492Y-120405000D01*
X176459508Y-120405000D01*
X176248691Y-120425764D01*
X175978192Y-120507818D01*
X175728899Y-120641068D01*
X175510392Y-120820392D01*
X175331068Y-121038899D01*
X175260000Y-121171858D01*
X175188932Y-121038899D01*
X175009608Y-120820392D01*
X174791101Y-120641068D01*
X174541808Y-120507818D01*
X174271309Y-120425764D01*
X174060492Y-120405000D01*
X173919508Y-120405000D01*
X173708691Y-120425764D01*
X173438192Y-120507818D01*
X173188899Y-120641068D01*
X172970392Y-120820392D01*
X172791068Y-121038899D01*
X172720000Y-121171858D01*
X172648932Y-121038899D01*
X172469608Y-120820392D01*
X172251101Y-120641068D01*
X172001808Y-120507818D01*
X171731309Y-120425764D01*
X171520492Y-120405000D01*
X171379508Y-120405000D01*
X171168691Y-120425764D01*
X170898192Y-120507818D01*
X170648899Y-120641068D01*
X170430392Y-120820392D01*
X170251068Y-121038899D01*
X170180000Y-121171858D01*
X170108932Y-121038899D01*
X169929608Y-120820392D01*
X169711101Y-120641068D01*
X169461808Y-120507818D01*
X169191309Y-120425764D01*
X168980492Y-120405000D01*
X168839508Y-120405000D01*
X168628691Y-120425764D01*
X168358192Y-120507818D01*
X168108899Y-120641068D01*
X167890392Y-120820392D01*
X167711068Y-121038899D01*
X167640000Y-121171858D01*
X167568932Y-121038899D01*
X167389608Y-120820392D01*
X167171101Y-120641068D01*
X166921808Y-120507818D01*
X166651309Y-120425764D01*
X166440492Y-120405000D01*
X166299508Y-120405000D01*
X166088691Y-120425764D01*
X165818192Y-120507818D01*
X165568899Y-120641068D01*
X165350392Y-120820392D01*
X165171068Y-121038899D01*
X165100000Y-121171858D01*
X165028932Y-121038899D01*
X164849608Y-120820392D01*
X164631101Y-120641068D01*
X164381808Y-120507818D01*
X164111309Y-120425764D01*
X163900492Y-120405000D01*
X163759508Y-120405000D01*
X163548691Y-120425764D01*
X163278192Y-120507818D01*
X163028899Y-120641068D01*
X162810392Y-120820392D01*
X162631068Y-121038899D01*
X162560000Y-121171858D01*
X162488932Y-121038899D01*
X162309608Y-120820392D01*
X162091101Y-120641068D01*
X161841808Y-120507818D01*
X161571309Y-120425764D01*
X161360492Y-120405000D01*
X161219508Y-120405000D01*
X161008691Y-120425764D01*
X160738192Y-120507818D01*
X160488899Y-120641068D01*
X160270392Y-120820392D01*
X160091068Y-121038899D01*
X160020000Y-121171858D01*
X159948932Y-121038899D01*
X159769608Y-120820392D01*
X159551101Y-120641068D01*
X159301808Y-120507818D01*
X159031309Y-120425764D01*
X158820492Y-120405000D01*
X158679508Y-120405000D01*
X158468691Y-120425764D01*
X158198192Y-120507818D01*
X157948899Y-120641068D01*
X157730392Y-120820392D01*
X157551068Y-121038899D01*
X157480000Y-121171858D01*
X157408932Y-121038899D01*
X157229608Y-120820392D01*
X157011101Y-120641068D01*
X156970000Y-120619099D01*
X156970000Y-117074801D01*
X158554801Y-115490000D01*
X161118057Y-115490000D01*
X161145764Y-115771309D01*
X161227818Y-116041808D01*
X161361068Y-116291101D01*
X161540392Y-116509608D01*
X161758899Y-116688932D01*
X162008192Y-116822182D01*
X162278691Y-116904236D01*
X162489508Y-116925000D01*
X162630492Y-116925000D01*
X162841309Y-116904236D01*
X163111808Y-116822182D01*
X163361101Y-116688932D01*
X163579608Y-116509608D01*
X163758932Y-116291101D01*
X163892182Y-116041808D01*
X163974236Y-115771309D01*
X164001943Y-115490000D01*
X170008057Y-115490000D01*
X170035764Y-115771309D01*
X170117818Y-116041808D01*
X170251068Y-116291101D01*
X170430392Y-116509608D01*
X170648899Y-116688932D01*
X170898192Y-116822182D01*
X171168691Y-116904236D01*
X171379508Y-116925000D01*
X171520492Y-116925000D01*
X171731309Y-116904236D01*
X172001808Y-116822182D01*
X172251101Y-116688932D01*
X172469608Y-116509608D01*
X172648932Y-116291101D01*
X172782182Y-116041808D01*
X172864236Y-115771309D01*
X172891943Y-115490000D01*
X178898057Y-115490000D01*
X178925764Y-115771309D01*
X179007818Y-116041808D01*
X179141068Y-116291101D01*
X179320392Y-116509608D01*
X179538899Y-116688932D01*
X179788192Y-116822182D01*
X180058691Y-116904236D01*
X180269508Y-116925000D01*
X180410492Y-116925000D01*
X180621309Y-116904236D01*
X180891808Y-116822182D01*
X181141101Y-116688932D01*
X181359608Y-116509608D01*
X181538932Y-116291101D01*
X181672182Y-116041808D01*
X181754236Y-115771309D01*
X181781943Y-115490000D01*
X181754236Y-115208691D01*
X181672182Y-114938192D01*
X181538932Y-114688899D01*
X181359608Y-114470392D01*
X181141101Y-114291068D01*
X180891808Y-114157818D01*
X180621309Y-114075764D01*
X180410492Y-114055000D01*
X180269508Y-114055000D01*
X180058691Y-114075764D01*
X179788192Y-114157818D01*
X179538899Y-114291068D01*
X179320392Y-114470392D01*
X179141068Y-114688899D01*
X179007818Y-114938192D01*
X178925764Y-115208691D01*
X178898057Y-115490000D01*
X172891943Y-115490000D01*
X172864236Y-115208691D01*
X172782182Y-114938192D01*
X172648932Y-114688899D01*
X172469608Y-114470392D01*
X172251101Y-114291068D01*
X172001808Y-114157818D01*
X171731309Y-114075764D01*
X171520492Y-114055000D01*
X171379508Y-114055000D01*
X171168691Y-114075764D01*
X170898192Y-114157818D01*
X170648899Y-114291068D01*
X170430392Y-114470392D01*
X170251068Y-114688899D01*
X170117818Y-114938192D01*
X170035764Y-115208691D01*
X170008057Y-115490000D01*
X164001943Y-115490000D01*
X163974236Y-115208691D01*
X163892182Y-114938192D01*
X163758932Y-114688899D01*
X163579608Y-114470392D01*
X163361101Y-114291068D01*
X163111808Y-114157818D01*
X162841309Y-114075764D01*
X162630492Y-114055000D01*
X162489508Y-114055000D01*
X162278691Y-114075764D01*
X162008192Y-114157818D01*
X161758899Y-114291068D01*
X161540392Y-114470392D01*
X161361068Y-114688899D01*
X161227818Y-114938192D01*
X161145764Y-115208691D01*
X161118057Y-115490000D01*
X158554801Y-115490000D01*
X160334802Y-113710000D01*
X199075199Y-113710000D01*
X200529292Y-115164094D01*
X200515764Y-115208691D01*
X200488057Y-115490000D01*
X200515764Y-115771309D01*
X200597818Y-116041808D01*
X200731068Y-116291101D01*
X200910392Y-116509608D01*
X201128899Y-116688932D01*
X201378192Y-116822182D01*
X201648691Y-116904236D01*
X201859508Y-116925000D01*
X202000492Y-116925000D01*
X202211309Y-116904236D01*
X202481808Y-116822182D01*
X202731101Y-116688932D01*
X202949608Y-116509608D01*
X203128932Y-116291101D01*
X203262182Y-116041808D01*
X203344236Y-115771309D01*
X203371943Y-115490000D01*
X203344236Y-115208691D01*
X203262182Y-114938192D01*
X203128932Y-114688899D01*
X202949608Y-114470392D01*
X202731101Y-114291068D01*
X202481808Y-114157818D01*
X202211309Y-114075764D01*
X202000492Y-114055000D01*
X201859508Y-114055000D01*
X201648691Y-114075764D01*
X201604094Y-114089292D01*
X199954801Y-112440000D01*
X204155199Y-112440000D01*
X207716201Y-116001003D01*
X207739999Y-116030001D01*
X207855724Y-116124974D01*
X207987753Y-116195546D01*
X208131014Y-116239003D01*
X208242667Y-116250000D01*
X208242675Y-116250000D01*
X208280000Y-116253676D01*
X208317325Y-116250000D01*
X209599099Y-116250000D01*
X209621068Y-116291101D01*
X209800392Y-116509608D01*
X210018899Y-116688932D01*
X210268192Y-116822182D01*
X210538691Y-116904236D01*
X210749508Y-116925000D01*
X210890492Y-116925000D01*
X211101309Y-116904236D01*
X211371808Y-116822182D01*
X211621101Y-116688932D01*
X211839608Y-116509608D01*
X212018932Y-116291101D01*
X212152182Y-116041808D01*
X212234236Y-115771309D01*
X212261943Y-115490000D01*
X212234236Y-115208691D01*
X212152182Y-114938192D01*
X212018932Y-114688899D01*
X211839608Y-114470392D01*
X211621101Y-114291068D01*
X211371808Y-114157818D01*
X211101309Y-114075764D01*
X210890492Y-114055000D01*
X210749508Y-114055000D01*
X210538691Y-114075764D01*
X210268192Y-114157818D01*
X210018899Y-114291068D01*
X209800392Y-114470392D01*
X209621068Y-114688899D01*
X209599099Y-114730000D01*
X208594802Y-114730000D01*
X205034801Y-111170000D01*
X214315199Y-111170000D01*
X218309292Y-115164094D01*
X218295764Y-115208691D01*
X218268057Y-115490000D01*
X218295764Y-115771309D01*
X218377818Y-116041808D01*
X218511068Y-116291101D01*
X218690392Y-116509608D01*
X218908899Y-116688932D01*
X219158192Y-116822182D01*
X219428691Y-116904236D01*
X219639508Y-116925000D01*
X219780492Y-116925000D01*
X219991309Y-116904236D01*
X220261808Y-116822182D01*
X220511101Y-116688932D01*
X220729608Y-116509608D01*
X220908932Y-116291101D01*
X221042182Y-116041808D01*
X221124236Y-115771309D01*
X221151943Y-115490000D01*
X221124236Y-115208691D01*
X221042182Y-114938192D01*
X220908932Y-114688899D01*
X220729608Y-114470392D01*
X220511101Y-114291068D01*
X220261808Y-114157818D01*
X219991309Y-114075764D01*
X219780492Y-114055000D01*
X219639508Y-114055000D01*
X219428691Y-114075764D01*
X219384094Y-114089292D01*
X215193804Y-109899003D01*
X215170001Y-109869999D01*
X215054276Y-109775026D01*
X214922247Y-109704454D01*
X214778986Y-109660997D01*
X214667333Y-109650000D01*
X214667322Y-109650000D01*
X214630000Y-109646324D01*
X214592678Y-109650000D01*
X157517333Y-109650000D01*
X157480000Y-109646323D01*
X157442667Y-109650000D01*
X157331014Y-109660997D01*
X157187753Y-109704454D01*
X157055724Y-109775026D01*
X156939999Y-109869999D01*
X156916201Y-109898997D01*
X148079003Y-118736196D01*
X148049999Y-118759999D01*
X147994871Y-118827174D01*
X147955026Y-118875724D01*
X147884455Y-119007753D01*
X147884454Y-119007754D01*
X147840997Y-119151015D01*
X147830000Y-119262668D01*
X147830000Y-119262678D01*
X147826324Y-119300000D01*
X141116881Y-119300000D01*
X141111208Y-102648665D01*
X161125000Y-102648665D01*
X161125000Y-102931335D01*
X161180147Y-103208574D01*
X161288320Y-103469727D01*
X161445363Y-103704759D01*
X161645241Y-103904637D01*
X161880273Y-104061680D01*
X162141426Y-104169853D01*
X162418665Y-104225000D01*
X162701335Y-104225000D01*
X162978574Y-104169853D01*
X163239727Y-104061680D01*
X163474759Y-103904637D01*
X163674637Y-103704759D01*
X163831680Y-103469727D01*
X163939853Y-103208574D01*
X163995000Y-102931335D01*
X163995000Y-102648665D01*
X170015000Y-102648665D01*
X170015000Y-102931335D01*
X170070147Y-103208574D01*
X170178320Y-103469727D01*
X170335363Y-103704759D01*
X170535241Y-103904637D01*
X170770273Y-104061680D01*
X171031426Y-104169853D01*
X171308665Y-104225000D01*
X171591335Y-104225000D01*
X171868574Y-104169853D01*
X172129727Y-104061680D01*
X172364759Y-103904637D01*
X172564637Y-103704759D01*
X172721680Y-103469727D01*
X172829853Y-103208574D01*
X172885000Y-102931335D01*
X172885000Y-102648665D01*
X178905000Y-102648665D01*
X178905000Y-102931335D01*
X178960147Y-103208574D01*
X179068320Y-103469727D01*
X179225363Y-103704759D01*
X179425241Y-103904637D01*
X179660273Y-104061680D01*
X179921426Y-104169853D01*
X180198665Y-104225000D01*
X180481335Y-104225000D01*
X180758574Y-104169853D01*
X181019727Y-104061680D01*
X181254759Y-103904637D01*
X181454637Y-103704759D01*
X181611680Y-103469727D01*
X181719853Y-103208574D01*
X181775000Y-102931335D01*
X181775000Y-102648665D01*
X200495000Y-102648665D01*
X200495000Y-102931335D01*
X200550147Y-103208574D01*
X200658320Y-103469727D01*
X200815363Y-103704759D01*
X201015241Y-103904637D01*
X201250273Y-104061680D01*
X201511426Y-104169853D01*
X201788665Y-104225000D01*
X202071335Y-104225000D01*
X202348574Y-104169853D01*
X202609727Y-104061680D01*
X202844759Y-103904637D01*
X203044637Y-103704759D01*
X203201680Y-103469727D01*
X203309853Y-103208574D01*
X203365000Y-102931335D01*
X203365000Y-102648665D01*
X209385000Y-102648665D01*
X209385000Y-102931335D01*
X209440147Y-103208574D01*
X209548320Y-103469727D01*
X209705363Y-103704759D01*
X209905241Y-103904637D01*
X210140273Y-104061680D01*
X210401426Y-104169853D01*
X210678665Y-104225000D01*
X210961335Y-104225000D01*
X211238574Y-104169853D01*
X211499727Y-104061680D01*
X211734759Y-103904637D01*
X211934637Y-103704759D01*
X212091680Y-103469727D01*
X212199853Y-103208574D01*
X212255000Y-102931335D01*
X212255000Y-102648665D01*
X218275000Y-102648665D01*
X218275000Y-102931335D01*
X218330147Y-103208574D01*
X218438320Y-103469727D01*
X218595363Y-103704759D01*
X218795241Y-103904637D01*
X219030273Y-104061680D01*
X219291426Y-104169853D01*
X219568665Y-104225000D01*
X219851335Y-104225000D01*
X220128574Y-104169853D01*
X220389727Y-104061680D01*
X220624759Y-103904637D01*
X220824637Y-103704759D01*
X220981680Y-103469727D01*
X221089853Y-103208574D01*
X221145000Y-102931335D01*
X221145000Y-102648665D01*
X221089853Y-102371426D01*
X220981680Y-102110273D01*
X220824637Y-101875241D01*
X220624759Y-101675363D01*
X220389727Y-101518320D01*
X220128574Y-101410147D01*
X219851335Y-101355000D01*
X219568665Y-101355000D01*
X219291426Y-101410147D01*
X219030273Y-101518320D01*
X218795241Y-101675363D01*
X218595363Y-101875241D01*
X218438320Y-102110273D01*
X218330147Y-102371426D01*
X218275000Y-102648665D01*
X212255000Y-102648665D01*
X212199853Y-102371426D01*
X212091680Y-102110273D01*
X211934637Y-101875241D01*
X211734759Y-101675363D01*
X211499727Y-101518320D01*
X211238574Y-101410147D01*
X210961335Y-101355000D01*
X210678665Y-101355000D01*
X210401426Y-101410147D01*
X210140273Y-101518320D01*
X209905241Y-101675363D01*
X209705363Y-101875241D01*
X209548320Y-102110273D01*
X209440147Y-102371426D01*
X209385000Y-102648665D01*
X203365000Y-102648665D01*
X203309853Y-102371426D01*
X203201680Y-102110273D01*
X203044637Y-101875241D01*
X202844759Y-101675363D01*
X202609727Y-101518320D01*
X202348574Y-101410147D01*
X202071335Y-101355000D01*
X201788665Y-101355000D01*
X201511426Y-101410147D01*
X201250273Y-101518320D01*
X201015241Y-101675363D01*
X200815363Y-101875241D01*
X200658320Y-102110273D01*
X200550147Y-102371426D01*
X200495000Y-102648665D01*
X181775000Y-102648665D01*
X181719853Y-102371426D01*
X181611680Y-102110273D01*
X181454637Y-101875241D01*
X181254759Y-101675363D01*
X181019727Y-101518320D01*
X180758574Y-101410147D01*
X180481335Y-101355000D01*
X180198665Y-101355000D01*
X179921426Y-101410147D01*
X179660273Y-101518320D01*
X179425241Y-101675363D01*
X179225363Y-101875241D01*
X179068320Y-102110273D01*
X178960147Y-102371426D01*
X178905000Y-102648665D01*
X172885000Y-102648665D01*
X172829853Y-102371426D01*
X172721680Y-102110273D01*
X172564637Y-101875241D01*
X172364759Y-101675363D01*
X172129727Y-101518320D01*
X171868574Y-101410147D01*
X171591335Y-101355000D01*
X171308665Y-101355000D01*
X171031426Y-101410147D01*
X170770273Y-101518320D01*
X170535241Y-101675363D01*
X170335363Y-101875241D01*
X170178320Y-102110273D01*
X170070147Y-102371426D01*
X170015000Y-102648665D01*
X163995000Y-102648665D01*
X163939853Y-102371426D01*
X163831680Y-102110273D01*
X163674637Y-101875241D01*
X163474759Y-101675363D01*
X163239727Y-101518320D01*
X162978574Y-101410147D01*
X162701335Y-101355000D01*
X162418665Y-101355000D01*
X162141426Y-101410147D01*
X161880273Y-101518320D01*
X161645241Y-101675363D01*
X161445363Y-101875241D01*
X161288320Y-102110273D01*
X161180147Y-102371426D01*
X161125000Y-102648665D01*
X141111208Y-102648665D01*
X141110390Y-100250000D01*
X149637815Y-100250000D01*
X149666487Y-100541111D01*
X149751401Y-100821034D01*
X149889294Y-101079014D01*
X150074866Y-101305134D01*
X150300986Y-101490706D01*
X150558966Y-101628599D01*
X150838889Y-101713513D01*
X151057050Y-101735000D01*
X151202950Y-101735000D01*
X151421111Y-101713513D01*
X151701034Y-101628599D01*
X151959014Y-101490706D01*
X152185134Y-101305134D01*
X152209607Y-101275313D01*
X152230498Y-101344180D01*
X152289463Y-101454494D01*
X152368815Y-101551185D01*
X152465506Y-101630537D01*
X152575820Y-101689502D01*
X152695518Y-101725812D01*
X152820000Y-101738072D01*
X154520000Y-101738072D01*
X154644482Y-101725812D01*
X154764180Y-101689502D01*
X154874494Y-101630537D01*
X154971185Y-101551185D01*
X155050537Y-101454494D01*
X155109502Y-101344180D01*
X155145812Y-101224482D01*
X155158072Y-101100000D01*
X155158072Y-100250000D01*
X189007815Y-100250000D01*
X189036487Y-100541111D01*
X189121401Y-100821034D01*
X189259294Y-101079014D01*
X189444866Y-101305134D01*
X189670986Y-101490706D01*
X189928966Y-101628599D01*
X190208889Y-101713513D01*
X190427050Y-101735000D01*
X190572950Y-101735000D01*
X190791111Y-101713513D01*
X191071034Y-101628599D01*
X191329014Y-101490706D01*
X191555134Y-101305134D01*
X191579607Y-101275313D01*
X191600498Y-101344180D01*
X191659463Y-101454494D01*
X191738815Y-101551185D01*
X191835506Y-101630537D01*
X191945820Y-101689502D01*
X192065518Y-101725812D01*
X192190000Y-101738072D01*
X193890000Y-101738072D01*
X194014482Y-101725812D01*
X194134180Y-101689502D01*
X194244494Y-101630537D01*
X194341185Y-101551185D01*
X194420537Y-101454494D01*
X194479502Y-101344180D01*
X194515812Y-101224482D01*
X194528072Y-101100000D01*
X194528072Y-99400000D01*
X194515812Y-99275518D01*
X194479502Y-99155820D01*
X194420537Y-99045506D01*
X194341185Y-98948815D01*
X194244494Y-98869463D01*
X194134180Y-98810498D01*
X194014482Y-98774188D01*
X193890000Y-98761928D01*
X192190000Y-98761928D01*
X192065518Y-98774188D01*
X191945820Y-98810498D01*
X191835506Y-98869463D01*
X191738815Y-98948815D01*
X191659463Y-99045506D01*
X191600498Y-99155820D01*
X191579607Y-99224687D01*
X191555134Y-99194866D01*
X191329014Y-99009294D01*
X191071034Y-98871401D01*
X190791111Y-98786487D01*
X190572950Y-98765000D01*
X190427050Y-98765000D01*
X190208889Y-98786487D01*
X189928966Y-98871401D01*
X189670986Y-99009294D01*
X189444866Y-99194866D01*
X189259294Y-99420986D01*
X189121401Y-99678966D01*
X189036487Y-99958889D01*
X189007815Y-100250000D01*
X155158072Y-100250000D01*
X155158072Y-99400000D01*
X155145812Y-99275518D01*
X155109502Y-99155820D01*
X155050537Y-99045506D01*
X154971185Y-98948815D01*
X154874494Y-98869463D01*
X154764180Y-98810498D01*
X154644482Y-98774188D01*
X154520000Y-98761928D01*
X152820000Y-98761928D01*
X152695518Y-98774188D01*
X152575820Y-98810498D01*
X152465506Y-98869463D01*
X152368815Y-98948815D01*
X152289463Y-99045506D01*
X152230498Y-99155820D01*
X152209607Y-99224687D01*
X152185134Y-99194866D01*
X151959014Y-99009294D01*
X151701034Y-98871401D01*
X151421111Y-98786487D01*
X151202950Y-98765000D01*
X151057050Y-98765000D01*
X150838889Y-98786487D01*
X150558966Y-98871401D01*
X150300986Y-99009294D01*
X150074866Y-99194866D01*
X149889294Y-99420986D01*
X149751401Y-99678966D01*
X149666487Y-99958889D01*
X149637815Y-100250000D01*
X141110390Y-100250000D01*
X141108966Y-96070000D01*
X158481928Y-96070000D01*
X158494188Y-96194482D01*
X158530498Y-96314180D01*
X158589463Y-96424494D01*
X158668815Y-96521185D01*
X158765506Y-96600537D01*
X158875820Y-96659502D01*
X158995518Y-96695812D01*
X159120000Y-96708072D01*
X159734250Y-96705000D01*
X159893000Y-96546250D01*
X159893000Y-95297000D01*
X158643750Y-95297000D01*
X158485000Y-95455750D01*
X158481928Y-96070000D01*
X141108966Y-96070000D01*
X141108353Y-94270000D01*
X158481928Y-94270000D01*
X158485000Y-94884250D01*
X158643750Y-95043000D01*
X159893000Y-95043000D01*
X159893000Y-93793750D01*
X160147000Y-93793750D01*
X160147000Y-95043000D01*
X160167000Y-95043000D01*
X160167000Y-95297000D01*
X160147000Y-95297000D01*
X160147000Y-96546250D01*
X160305750Y-96705000D01*
X160920000Y-96708072D01*
X161044482Y-96695812D01*
X161164180Y-96659502D01*
X161274494Y-96600537D01*
X161371185Y-96521185D01*
X161450537Y-96424494D01*
X161509502Y-96314180D01*
X161514495Y-96297720D01*
X161703073Y-96452481D01*
X161969739Y-96595017D01*
X162259087Y-96682790D01*
X162484592Y-96705000D01*
X162635408Y-96705000D01*
X162860913Y-96682790D01*
X163150261Y-96595017D01*
X163416927Y-96452481D01*
X163650661Y-96260661D01*
X163830000Y-96042135D01*
X164009339Y-96260661D01*
X164243073Y-96452481D01*
X164509739Y-96595017D01*
X164799087Y-96682790D01*
X165024592Y-96705000D01*
X165175408Y-96705000D01*
X165400913Y-96682790D01*
X165690261Y-96595017D01*
X165956927Y-96452481D01*
X166190661Y-96260661D01*
X166347132Y-96070000D01*
X167371928Y-96070000D01*
X167384188Y-96194482D01*
X167420498Y-96314180D01*
X167479463Y-96424494D01*
X167558815Y-96521185D01*
X167655506Y-96600537D01*
X167765820Y-96659502D01*
X167885518Y-96695812D01*
X168010000Y-96708072D01*
X168624250Y-96705000D01*
X168783000Y-96546250D01*
X168783000Y-95297000D01*
X167533750Y-95297000D01*
X167375000Y-95455750D01*
X167371928Y-96070000D01*
X166347132Y-96070000D01*
X166382481Y-96026927D01*
X166525017Y-95760261D01*
X166612790Y-95470913D01*
X166642427Y-95170000D01*
X166612790Y-94869087D01*
X166525017Y-94579739D01*
X166382481Y-94313073D01*
X166347133Y-94270000D01*
X167371928Y-94270000D01*
X167375000Y-94884250D01*
X167533750Y-95043000D01*
X168783000Y-95043000D01*
X168783000Y-93793750D01*
X169037000Y-93793750D01*
X169037000Y-95043000D01*
X169057000Y-95043000D01*
X169057000Y-95297000D01*
X169037000Y-95297000D01*
X169037000Y-96546250D01*
X169195750Y-96705000D01*
X169810000Y-96708072D01*
X169934482Y-96695812D01*
X170054180Y-96659502D01*
X170164494Y-96600537D01*
X170261185Y-96521185D01*
X170340537Y-96424494D01*
X170399502Y-96314180D01*
X170404495Y-96297720D01*
X170593073Y-96452481D01*
X170859739Y-96595017D01*
X171149087Y-96682790D01*
X171374592Y-96705000D01*
X171525408Y-96705000D01*
X171750913Y-96682790D01*
X172040261Y-96595017D01*
X172306927Y-96452481D01*
X172540661Y-96260661D01*
X172720000Y-96042135D01*
X172899339Y-96260661D01*
X173133073Y-96452481D01*
X173399739Y-96595017D01*
X173689087Y-96682790D01*
X173914592Y-96705000D01*
X174065408Y-96705000D01*
X174290913Y-96682790D01*
X174580261Y-96595017D01*
X174846927Y-96452481D01*
X175080661Y-96260661D01*
X175237132Y-96070000D01*
X176261928Y-96070000D01*
X176274188Y-96194482D01*
X176310498Y-96314180D01*
X176369463Y-96424494D01*
X176448815Y-96521185D01*
X176545506Y-96600537D01*
X176655820Y-96659502D01*
X176775518Y-96695812D01*
X176900000Y-96708072D01*
X177514250Y-96705000D01*
X177673000Y-96546250D01*
X177673000Y-95297000D01*
X176423750Y-95297000D01*
X176265000Y-95455750D01*
X176261928Y-96070000D01*
X175237132Y-96070000D01*
X175272481Y-96026927D01*
X175415017Y-95760261D01*
X175502790Y-95470913D01*
X175532427Y-95170000D01*
X175502790Y-94869087D01*
X175415017Y-94579739D01*
X175272481Y-94313073D01*
X175237133Y-94270000D01*
X176261928Y-94270000D01*
X176265000Y-94884250D01*
X176423750Y-95043000D01*
X177673000Y-95043000D01*
X177673000Y-93793750D01*
X177927000Y-93793750D01*
X177927000Y-95043000D01*
X177947000Y-95043000D01*
X177947000Y-95297000D01*
X177927000Y-95297000D01*
X177927000Y-96546250D01*
X178085750Y-96705000D01*
X178700000Y-96708072D01*
X178824482Y-96695812D01*
X178944180Y-96659502D01*
X179054494Y-96600537D01*
X179151185Y-96521185D01*
X179230537Y-96424494D01*
X179289502Y-96314180D01*
X179294495Y-96297720D01*
X179483073Y-96452481D01*
X179749739Y-96595017D01*
X180039087Y-96682790D01*
X180264592Y-96705000D01*
X180415408Y-96705000D01*
X180640913Y-96682790D01*
X180930261Y-96595017D01*
X181196927Y-96452481D01*
X181430661Y-96260661D01*
X181610000Y-96042135D01*
X181789339Y-96260661D01*
X182023073Y-96452481D01*
X182289739Y-96595017D01*
X182579087Y-96682790D01*
X182804592Y-96705000D01*
X182955408Y-96705000D01*
X183180913Y-96682790D01*
X183470261Y-96595017D01*
X183736927Y-96452481D01*
X183970661Y-96260661D01*
X184127132Y-96070000D01*
X197851928Y-96070000D01*
X197864188Y-96194482D01*
X197900498Y-96314180D01*
X197959463Y-96424494D01*
X198038815Y-96521185D01*
X198135506Y-96600537D01*
X198245820Y-96659502D01*
X198365518Y-96695812D01*
X198490000Y-96708072D01*
X199104250Y-96705000D01*
X199263000Y-96546250D01*
X199263000Y-95297000D01*
X198013750Y-95297000D01*
X197855000Y-95455750D01*
X197851928Y-96070000D01*
X184127132Y-96070000D01*
X184162481Y-96026927D01*
X184305017Y-95760261D01*
X184392790Y-95470913D01*
X184422427Y-95170000D01*
X184392790Y-94869087D01*
X184305017Y-94579739D01*
X184162481Y-94313073D01*
X184127133Y-94270000D01*
X197851928Y-94270000D01*
X197855000Y-94884250D01*
X198013750Y-95043000D01*
X199263000Y-95043000D01*
X199263000Y-93793750D01*
X199517000Y-93793750D01*
X199517000Y-95043000D01*
X199537000Y-95043000D01*
X199537000Y-95297000D01*
X199517000Y-95297000D01*
X199517000Y-96546250D01*
X199675750Y-96705000D01*
X200290000Y-96708072D01*
X200414482Y-96695812D01*
X200534180Y-96659502D01*
X200644494Y-96600537D01*
X200741185Y-96521185D01*
X200820537Y-96424494D01*
X200879502Y-96314180D01*
X200884495Y-96297720D01*
X201073073Y-96452481D01*
X201339739Y-96595017D01*
X201629087Y-96682790D01*
X201854592Y-96705000D01*
X202005408Y-96705000D01*
X202230913Y-96682790D01*
X202520261Y-96595017D01*
X202786927Y-96452481D01*
X203020661Y-96260661D01*
X203200000Y-96042135D01*
X203379339Y-96260661D01*
X203613073Y-96452481D01*
X203879739Y-96595017D01*
X204169087Y-96682790D01*
X204394592Y-96705000D01*
X204545408Y-96705000D01*
X204770913Y-96682790D01*
X205060261Y-96595017D01*
X205326927Y-96452481D01*
X205560661Y-96260661D01*
X205717132Y-96070000D01*
X206741928Y-96070000D01*
X206754188Y-96194482D01*
X206790498Y-96314180D01*
X206849463Y-96424494D01*
X206928815Y-96521185D01*
X207025506Y-96600537D01*
X207135820Y-96659502D01*
X207255518Y-96695812D01*
X207380000Y-96708072D01*
X207994250Y-96705000D01*
X208153000Y-96546250D01*
X208153000Y-95297000D01*
X206903750Y-95297000D01*
X206745000Y-95455750D01*
X206741928Y-96070000D01*
X205717132Y-96070000D01*
X205752481Y-96026927D01*
X205895017Y-95760261D01*
X205982790Y-95470913D01*
X206012427Y-95170000D01*
X205982790Y-94869087D01*
X205895017Y-94579739D01*
X205752481Y-94313073D01*
X205717133Y-94270000D01*
X206741928Y-94270000D01*
X206745000Y-94884250D01*
X206903750Y-95043000D01*
X208153000Y-95043000D01*
X208153000Y-93793750D01*
X208407000Y-93793750D01*
X208407000Y-95043000D01*
X208427000Y-95043000D01*
X208427000Y-95297000D01*
X208407000Y-95297000D01*
X208407000Y-96546250D01*
X208565750Y-96705000D01*
X209180000Y-96708072D01*
X209304482Y-96695812D01*
X209424180Y-96659502D01*
X209534494Y-96600537D01*
X209631185Y-96521185D01*
X209710537Y-96424494D01*
X209769502Y-96314180D01*
X209774495Y-96297720D01*
X209963073Y-96452481D01*
X210229739Y-96595017D01*
X210519087Y-96682790D01*
X210744592Y-96705000D01*
X210895408Y-96705000D01*
X211120913Y-96682790D01*
X211410261Y-96595017D01*
X211676927Y-96452481D01*
X211910661Y-96260661D01*
X212090000Y-96042135D01*
X212269339Y-96260661D01*
X212503073Y-96452481D01*
X212769739Y-96595017D01*
X213059087Y-96682790D01*
X213284592Y-96705000D01*
X213435408Y-96705000D01*
X213660913Y-96682790D01*
X213950261Y-96595017D01*
X214216927Y-96452481D01*
X214450661Y-96260661D01*
X214607132Y-96070000D01*
X215631928Y-96070000D01*
X215644188Y-96194482D01*
X215680498Y-96314180D01*
X215739463Y-96424494D01*
X215818815Y-96521185D01*
X215915506Y-96600537D01*
X216025820Y-96659502D01*
X216145518Y-96695812D01*
X216270000Y-96708072D01*
X216884250Y-96705000D01*
X217043000Y-96546250D01*
X217043000Y-95297000D01*
X215793750Y-95297000D01*
X215635000Y-95455750D01*
X215631928Y-96070000D01*
X214607132Y-96070000D01*
X214642481Y-96026927D01*
X214785017Y-95760261D01*
X214872790Y-95470913D01*
X214902427Y-95170000D01*
X214872790Y-94869087D01*
X214785017Y-94579739D01*
X214642481Y-94313073D01*
X214607133Y-94270000D01*
X215631928Y-94270000D01*
X215635000Y-94884250D01*
X215793750Y-95043000D01*
X217043000Y-95043000D01*
X217043000Y-93793750D01*
X217297000Y-93793750D01*
X217297000Y-95043000D01*
X217317000Y-95043000D01*
X217317000Y-95297000D01*
X217297000Y-95297000D01*
X217297000Y-96546250D01*
X217455750Y-96705000D01*
X218070000Y-96708072D01*
X218194482Y-96695812D01*
X218314180Y-96659502D01*
X218424494Y-96600537D01*
X218521185Y-96521185D01*
X218600537Y-96424494D01*
X218659502Y-96314180D01*
X218664495Y-96297720D01*
X218853073Y-96452481D01*
X219119739Y-96595017D01*
X219409087Y-96682790D01*
X219634592Y-96705000D01*
X219785408Y-96705000D01*
X220010913Y-96682790D01*
X220300261Y-96595017D01*
X220566927Y-96452481D01*
X220800661Y-96260661D01*
X220980000Y-96042135D01*
X221159339Y-96260661D01*
X221393073Y-96452481D01*
X221659739Y-96595017D01*
X221949087Y-96682790D01*
X222174592Y-96705000D01*
X222325408Y-96705000D01*
X222550913Y-96682790D01*
X222840261Y-96595017D01*
X223106927Y-96452481D01*
X223340661Y-96260661D01*
X223532481Y-96026927D01*
X223675017Y-95760261D01*
X223762790Y-95470913D01*
X223792427Y-95170000D01*
X223762790Y-94869087D01*
X223675017Y-94579739D01*
X223532481Y-94313073D01*
X223340661Y-94079339D01*
X223106927Y-93887519D01*
X222840261Y-93744983D01*
X222550913Y-93657210D01*
X222325408Y-93635000D01*
X222174592Y-93635000D01*
X221949087Y-93657210D01*
X221659739Y-93744983D01*
X221393073Y-93887519D01*
X221159339Y-94079339D01*
X220980000Y-94297865D01*
X220800661Y-94079339D01*
X220566927Y-93887519D01*
X220300261Y-93744983D01*
X220010913Y-93657210D01*
X219785408Y-93635000D01*
X219634592Y-93635000D01*
X219409087Y-93657210D01*
X219119739Y-93744983D01*
X218853073Y-93887519D01*
X218664495Y-94042280D01*
X218659502Y-94025820D01*
X218600537Y-93915506D01*
X218521185Y-93818815D01*
X218424494Y-93739463D01*
X218314180Y-93680498D01*
X218194482Y-93644188D01*
X218070000Y-93631928D01*
X217455750Y-93635000D01*
X217297000Y-93793750D01*
X217043000Y-93793750D01*
X216884250Y-93635000D01*
X216270000Y-93631928D01*
X216145518Y-93644188D01*
X216025820Y-93680498D01*
X215915506Y-93739463D01*
X215818815Y-93818815D01*
X215739463Y-93915506D01*
X215680498Y-94025820D01*
X215644188Y-94145518D01*
X215631928Y-94270000D01*
X214607133Y-94270000D01*
X214450661Y-94079339D01*
X214216927Y-93887519D01*
X213950261Y-93744983D01*
X213660913Y-93657210D01*
X213435408Y-93635000D01*
X213284592Y-93635000D01*
X213059087Y-93657210D01*
X212769739Y-93744983D01*
X212503073Y-93887519D01*
X212269339Y-94079339D01*
X212090000Y-94297865D01*
X211910661Y-94079339D01*
X211676927Y-93887519D01*
X211410261Y-93744983D01*
X211120913Y-93657210D01*
X210895408Y-93635000D01*
X210744592Y-93635000D01*
X210519087Y-93657210D01*
X210229739Y-93744983D01*
X209963073Y-93887519D01*
X209774495Y-94042280D01*
X209769502Y-94025820D01*
X209710537Y-93915506D01*
X209631185Y-93818815D01*
X209534494Y-93739463D01*
X209424180Y-93680498D01*
X209304482Y-93644188D01*
X209180000Y-93631928D01*
X208565750Y-93635000D01*
X208407000Y-93793750D01*
X208153000Y-93793750D01*
X207994250Y-93635000D01*
X207380000Y-93631928D01*
X207255518Y-93644188D01*
X207135820Y-93680498D01*
X207025506Y-93739463D01*
X206928815Y-93818815D01*
X206849463Y-93915506D01*
X206790498Y-94025820D01*
X206754188Y-94145518D01*
X206741928Y-94270000D01*
X205717133Y-94270000D01*
X205560661Y-94079339D01*
X205326927Y-93887519D01*
X205060261Y-93744983D01*
X204770913Y-93657210D01*
X204545408Y-93635000D01*
X204394592Y-93635000D01*
X204169087Y-93657210D01*
X203879739Y-93744983D01*
X203613073Y-93887519D01*
X203379339Y-94079339D01*
X203200000Y-94297865D01*
X203020661Y-94079339D01*
X202786927Y-93887519D01*
X202520261Y-93744983D01*
X202230913Y-93657210D01*
X202005408Y-93635000D01*
X201854592Y-93635000D01*
X201629087Y-93657210D01*
X201339739Y-93744983D01*
X201073073Y-93887519D01*
X200884495Y-94042280D01*
X200879502Y-94025820D01*
X200820537Y-93915506D01*
X200741185Y-93818815D01*
X200644494Y-93739463D01*
X200534180Y-93680498D01*
X200414482Y-93644188D01*
X200290000Y-93631928D01*
X199675750Y-93635000D01*
X199517000Y-93793750D01*
X199263000Y-93793750D01*
X199104250Y-93635000D01*
X198490000Y-93631928D01*
X198365518Y-93644188D01*
X198245820Y-93680498D01*
X198135506Y-93739463D01*
X198038815Y-93818815D01*
X197959463Y-93915506D01*
X197900498Y-94025820D01*
X197864188Y-94145518D01*
X197851928Y-94270000D01*
X184127133Y-94270000D01*
X183970661Y-94079339D01*
X183736927Y-93887519D01*
X183470261Y-93744983D01*
X183180913Y-93657210D01*
X182955408Y-93635000D01*
X182804592Y-93635000D01*
X182579087Y-93657210D01*
X182289739Y-93744983D01*
X182023073Y-93887519D01*
X181789339Y-94079339D01*
X181610000Y-94297865D01*
X181430661Y-94079339D01*
X181196927Y-93887519D01*
X180930261Y-93744983D01*
X180640913Y-93657210D01*
X180415408Y-93635000D01*
X180264592Y-93635000D01*
X180039087Y-93657210D01*
X179749739Y-93744983D01*
X179483073Y-93887519D01*
X179294495Y-94042280D01*
X179289502Y-94025820D01*
X179230537Y-93915506D01*
X179151185Y-93818815D01*
X179054494Y-93739463D01*
X178944180Y-93680498D01*
X178824482Y-93644188D01*
X178700000Y-93631928D01*
X178085750Y-93635000D01*
X177927000Y-93793750D01*
X177673000Y-93793750D01*
X177514250Y-93635000D01*
X176900000Y-93631928D01*
X176775518Y-93644188D01*
X176655820Y-93680498D01*
X176545506Y-93739463D01*
X176448815Y-93818815D01*
X176369463Y-93915506D01*
X176310498Y-94025820D01*
X176274188Y-94145518D01*
X176261928Y-94270000D01*
X175237133Y-94270000D01*
X175080661Y-94079339D01*
X174846927Y-93887519D01*
X174580261Y-93744983D01*
X174290913Y-93657210D01*
X174065408Y-93635000D01*
X173914592Y-93635000D01*
X173689087Y-93657210D01*
X173399739Y-93744983D01*
X173133073Y-93887519D01*
X172899339Y-94079339D01*
X172720000Y-94297865D01*
X172540661Y-94079339D01*
X172306927Y-93887519D01*
X172040261Y-93744983D01*
X171750913Y-93657210D01*
X171525408Y-93635000D01*
X171374592Y-93635000D01*
X171149087Y-93657210D01*
X170859739Y-93744983D01*
X170593073Y-93887519D01*
X170404495Y-94042280D01*
X170399502Y-94025820D01*
X170340537Y-93915506D01*
X170261185Y-93818815D01*
X170164494Y-93739463D01*
X170054180Y-93680498D01*
X169934482Y-93644188D01*
X169810000Y-93631928D01*
X169195750Y-93635000D01*
X169037000Y-93793750D01*
X168783000Y-93793750D01*
X168624250Y-93635000D01*
X168010000Y-93631928D01*
X167885518Y-93644188D01*
X167765820Y-93680498D01*
X167655506Y-93739463D01*
X167558815Y-93818815D01*
X167479463Y-93915506D01*
X167420498Y-94025820D01*
X167384188Y-94145518D01*
X167371928Y-94270000D01*
X166347133Y-94270000D01*
X166190661Y-94079339D01*
X165956927Y-93887519D01*
X165690261Y-93744983D01*
X165400913Y-93657210D01*
X165175408Y-93635000D01*
X165024592Y-93635000D01*
X164799087Y-93657210D01*
X164509739Y-93744983D01*
X164243073Y-93887519D01*
X164009339Y-94079339D01*
X163830000Y-94297865D01*
X163650661Y-94079339D01*
X163416927Y-93887519D01*
X163150261Y-93744983D01*
X162860913Y-93657210D01*
X162635408Y-93635000D01*
X162484592Y-93635000D01*
X162259087Y-93657210D01*
X161969739Y-93744983D01*
X161703073Y-93887519D01*
X161514495Y-94042280D01*
X161509502Y-94025820D01*
X161450537Y-93915506D01*
X161371185Y-93818815D01*
X161274494Y-93739463D01*
X161164180Y-93680498D01*
X161044482Y-93644188D01*
X160920000Y-93631928D01*
X160305750Y-93635000D01*
X160147000Y-93793750D01*
X159893000Y-93793750D01*
X159734250Y-93635000D01*
X159120000Y-93631928D01*
X158995518Y-93644188D01*
X158875820Y-93680498D01*
X158765506Y-93739463D01*
X158668815Y-93818815D01*
X158589463Y-93915506D01*
X158530498Y-94025820D01*
X158494188Y-94145518D01*
X158481928Y-94270000D01*
X141108353Y-94270000D01*
X141102841Y-78100000D01*
X148231928Y-78100000D01*
X148244188Y-78224482D01*
X148280498Y-78344180D01*
X148339463Y-78454494D01*
X148418815Y-78551185D01*
X148515506Y-78630537D01*
X148625820Y-78689502D01*
X148745518Y-78725812D01*
X148870000Y-78738072D01*
X149574250Y-78735000D01*
X149733000Y-78576250D01*
X149733000Y-76247000D01*
X149987000Y-76247000D01*
X149987000Y-78576250D01*
X150145750Y-78735000D01*
X150850000Y-78738072D01*
X150974482Y-78725812D01*
X151094180Y-78689502D01*
X151204494Y-78630537D01*
X151301185Y-78551185D01*
X151380537Y-78454494D01*
X151439502Y-78344180D01*
X151475812Y-78224482D01*
X151488072Y-78100000D01*
X151485000Y-76405750D01*
X151326250Y-76247000D01*
X149987000Y-76247000D01*
X149733000Y-76247000D01*
X148393750Y-76247000D01*
X148235000Y-76405750D01*
X148231928Y-78100000D01*
X141102841Y-78100000D01*
X141101492Y-74140000D01*
X148231928Y-74140000D01*
X148235000Y-75834250D01*
X148393750Y-75993000D01*
X149733000Y-75993000D01*
X149733000Y-73663750D01*
X149987000Y-73663750D01*
X149987000Y-75993000D01*
X151326250Y-75993000D01*
X151485000Y-75834250D01*
X151486421Y-75050177D01*
X153235000Y-75050177D01*
X153235001Y-77189824D01*
X153258514Y-77428556D01*
X153351433Y-77734869D01*
X153502326Y-78017170D01*
X153705393Y-78264608D01*
X153952831Y-78467675D01*
X154235132Y-78618568D01*
X154541445Y-78711487D01*
X154860000Y-78742862D01*
X155178556Y-78711487D01*
X155484869Y-78618568D01*
X155767170Y-78467675D01*
X156014608Y-78264608D01*
X156217675Y-78017170D01*
X156368568Y-77734869D01*
X156461487Y-77428556D01*
X156485000Y-77189824D01*
X156485000Y-75050176D01*
X156461487Y-74811444D01*
X156368568Y-74505131D01*
X156217675Y-74222830D01*
X156149699Y-74140000D01*
X163471928Y-74140000D01*
X163471928Y-78100000D01*
X163484188Y-78224482D01*
X163520498Y-78344180D01*
X163579463Y-78454494D01*
X163658815Y-78551185D01*
X163755506Y-78630537D01*
X163865820Y-78689502D01*
X163985518Y-78725812D01*
X164110000Y-78738072D01*
X166090000Y-78738072D01*
X166214482Y-78725812D01*
X166334180Y-78689502D01*
X166444494Y-78630537D01*
X166541185Y-78551185D01*
X166620537Y-78454494D01*
X166679502Y-78344180D01*
X166715812Y-78224482D01*
X166728072Y-78100000D01*
X166728072Y-75050177D01*
X168475000Y-75050177D01*
X168475001Y-77189824D01*
X168498514Y-77428556D01*
X168591433Y-77734869D01*
X168742326Y-78017170D01*
X168945393Y-78264608D01*
X169192831Y-78467675D01*
X169475132Y-78618568D01*
X169781445Y-78711487D01*
X170100000Y-78742862D01*
X170418556Y-78711487D01*
X170724869Y-78618568D01*
X171007170Y-78467675D01*
X171254608Y-78264608D01*
X171457675Y-78017170D01*
X171608568Y-77734869D01*
X171701487Y-77428556D01*
X171725000Y-77189824D01*
X171725000Y-75050177D01*
X173475000Y-75050177D01*
X173475001Y-77189824D01*
X173498514Y-77428556D01*
X173591433Y-77734869D01*
X173742326Y-78017170D01*
X173945393Y-78264608D01*
X174192831Y-78467675D01*
X174475132Y-78618568D01*
X174781445Y-78711487D01*
X175100000Y-78742862D01*
X175418556Y-78711487D01*
X175724869Y-78618568D01*
X176007170Y-78467675D01*
X176254608Y-78264608D01*
X176457675Y-78017170D01*
X176608568Y-77734869D01*
X176701487Y-77428556D01*
X176725000Y-77189824D01*
X176725000Y-75050177D01*
X178475000Y-75050177D01*
X178475001Y-77189824D01*
X178498514Y-77428556D01*
X178591433Y-77734869D01*
X178742326Y-78017170D01*
X178945393Y-78264608D01*
X179192831Y-78467675D01*
X179475132Y-78618568D01*
X179781445Y-78711487D01*
X180100000Y-78742862D01*
X180418556Y-78711487D01*
X180724869Y-78618568D01*
X181007170Y-78467675D01*
X181254608Y-78264608D01*
X181389698Y-78100000D01*
X188871928Y-78100000D01*
X188884188Y-78224482D01*
X188920498Y-78344180D01*
X188979463Y-78454494D01*
X189058815Y-78551185D01*
X189155506Y-78630537D01*
X189265820Y-78689502D01*
X189385518Y-78725812D01*
X189510000Y-78738072D01*
X190214250Y-78735000D01*
X190373000Y-78576250D01*
X190373000Y-76247000D01*
X190627000Y-76247000D01*
X190627000Y-78576250D01*
X190785750Y-78735000D01*
X191490000Y-78738072D01*
X191614482Y-78725812D01*
X191734180Y-78689502D01*
X191844494Y-78630537D01*
X191941185Y-78551185D01*
X192020537Y-78454494D01*
X192079502Y-78344180D01*
X192115812Y-78224482D01*
X192128072Y-78100000D01*
X192125000Y-76405750D01*
X191966250Y-76247000D01*
X190627000Y-76247000D01*
X190373000Y-76247000D01*
X189033750Y-76247000D01*
X188875000Y-76405750D01*
X188871928Y-78100000D01*
X181389698Y-78100000D01*
X181457675Y-78017170D01*
X181608568Y-77734869D01*
X181701487Y-77428556D01*
X181725000Y-77189824D01*
X181725000Y-75050176D01*
X181701487Y-74811444D01*
X181608568Y-74505131D01*
X181457675Y-74222830D01*
X181389699Y-74140000D01*
X188871928Y-74140000D01*
X188875000Y-75834250D01*
X189033750Y-75993000D01*
X190373000Y-75993000D01*
X190373000Y-73663750D01*
X190627000Y-73663750D01*
X190627000Y-75993000D01*
X191966250Y-75993000D01*
X192125000Y-75834250D01*
X192126421Y-75050177D01*
X193875000Y-75050177D01*
X193875001Y-77189824D01*
X193898514Y-77428556D01*
X193991433Y-77734869D01*
X194142326Y-78017170D01*
X194345393Y-78264608D01*
X194592831Y-78467675D01*
X194875132Y-78618568D01*
X195181445Y-78711487D01*
X195500000Y-78742862D01*
X195818556Y-78711487D01*
X196124869Y-78618568D01*
X196407170Y-78467675D01*
X196654608Y-78264608D01*
X196857675Y-78017170D01*
X197008568Y-77734869D01*
X197101487Y-77428556D01*
X197125000Y-77189824D01*
X197125000Y-75050176D01*
X197101487Y-74811444D01*
X197008568Y-74505131D01*
X196857675Y-74222830D01*
X196789699Y-74140000D01*
X204111928Y-74140000D01*
X204111928Y-78100000D01*
X204124188Y-78224482D01*
X204160498Y-78344180D01*
X204219463Y-78454494D01*
X204298815Y-78551185D01*
X204395506Y-78630537D01*
X204505820Y-78689502D01*
X204625518Y-78725812D01*
X204750000Y-78738072D01*
X206730000Y-78738072D01*
X206854482Y-78725812D01*
X206974180Y-78689502D01*
X207084494Y-78630537D01*
X207181185Y-78551185D01*
X207260537Y-78454494D01*
X207319502Y-78344180D01*
X207355812Y-78224482D01*
X207368072Y-78100000D01*
X207368072Y-75050177D01*
X209115000Y-75050177D01*
X209115001Y-77189824D01*
X209138514Y-77428556D01*
X209231433Y-77734869D01*
X209382326Y-78017170D01*
X209585393Y-78264608D01*
X209832831Y-78467675D01*
X210115132Y-78618568D01*
X210421445Y-78711487D01*
X210740000Y-78742862D01*
X211058556Y-78711487D01*
X211364869Y-78618568D01*
X211647170Y-78467675D01*
X211894608Y-78264608D01*
X212097675Y-78017170D01*
X212248568Y-77734869D01*
X212341487Y-77428556D01*
X212365000Y-77189824D01*
X212365000Y-75050177D01*
X214115000Y-75050177D01*
X214115001Y-77189824D01*
X214138514Y-77428556D01*
X214231433Y-77734869D01*
X214382326Y-78017170D01*
X214585393Y-78264608D01*
X214832831Y-78467675D01*
X215115132Y-78618568D01*
X215421445Y-78711487D01*
X215740000Y-78742862D01*
X216058556Y-78711487D01*
X216364869Y-78618568D01*
X216647170Y-78467675D01*
X216894608Y-78264608D01*
X217097675Y-78017170D01*
X217248568Y-77734869D01*
X217341487Y-77428556D01*
X217365000Y-77189824D01*
X217365000Y-75050177D01*
X219115000Y-75050177D01*
X219115001Y-77189824D01*
X219138514Y-77428556D01*
X219231433Y-77734869D01*
X219382326Y-78017170D01*
X219585393Y-78264608D01*
X219832831Y-78467675D01*
X220115132Y-78618568D01*
X220421445Y-78711487D01*
X220740000Y-78742862D01*
X221058556Y-78711487D01*
X221364869Y-78618568D01*
X221647170Y-78467675D01*
X221894608Y-78264608D01*
X222097675Y-78017170D01*
X222248568Y-77734869D01*
X222341487Y-77428556D01*
X222365000Y-77189824D01*
X222365000Y-75050176D01*
X222341487Y-74811444D01*
X222248568Y-74505131D01*
X222097675Y-74222830D01*
X221894608Y-73975392D01*
X221647169Y-73772325D01*
X221364868Y-73621432D01*
X221058555Y-73528513D01*
X220740000Y-73497138D01*
X220421444Y-73528513D01*
X220115131Y-73621432D01*
X219832830Y-73772325D01*
X219585392Y-73975392D01*
X219382325Y-74222831D01*
X219231432Y-74505132D01*
X219138513Y-74811445D01*
X219115000Y-75050177D01*
X217365000Y-75050177D01*
X217365000Y-75050176D01*
X217341487Y-74811444D01*
X217248568Y-74505131D01*
X217097675Y-74222830D01*
X216894608Y-73975392D01*
X216647169Y-73772325D01*
X216364868Y-73621432D01*
X216058555Y-73528513D01*
X215740000Y-73497138D01*
X215421444Y-73528513D01*
X215115131Y-73621432D01*
X214832830Y-73772325D01*
X214585392Y-73975392D01*
X214382325Y-74222831D01*
X214231432Y-74505132D01*
X214138513Y-74811445D01*
X214115000Y-75050177D01*
X212365000Y-75050177D01*
X212365000Y-75050176D01*
X212341487Y-74811444D01*
X212248568Y-74505131D01*
X212097675Y-74222830D01*
X211894608Y-73975392D01*
X211647169Y-73772325D01*
X211364868Y-73621432D01*
X211058555Y-73528513D01*
X210740000Y-73497138D01*
X210421444Y-73528513D01*
X210115131Y-73621432D01*
X209832830Y-73772325D01*
X209585392Y-73975392D01*
X209382325Y-74222831D01*
X209231432Y-74505132D01*
X209138513Y-74811445D01*
X209115000Y-75050177D01*
X207368072Y-75050177D01*
X207368072Y-74140000D01*
X207355812Y-74015518D01*
X207319502Y-73895820D01*
X207260537Y-73785506D01*
X207181185Y-73688815D01*
X207084494Y-73609463D01*
X206974180Y-73550498D01*
X206854482Y-73514188D01*
X206730000Y-73501928D01*
X204750000Y-73501928D01*
X204625518Y-73514188D01*
X204505820Y-73550498D01*
X204395506Y-73609463D01*
X204298815Y-73688815D01*
X204219463Y-73785506D01*
X204160498Y-73895820D01*
X204124188Y-74015518D01*
X204111928Y-74140000D01*
X196789699Y-74140000D01*
X196654608Y-73975392D01*
X196407169Y-73772325D01*
X196124868Y-73621432D01*
X195818555Y-73528513D01*
X195500000Y-73497138D01*
X195181444Y-73528513D01*
X194875131Y-73621432D01*
X194592830Y-73772325D01*
X194345392Y-73975392D01*
X194142325Y-74222831D01*
X193991432Y-74505132D01*
X193898513Y-74811445D01*
X193875000Y-75050177D01*
X192126421Y-75050177D01*
X192128072Y-74140000D01*
X192115812Y-74015518D01*
X192079502Y-73895820D01*
X192020537Y-73785506D01*
X191941185Y-73688815D01*
X191844494Y-73609463D01*
X191734180Y-73550498D01*
X191614482Y-73514188D01*
X191490000Y-73501928D01*
X190785750Y-73505000D01*
X190627000Y-73663750D01*
X190373000Y-73663750D01*
X190214250Y-73505000D01*
X189510000Y-73501928D01*
X189385518Y-73514188D01*
X189265820Y-73550498D01*
X189155506Y-73609463D01*
X189058815Y-73688815D01*
X188979463Y-73785506D01*
X188920498Y-73895820D01*
X188884188Y-74015518D01*
X188871928Y-74140000D01*
X181389699Y-74140000D01*
X181254608Y-73975392D01*
X181007169Y-73772325D01*
X180724868Y-73621432D01*
X180418555Y-73528513D01*
X180100000Y-73497138D01*
X179781444Y-73528513D01*
X179475131Y-73621432D01*
X179192830Y-73772325D01*
X178945392Y-73975392D01*
X178742325Y-74222831D01*
X178591432Y-74505132D01*
X178498513Y-74811445D01*
X178475000Y-75050177D01*
X176725000Y-75050177D01*
X176725000Y-75050176D01*
X176701487Y-74811444D01*
X176608568Y-74505131D01*
X176457675Y-74222830D01*
X176254608Y-73975392D01*
X176007169Y-73772325D01*
X175724868Y-73621432D01*
X175418555Y-73528513D01*
X175100000Y-73497138D01*
X174781444Y-73528513D01*
X174475131Y-73621432D01*
X174192830Y-73772325D01*
X173945392Y-73975392D01*
X173742325Y-74222831D01*
X173591432Y-74505132D01*
X173498513Y-74811445D01*
X173475000Y-75050177D01*
X171725000Y-75050177D01*
X171725000Y-75050176D01*
X171701487Y-74811444D01*
X171608568Y-74505131D01*
X171457675Y-74222830D01*
X171254608Y-73975392D01*
X171007169Y-73772325D01*
X170724868Y-73621432D01*
X170418555Y-73528513D01*
X170100000Y-73497138D01*
X169781444Y-73528513D01*
X169475131Y-73621432D01*
X169192830Y-73772325D01*
X168945392Y-73975392D01*
X168742325Y-74222831D01*
X168591432Y-74505132D01*
X168498513Y-74811445D01*
X168475000Y-75050177D01*
X166728072Y-75050177D01*
X166728072Y-74140000D01*
X166715812Y-74015518D01*
X166679502Y-73895820D01*
X166620537Y-73785506D01*
X166541185Y-73688815D01*
X166444494Y-73609463D01*
X166334180Y-73550498D01*
X166214482Y-73514188D01*
X166090000Y-73501928D01*
X164110000Y-73501928D01*
X163985518Y-73514188D01*
X163865820Y-73550498D01*
X163755506Y-73609463D01*
X163658815Y-73688815D01*
X163579463Y-73785506D01*
X163520498Y-73895820D01*
X163484188Y-74015518D01*
X163471928Y-74140000D01*
X156149699Y-74140000D01*
X156014608Y-73975392D01*
X155767169Y-73772325D01*
X155484868Y-73621432D01*
X155178555Y-73528513D01*
X154860000Y-73497138D01*
X154541444Y-73528513D01*
X154235131Y-73621432D01*
X153952830Y-73772325D01*
X153705392Y-73975392D01*
X153502325Y-74222831D01*
X153351432Y-74505132D01*
X153258513Y-74811445D01*
X153235000Y-75050177D01*
X151486421Y-75050177D01*
X151488072Y-74140000D01*
X151475812Y-74015518D01*
X151439502Y-73895820D01*
X151380537Y-73785506D01*
X151301185Y-73688815D01*
X151204494Y-73609463D01*
X151094180Y-73550498D01*
X150974482Y-73514188D01*
X150850000Y-73501928D01*
X150145750Y-73505000D01*
X149987000Y-73663750D01*
X149733000Y-73663750D01*
X149574250Y-73505000D01*
X148870000Y-73501928D01*
X148745518Y-73514188D01*
X148625820Y-73550498D01*
X148515506Y-73609463D01*
X148418815Y-73688815D01*
X148339463Y-73785506D01*
X148280498Y-73895820D01*
X148244188Y-74015518D01*
X148231928Y-74140000D01*
X141101492Y-74140000D01*
X141098248Y-64622285D01*
X141165000Y-64622285D01*
X141165000Y-65377715D01*
X141312377Y-66118628D01*
X141601467Y-66816554D01*
X142021161Y-67444670D01*
X142555330Y-67978839D01*
X143183446Y-68398533D01*
X143881372Y-68687623D01*
X144622285Y-68835000D01*
X145377715Y-68835000D01*
X146118628Y-68687623D01*
X146816554Y-68398533D01*
X147444670Y-67978839D01*
X147978839Y-67444670D01*
X148398533Y-66816554D01*
X148687623Y-66118628D01*
X148835000Y-65377715D01*
X148835000Y-64622285D01*
X221165000Y-64622285D01*
X221165000Y-65377715D01*
X221312377Y-66118628D01*
X221601467Y-66816554D01*
X222021161Y-67444670D01*
X222555330Y-67978839D01*
X223183446Y-68398533D01*
X223881372Y-68687623D01*
X224622285Y-68835000D01*
X225377715Y-68835000D01*
X226118628Y-68687623D01*
X226816554Y-68398533D01*
X227444670Y-67978839D01*
X227978839Y-67444670D01*
X228398533Y-66816554D01*
X228687623Y-66118628D01*
X228835000Y-65377715D01*
X228835000Y-64622285D01*
X228687623Y-63881372D01*
X228398533Y-63183446D01*
X227978839Y-62555330D01*
X227444670Y-62021161D01*
X226816554Y-61601467D01*
X226118628Y-61312377D01*
X225377715Y-61165000D01*
X224622285Y-61165000D01*
X223881372Y-61312377D01*
X223183446Y-61601467D01*
X222555330Y-62021161D01*
X222021161Y-62555330D01*
X221601467Y-63183446D01*
X221312377Y-63881372D01*
X221165000Y-64622285D01*
X148835000Y-64622285D01*
X148687623Y-63881372D01*
X148398533Y-63183446D01*
X147978839Y-62555330D01*
X147444670Y-62021161D01*
X146816554Y-61601467D01*
X146118628Y-61312377D01*
X145377715Y-61165000D01*
X144622285Y-61165000D01*
X143881372Y-61312377D01*
X143183446Y-61601467D01*
X142555330Y-62021161D01*
X142021161Y-62555330D01*
X141601467Y-63183446D01*
X141312377Y-63881372D01*
X141165000Y-64622285D01*
X141098248Y-64622285D01*
X141097043Y-61087058D01*
X228873000Y-61126942D01*
X228873000Y-61126942D01*
G37*
X228873000Y-61126942D02*
X228873000Y-148873000D01*
X141126957Y-148873000D01*
X141125509Y-144622285D01*
X141165000Y-144622285D01*
X141165000Y-145377715D01*
X141312377Y-146118628D01*
X141601467Y-146816554D01*
X142021161Y-147444670D01*
X142555330Y-147978839D01*
X143183446Y-148398533D01*
X143881372Y-148687623D01*
X144622285Y-148835000D01*
X145377715Y-148835000D01*
X146118628Y-148687623D01*
X146816554Y-148398533D01*
X147444670Y-147978839D01*
X147978839Y-147444670D01*
X148398533Y-146816554D01*
X148687623Y-146118628D01*
X148835000Y-145377715D01*
X148835000Y-144622285D01*
X221165000Y-144622285D01*
X221165000Y-145377715D01*
X221312377Y-146118628D01*
X221601467Y-146816554D01*
X222021161Y-147444670D01*
X222555330Y-147978839D01*
X223183446Y-148398533D01*
X223881372Y-148687623D01*
X224622285Y-148835000D01*
X225377715Y-148835000D01*
X226118628Y-148687623D01*
X226816554Y-148398533D01*
X227444670Y-147978839D01*
X227978839Y-147444670D01*
X228398533Y-146816554D01*
X228687623Y-146118628D01*
X228835000Y-145377715D01*
X228835000Y-144622285D01*
X228687623Y-143881372D01*
X228398533Y-143183446D01*
X227978839Y-142555330D01*
X227444670Y-142021161D01*
X226816554Y-141601467D01*
X226118628Y-141312377D01*
X225377715Y-141165000D01*
X224622285Y-141165000D01*
X223881372Y-141312377D01*
X223183446Y-141601467D01*
X222555330Y-142021161D01*
X222021161Y-142555330D01*
X221601467Y-143183446D01*
X221312377Y-143881372D01*
X221165000Y-144622285D01*
X148835000Y-144622285D01*
X148687623Y-143881372D01*
X148398533Y-143183446D01*
X147978839Y-142555330D01*
X147444670Y-142021161D01*
X146816554Y-141601467D01*
X146118628Y-141312377D01*
X145377715Y-141165000D01*
X144622285Y-141165000D01*
X143881372Y-141312377D01*
X143183446Y-141601467D01*
X142555330Y-142021161D01*
X142021161Y-142555330D01*
X141601467Y-143183446D01*
X141312377Y-143881372D01*
X141165000Y-144622285D01*
X141125509Y-144622285D01*
X141122940Y-137080000D01*
X152228057Y-137080000D01*
X152255764Y-137361309D01*
X152337818Y-137631808D01*
X152471068Y-137881101D01*
X152650392Y-138099608D01*
X152868899Y-138278932D01*
X153118192Y-138412182D01*
X153388691Y-138494236D01*
X153599508Y-138515000D01*
X153740492Y-138515000D01*
X153951309Y-138494236D01*
X154221808Y-138412182D01*
X154471101Y-138278932D01*
X154689608Y-138099608D01*
X154868932Y-137881101D01*
X154940000Y-137748142D01*
X155011068Y-137881101D01*
X155190392Y-138099608D01*
X155408899Y-138278932D01*
X155658192Y-138412182D01*
X155928691Y-138494236D01*
X156139508Y-138515000D01*
X156280492Y-138515000D01*
X156491309Y-138494236D01*
X156761808Y-138412182D01*
X157011101Y-138278932D01*
X157229608Y-138099608D01*
X157408932Y-137881101D01*
X157480000Y-137748142D01*
X157551068Y-137881101D01*
X157730392Y-138099608D01*
X157948899Y-138278932D01*
X158198192Y-138412182D01*
X158468691Y-138494236D01*
X158679508Y-138515000D01*
X158820492Y-138515000D01*
X159031309Y-138494236D01*
X159301808Y-138412182D01*
X159551101Y-138278932D01*
X159769608Y-138099608D01*
X159948932Y-137881101D01*
X160020000Y-137748142D01*
X160091068Y-137881101D01*
X160270392Y-138099608D01*
X160488899Y-138278932D01*
X160738192Y-138412182D01*
X161008691Y-138494236D01*
X161219508Y-138515000D01*
X161360492Y-138515000D01*
X161571309Y-138494236D01*
X161841808Y-138412182D01*
X162091101Y-138278932D01*
X162309608Y-138099608D01*
X162488932Y-137881101D01*
X162560000Y-137748142D01*
X162631068Y-137881101D01*
X162810392Y-138099608D01*
X163028899Y-138278932D01*
X163278192Y-138412182D01*
X163548691Y-138494236D01*
X163759508Y-138515000D01*
X163900492Y-138515000D01*
X164111309Y-138494236D01*
X164381808Y-138412182D01*
X164631101Y-138278932D01*
X164849608Y-138099608D01*
X165028932Y-137881101D01*
X165100000Y-137748142D01*
X165171068Y-137881101D01*
X165350392Y-138099608D01*
X165568899Y-138278932D01*
X165818192Y-138412182D01*
X166088691Y-138494236D01*
X166299508Y-138515000D01*
X166440492Y-138515000D01*
X166651309Y-138494236D01*
X166921808Y-138412182D01*
X167171101Y-138278932D01*
X167389608Y-138099608D01*
X167568932Y-137881101D01*
X167640000Y-137748142D01*
X167711068Y-137881101D01*
X167890392Y-138099608D01*
X168108899Y-138278932D01*
X168358192Y-138412182D01*
X168628691Y-138494236D01*
X168839508Y-138515000D01*
X168980492Y-138515000D01*
X169191309Y-138494236D01*
X169461808Y-138412182D01*
X169711101Y-138278932D01*
X169929608Y-138099608D01*
X170108932Y-137881101D01*
X170180000Y-137748142D01*
X170251068Y-137881101D01*
X170430392Y-138099608D01*
X170648899Y-138278932D01*
X170898192Y-138412182D01*
X171168691Y-138494236D01*
X171379508Y-138515000D01*
X171520492Y-138515000D01*
X171731309Y-138494236D01*
X172001808Y-138412182D01*
X172251101Y-138278932D01*
X172469608Y-138099608D01*
X172648932Y-137881101D01*
X172720000Y-137748142D01*
X172791068Y-137881101D01*
X172970392Y-138099608D01*
X173188899Y-138278932D01*
X173438192Y-138412182D01*
X173708691Y-138494236D01*
X173919508Y-138515000D01*
X174060492Y-138515000D01*
X174271309Y-138494236D01*
X174541808Y-138412182D01*
X174791101Y-138278932D01*
X175009608Y-138099608D01*
X175188932Y-137881101D01*
X175260000Y-137748142D01*
X175331068Y-137881101D01*
X175510392Y-138099608D01*
X175728899Y-138278932D01*
X175978192Y-138412182D01*
X176248691Y-138494236D01*
X176459508Y-138515000D01*
X176600492Y-138515000D01*
X176811309Y-138494236D01*
X177081808Y-138412182D01*
X177331101Y-138278932D01*
X177549608Y-138099608D01*
X177728932Y-137881101D01*
X177800000Y-137748142D01*
X177871068Y-137881101D01*
X178050392Y-138099608D01*
X178268899Y-138278932D01*
X178518192Y-138412182D01*
X178788691Y-138494236D01*
X178999508Y-138515000D01*
X179140492Y-138515000D01*
X179351309Y-138494236D01*
X179621808Y-138412182D01*
X179871101Y-138278932D01*
X180089608Y-138099608D01*
X180268932Y-137881101D01*
X180340000Y-137748142D01*
X180411068Y-137881101D01*
X180590392Y-138099608D01*
X180808899Y-138278932D01*
X181058192Y-138412182D01*
X181328691Y-138494236D01*
X181539508Y-138515000D01*
X181680492Y-138515000D01*
X181891309Y-138494236D01*
X182161808Y-138412182D01*
X182411101Y-138278932D01*
X182629608Y-138099608D01*
X182808932Y-137881101D01*
X182880000Y-137748142D01*
X182951068Y-137881101D01*
X183130392Y-138099608D01*
X183348899Y-138278932D01*
X183598192Y-138412182D01*
X183868691Y-138494236D01*
X184079508Y-138515000D01*
X184220492Y-138515000D01*
X184431309Y-138494236D01*
X184701808Y-138412182D01*
X184951101Y-138278932D01*
X185169608Y-138099608D01*
X185348932Y-137881101D01*
X185422579Y-137743318D01*
X185537615Y-137935131D01*
X185726586Y-138143519D01*
X185952580Y-138311037D01*
X186206913Y-138431246D01*
X186340961Y-138471904D01*
X186563000Y-138349915D01*
X186563000Y-137207000D01*
X186543000Y-137207000D01*
X186543000Y-136953000D01*
X186563000Y-136953000D01*
X186563000Y-135810085D01*
X186817000Y-135810085D01*
X186817000Y-136953000D01*
X186837000Y-136953000D01*
X186837000Y-137207000D01*
X186817000Y-137207000D01*
X186817000Y-138349915D01*
X187039039Y-138471904D01*
X187173087Y-138431246D01*
X187427420Y-138311037D01*
X187653414Y-138143519D01*
X187842385Y-137935131D01*
X187957421Y-137743318D01*
X188031068Y-137881101D01*
X188210392Y-138099608D01*
X188428899Y-138278932D01*
X188678192Y-138412182D01*
X188948691Y-138494236D01*
X189159508Y-138515000D01*
X189300492Y-138515000D01*
X189511309Y-138494236D01*
X189781808Y-138412182D01*
X190031101Y-138278932D01*
X190249608Y-138099608D01*
X190428932Y-137881101D01*
X190562182Y-137631808D01*
X190644236Y-137361309D01*
X190671943Y-137080000D01*
X190644236Y-136798691D01*
X190562182Y-136528192D01*
X190461040Y-136338967D01*
X199025000Y-136338967D01*
X199025000Y-136661033D01*
X199087832Y-136976912D01*
X199211082Y-137274463D01*
X199390013Y-137542252D01*
X199617748Y-137769987D01*
X199885537Y-137948918D01*
X200183088Y-138072168D01*
X200498967Y-138135000D01*
X200821033Y-138135000D01*
X201136912Y-138072168D01*
X201434463Y-137948918D01*
X201702252Y-137769987D01*
X201929987Y-137542252D01*
X202108918Y-137274463D01*
X202232168Y-136976912D01*
X202295000Y-136661033D01*
X202295000Y-136338967D01*
X205525000Y-136338967D01*
X205525000Y-136661033D01*
X205587832Y-136976912D01*
X205711082Y-137274463D01*
X205890013Y-137542252D01*
X206117748Y-137769987D01*
X206385537Y-137948918D01*
X206683088Y-138072168D01*
X206998967Y-138135000D01*
X207321033Y-138135000D01*
X207636912Y-138072168D01*
X207934463Y-137948918D01*
X208202252Y-137769987D01*
X208429987Y-137542252D01*
X208608918Y-137274463D01*
X208732168Y-136976912D01*
X208795000Y-136661033D01*
X208795000Y-136338967D01*
X211725000Y-136338967D01*
X211725000Y-136661033D01*
X211787832Y-136976912D01*
X211911082Y-137274463D01*
X212090013Y-137542252D01*
X212317748Y-137769987D01*
X212585537Y-137948918D01*
X212883088Y-138072168D01*
X213198967Y-138135000D01*
X213521033Y-138135000D01*
X213836912Y-138072168D01*
X214134463Y-137948918D01*
X214402252Y-137769987D01*
X214629987Y-137542252D01*
X214808918Y-137274463D01*
X214932168Y-136976912D01*
X214995000Y-136661033D01*
X214995000Y-136338967D01*
X218225000Y-136338967D01*
X218225000Y-136661033D01*
X218287832Y-136976912D01*
X218411082Y-137274463D01*
X218590013Y-137542252D01*
X218817748Y-137769987D01*
X219085537Y-137948918D01*
X219383088Y-138072168D01*
X219698967Y-138135000D01*
X220021033Y-138135000D01*
X220336912Y-138072168D01*
X220634463Y-137948918D01*
X220902252Y-137769987D01*
X221129987Y-137542252D01*
X221308918Y-137274463D01*
X221432168Y-136976912D01*
X221495000Y-136661033D01*
X221495000Y-136338967D01*
X221432168Y-136023088D01*
X221308918Y-135725537D01*
X221129987Y-135457748D01*
X220902252Y-135230013D01*
X220634463Y-135051082D01*
X220336912Y-134927832D01*
X220021033Y-134865000D01*
X219698967Y-134865000D01*
X219383088Y-134927832D01*
X219085537Y-135051082D01*
X218817748Y-135230013D01*
X218590013Y-135457748D01*
X218411082Y-135725537D01*
X218287832Y-136023088D01*
X218225000Y-136338967D01*
X214995000Y-136338967D01*
X214932168Y-136023088D01*
X214808918Y-135725537D01*
X214629987Y-135457748D01*
X214402252Y-135230013D01*
X214134463Y-135051082D01*
X213836912Y-134927832D01*
X213521033Y-134865000D01*
X213198967Y-134865000D01*
X212883088Y-134927832D01*
X212585537Y-135051082D01*
X212317748Y-135230013D01*
X212090013Y-135457748D01*
X211911082Y-135725537D01*
X211787832Y-136023088D01*
X211725000Y-136338967D01*
X208795000Y-136338967D01*
X208732168Y-136023088D01*
X208608918Y-135725537D01*
X208429987Y-135457748D01*
X208202252Y-135230013D01*
X207934463Y-135051082D01*
X207636912Y-134927832D01*
X207321033Y-134865000D01*
X206998967Y-134865000D01*
X206683088Y-134927832D01*
X206385537Y-135051082D01*
X206117748Y-135230013D01*
X205890013Y-135457748D01*
X205711082Y-135725537D01*
X205587832Y-136023088D01*
X205525000Y-136338967D01*
X202295000Y-136338967D01*
X202232168Y-136023088D01*
X202108918Y-135725537D01*
X201929987Y-135457748D01*
X201702252Y-135230013D01*
X201434463Y-135051082D01*
X201136912Y-134927832D01*
X200821033Y-134865000D01*
X200498967Y-134865000D01*
X200183088Y-134927832D01*
X199885537Y-135051082D01*
X199617748Y-135230013D01*
X199390013Y-135457748D01*
X199211082Y-135725537D01*
X199087832Y-136023088D01*
X199025000Y-136338967D01*
X190461040Y-136338967D01*
X190428932Y-136278899D01*
X190249608Y-136060392D01*
X190031101Y-135881068D01*
X189781808Y-135747818D01*
X189511309Y-135665764D01*
X189300492Y-135645000D01*
X189159508Y-135645000D01*
X188948691Y-135665764D01*
X188678192Y-135747818D01*
X188428899Y-135881068D01*
X188210392Y-136060392D01*
X188031068Y-136278899D01*
X187957421Y-136416682D01*
X187842385Y-136224869D01*
X187653414Y-136016481D01*
X187427420Y-135848963D01*
X187173087Y-135728754D01*
X187039039Y-135688096D01*
X186817000Y-135810085D01*
X186563000Y-135810085D01*
X186340961Y-135688096D01*
X186206913Y-135728754D01*
X185952580Y-135848963D01*
X185726586Y-136016481D01*
X185537615Y-136224869D01*
X185422579Y-136416682D01*
X185348932Y-136278899D01*
X185169608Y-136060392D01*
X184951101Y-135881068D01*
X184701808Y-135747818D01*
X184431309Y-135665764D01*
X184220492Y-135645000D01*
X184079508Y-135645000D01*
X183868691Y-135665764D01*
X183598192Y-135747818D01*
X183348899Y-135881068D01*
X183130392Y-136060392D01*
X182951068Y-136278899D01*
X182880000Y-136411858D01*
X182808932Y-136278899D01*
X182629608Y-136060392D01*
X182411101Y-135881068D01*
X182161808Y-135747818D01*
X181891309Y-135665764D01*
X181680492Y-135645000D01*
X181539508Y-135645000D01*
X181328691Y-135665764D01*
X181058192Y-135747818D01*
X180808899Y-135881068D01*
X180590392Y-136060392D01*
X180411068Y-136278899D01*
X180340000Y-136411858D01*
X180268932Y-136278899D01*
X180089608Y-136060392D01*
X179871101Y-135881068D01*
X179621808Y-135747818D01*
X179351309Y-135665764D01*
X179140492Y-135645000D01*
X178999508Y-135645000D01*
X178788691Y-135665764D01*
X178518192Y-135747818D01*
X178268899Y-135881068D01*
X178050392Y-136060392D01*
X177871068Y-136278899D01*
X177800000Y-136411858D01*
X177728932Y-136278899D01*
X177549608Y-136060392D01*
X177331101Y-135881068D01*
X177081808Y-135747818D01*
X176811309Y-135665764D01*
X176600492Y-135645000D01*
X176459508Y-135645000D01*
X176248691Y-135665764D01*
X175978192Y-135747818D01*
X175728899Y-135881068D01*
X175510392Y-136060392D01*
X175331068Y-136278899D01*
X175260000Y-136411858D01*
X175188932Y-136278899D01*
X175009608Y-136060392D01*
X174791101Y-135881068D01*
X174541808Y-135747818D01*
X174271309Y-135665764D01*
X174060492Y-135645000D01*
X173919508Y-135645000D01*
X173708691Y-135665764D01*
X173438192Y-135747818D01*
X173188899Y-135881068D01*
X172970392Y-136060392D01*
X172791068Y-136278899D01*
X172720000Y-136411858D01*
X172648932Y-136278899D01*
X172469608Y-136060392D01*
X172251101Y-135881068D01*
X172001808Y-135747818D01*
X171731309Y-135665764D01*
X171520492Y-135645000D01*
X171379508Y-135645000D01*
X171168691Y-135665764D01*
X170898192Y-135747818D01*
X170648899Y-135881068D01*
X170430392Y-136060392D01*
X170251068Y-136278899D01*
X170180000Y-136411858D01*
X170108932Y-136278899D01*
X169929608Y-136060392D01*
X169711101Y-135881068D01*
X169461808Y-135747818D01*
X169191309Y-135665764D01*
X168980492Y-135645000D01*
X168839508Y-135645000D01*
X168628691Y-135665764D01*
X168358192Y-135747818D01*
X168108899Y-135881068D01*
X167890392Y-136060392D01*
X167711068Y-136278899D01*
X167640000Y-136411858D01*
X167568932Y-136278899D01*
X167389608Y-136060392D01*
X167171101Y-135881068D01*
X166921808Y-135747818D01*
X166651309Y-135665764D01*
X166440492Y-135645000D01*
X166299508Y-135645000D01*
X166088691Y-135665764D01*
X165818192Y-135747818D01*
X165568899Y-135881068D01*
X165350392Y-136060392D01*
X165171068Y-136278899D01*
X165100000Y-136411858D01*
X165028932Y-136278899D01*
X164849608Y-136060392D01*
X164631101Y-135881068D01*
X164381808Y-135747818D01*
X164111309Y-135665764D01*
X163900492Y-135645000D01*
X163759508Y-135645000D01*
X163548691Y-135665764D01*
X163278192Y-135747818D01*
X163028899Y-135881068D01*
X162810392Y-136060392D01*
X162631068Y-136278899D01*
X162560000Y-136411858D01*
X162488932Y-136278899D01*
X162309608Y-136060392D01*
X162091101Y-135881068D01*
X161841808Y-135747818D01*
X161571309Y-135665764D01*
X161360492Y-135645000D01*
X161219508Y-135645000D01*
X161008691Y-135665764D01*
X160738192Y-135747818D01*
X160488899Y-135881068D01*
X160270392Y-136060392D01*
X160091068Y-136278899D01*
X160020000Y-136411858D01*
X159948932Y-136278899D01*
X159769608Y-136060392D01*
X159551101Y-135881068D01*
X159301808Y-135747818D01*
X159031309Y-135665764D01*
X158820492Y-135645000D01*
X158679508Y-135645000D01*
X158468691Y-135665764D01*
X158198192Y-135747818D01*
X157948899Y-135881068D01*
X157730392Y-136060392D01*
X157551068Y-136278899D01*
X157480000Y-136411858D01*
X157408932Y-136278899D01*
X157229608Y-136060392D01*
X157011101Y-135881068D01*
X156761808Y-135747818D01*
X156491309Y-135665764D01*
X156280492Y-135645000D01*
X156139508Y-135645000D01*
X155928691Y-135665764D01*
X155658192Y-135747818D01*
X155408899Y-135881068D01*
X155190392Y-136060392D01*
X155011068Y-136278899D01*
X154940000Y-136411858D01*
X154868932Y-136278899D01*
X154689608Y-136060392D01*
X154471101Y-135881068D01*
X154221808Y-135747818D01*
X153951309Y-135665764D01*
X153740492Y-135645000D01*
X153599508Y-135645000D01*
X153388691Y-135665764D01*
X153118192Y-135747818D01*
X152868899Y-135881068D01*
X152650392Y-136060392D01*
X152471068Y-136278899D01*
X152337818Y-136528192D01*
X152255764Y-136798691D01*
X152228057Y-137080000D01*
X141122940Y-137080000D01*
X141121597Y-133135413D01*
X199704192Y-133135413D01*
X199799956Y-133399814D01*
X200089571Y-133540704D01*
X200401108Y-133622384D01*
X200722595Y-133641718D01*
X201041675Y-133597961D01*
X201346088Y-133492795D01*
X201520044Y-133399814D01*
X201615808Y-133135413D01*
X206204192Y-133135413D01*
X206299956Y-133399814D01*
X206589571Y-133540704D01*
X206901108Y-133622384D01*
X207222595Y-133641718D01*
X207541675Y-133597961D01*
X207846088Y-133492795D01*
X208020044Y-133399814D01*
X208115808Y-133135413D01*
X212404192Y-133135413D01*
X212499956Y-133399814D01*
X212789571Y-133540704D01*
X213101108Y-133622384D01*
X213422595Y-133641718D01*
X213741675Y-133597961D01*
X214046088Y-133492795D01*
X214220044Y-133399814D01*
X214315808Y-133135413D01*
X218904192Y-133135413D01*
X218999956Y-133399814D01*
X219289571Y-133540704D01*
X219601108Y-133622384D01*
X219922595Y-133641718D01*
X220241675Y-133597961D01*
X220546088Y-133492795D01*
X220720044Y-133399814D01*
X220815808Y-133135413D01*
X219860000Y-132179605D01*
X218904192Y-133135413D01*
X214315808Y-133135413D01*
X213360000Y-132179605D01*
X212404192Y-133135413D01*
X208115808Y-133135413D01*
X207160000Y-132179605D01*
X206204192Y-133135413D01*
X201615808Y-133135413D01*
X200660000Y-132179605D01*
X199704192Y-133135413D01*
X141121597Y-133135413D01*
X141121231Y-132062595D01*
X199018282Y-132062595D01*
X199062039Y-132381675D01*
X199167205Y-132686088D01*
X199260186Y-132860044D01*
X199524587Y-132955808D01*
X200480395Y-132000000D01*
X200839605Y-132000000D01*
X201795413Y-132955808D01*
X202059814Y-132860044D01*
X202200704Y-132570429D01*
X202282384Y-132258892D01*
X202294189Y-132062595D01*
X205518282Y-132062595D01*
X205562039Y-132381675D01*
X205667205Y-132686088D01*
X205760186Y-132860044D01*
X206024587Y-132955808D01*
X206980395Y-132000000D01*
X207339605Y-132000000D01*
X208295413Y-132955808D01*
X208559814Y-132860044D01*
X208700704Y-132570429D01*
X208782384Y-132258892D01*
X208794189Y-132062595D01*
X211718282Y-132062595D01*
X211762039Y-132381675D01*
X211867205Y-132686088D01*
X211960186Y-132860044D01*
X212224587Y-132955808D01*
X213180395Y-132000000D01*
X213539605Y-132000000D01*
X214495413Y-132955808D01*
X214759814Y-132860044D01*
X214900704Y-132570429D01*
X214982384Y-132258892D01*
X214994189Y-132062595D01*
X218218282Y-132062595D01*
X218262039Y-132381675D01*
X218367205Y-132686088D01*
X218460186Y-132860044D01*
X218724587Y-132955808D01*
X219680395Y-132000000D01*
X220039605Y-132000000D01*
X220995413Y-132955808D01*
X221259814Y-132860044D01*
X221400704Y-132570429D01*
X221482384Y-132258892D01*
X221501718Y-131937405D01*
X221457961Y-131618325D01*
X221352795Y-131313912D01*
X221259814Y-131139956D01*
X220995413Y-131044192D01*
X220039605Y-132000000D01*
X219680395Y-132000000D01*
X218724587Y-131044192D01*
X218460186Y-131139956D01*
X218319296Y-131429571D01*
X218237616Y-131741108D01*
X218218282Y-132062595D01*
X214994189Y-132062595D01*
X215001718Y-131937405D01*
X214957961Y-131618325D01*
X214852795Y-131313912D01*
X214759814Y-131139956D01*
X214495413Y-131044192D01*
X213539605Y-132000000D01*
X213180395Y-132000000D01*
X212224587Y-131044192D01*
X211960186Y-131139956D01*
X211819296Y-131429571D01*
X211737616Y-131741108D01*
X211718282Y-132062595D01*
X208794189Y-132062595D01*
X208801718Y-131937405D01*
X208757961Y-131618325D01*
X208652795Y-131313912D01*
X208559814Y-131139956D01*
X208295413Y-131044192D01*
X207339605Y-132000000D01*
X206980395Y-132000000D01*
X206024587Y-131044192D01*
X205760186Y-131139956D01*
X205619296Y-131429571D01*
X205537616Y-131741108D01*
X205518282Y-132062595D01*
X202294189Y-132062595D01*
X202301718Y-131937405D01*
X202257961Y-131618325D01*
X202152795Y-131313912D01*
X202059814Y-131139956D01*
X201795413Y-131044192D01*
X200839605Y-132000000D01*
X200480395Y-132000000D01*
X199524587Y-131044192D01*
X199260186Y-131139956D01*
X199119296Y-131429571D01*
X199037616Y-131741108D01*
X199018282Y-132062595D01*
X141121231Y-132062595D01*
X141120823Y-130864587D01*
X199704192Y-130864587D01*
X200660000Y-131820395D01*
X201615808Y-130864587D01*
X206204192Y-130864587D01*
X207160000Y-131820395D01*
X208115808Y-130864587D01*
X212404192Y-130864587D01*
X213360000Y-131820395D01*
X214315808Y-130864587D01*
X218904192Y-130864587D01*
X219860000Y-131820395D01*
X220815808Y-130864587D01*
X220720044Y-130600186D01*
X220430429Y-130459296D01*
X220118892Y-130377616D01*
X219797405Y-130358282D01*
X219478325Y-130402039D01*
X219173912Y-130507205D01*
X218999956Y-130600186D01*
X218904192Y-130864587D01*
X214315808Y-130864587D01*
X214220044Y-130600186D01*
X213930429Y-130459296D01*
X213618892Y-130377616D01*
X213297405Y-130358282D01*
X212978325Y-130402039D01*
X212673912Y-130507205D01*
X212499956Y-130600186D01*
X212404192Y-130864587D01*
X208115808Y-130864587D01*
X208020044Y-130600186D01*
X207730429Y-130459296D01*
X207418892Y-130377616D01*
X207097405Y-130358282D01*
X206778325Y-130402039D01*
X206473912Y-130507205D01*
X206299956Y-130600186D01*
X206204192Y-130864587D01*
X201615808Y-130864587D01*
X201520044Y-130600186D01*
X201230429Y-130459296D01*
X200918892Y-130377616D01*
X200597405Y-130358282D01*
X200278325Y-130402039D01*
X199973912Y-130507205D01*
X199799956Y-130600186D01*
X199704192Y-130864587D01*
X141120823Y-130864587D01*
X141116881Y-119300000D01*
X147826324Y-119300000D01*
X147830000Y-119337322D01*
X147830001Y-126882668D01*
X147826324Y-126920000D01*
X147840998Y-127068985D01*
X147884454Y-127212246D01*
X147955026Y-127344276D01*
X148025379Y-127430000D01*
X148050000Y-127460001D01*
X148078998Y-127483799D01*
X149296201Y-128701003D01*
X149319999Y-128730001D01*
X149435724Y-128824974D01*
X149567753Y-128895546D01*
X149711014Y-128939003D01*
X149822667Y-128950000D01*
X149822676Y-128950000D01*
X149859999Y-128953676D01*
X149897322Y-128950000D01*
X158712678Y-128950000D01*
X158750000Y-128953676D01*
X158787322Y-128950000D01*
X158787333Y-128950000D01*
X158898986Y-128939003D01*
X159042247Y-128895546D01*
X159174276Y-128824974D01*
X159290001Y-128730001D01*
X159313804Y-128700997D01*
X161801009Y-126213794D01*
X161830001Y-126190001D01*
X161839056Y-126178967D01*
X199025000Y-126178967D01*
X199025000Y-126501033D01*
X199087832Y-126816912D01*
X199211082Y-127114463D01*
X199390013Y-127382252D01*
X199617748Y-127609987D01*
X199885537Y-127788918D01*
X200183088Y-127912168D01*
X200498967Y-127975000D01*
X200821033Y-127975000D01*
X201136912Y-127912168D01*
X201434463Y-127788918D01*
X201702252Y-127609987D01*
X201929987Y-127382252D01*
X202108918Y-127114463D01*
X202232168Y-126816912D01*
X202295000Y-126501033D01*
X202295000Y-126178967D01*
X205525000Y-126178967D01*
X205525000Y-126501033D01*
X205587832Y-126816912D01*
X205711082Y-127114463D01*
X205890013Y-127382252D01*
X206117748Y-127609987D01*
X206385537Y-127788918D01*
X206683088Y-127912168D01*
X206998967Y-127975000D01*
X207321033Y-127975000D01*
X207636912Y-127912168D01*
X207934463Y-127788918D01*
X208202252Y-127609987D01*
X208429987Y-127382252D01*
X208608918Y-127114463D01*
X208732168Y-126816912D01*
X208795000Y-126501033D01*
X208795000Y-126178967D01*
X211725000Y-126178967D01*
X211725000Y-126501033D01*
X211787832Y-126816912D01*
X211911082Y-127114463D01*
X212090013Y-127382252D01*
X212317748Y-127609987D01*
X212585537Y-127788918D01*
X212883088Y-127912168D01*
X213198967Y-127975000D01*
X213521033Y-127975000D01*
X213836912Y-127912168D01*
X214134463Y-127788918D01*
X214402252Y-127609987D01*
X214629987Y-127382252D01*
X214808918Y-127114463D01*
X214932168Y-126816912D01*
X214995000Y-126501033D01*
X214995000Y-126178967D01*
X218225000Y-126178967D01*
X218225000Y-126501033D01*
X218287832Y-126816912D01*
X218411082Y-127114463D01*
X218590013Y-127382252D01*
X218817748Y-127609987D01*
X219085537Y-127788918D01*
X219383088Y-127912168D01*
X219698967Y-127975000D01*
X220021033Y-127975000D01*
X220336912Y-127912168D01*
X220634463Y-127788918D01*
X220902252Y-127609987D01*
X221129987Y-127382252D01*
X221308918Y-127114463D01*
X221432168Y-126816912D01*
X221495000Y-126501033D01*
X221495000Y-126178967D01*
X221432168Y-125863088D01*
X221308918Y-125565537D01*
X221129987Y-125297748D01*
X220902252Y-125070013D01*
X220634463Y-124891082D01*
X220336912Y-124767832D01*
X220021033Y-124705000D01*
X219698967Y-124705000D01*
X219383088Y-124767832D01*
X219085537Y-124891082D01*
X218817748Y-125070013D01*
X218590013Y-125297748D01*
X218411082Y-125565537D01*
X218287832Y-125863088D01*
X218225000Y-126178967D01*
X214995000Y-126178967D01*
X214932168Y-125863088D01*
X214808918Y-125565537D01*
X214629987Y-125297748D01*
X214402252Y-125070013D01*
X214134463Y-124891082D01*
X213836912Y-124767832D01*
X213521033Y-124705000D01*
X213198967Y-124705000D01*
X212883088Y-124767832D01*
X212585537Y-124891082D01*
X212317748Y-125070013D01*
X212090013Y-125297748D01*
X211911082Y-125565537D01*
X211787832Y-125863088D01*
X211725000Y-126178967D01*
X208795000Y-126178967D01*
X208732168Y-125863088D01*
X208608918Y-125565537D01*
X208429987Y-125297748D01*
X208202252Y-125070013D01*
X207934463Y-124891082D01*
X207636912Y-124767832D01*
X207321033Y-124705000D01*
X206998967Y-124705000D01*
X206683088Y-124767832D01*
X206385537Y-124891082D01*
X206117748Y-125070013D01*
X205890013Y-125297748D01*
X205711082Y-125565537D01*
X205587832Y-125863088D01*
X205525000Y-126178967D01*
X202295000Y-126178967D01*
X202232168Y-125863088D01*
X202108918Y-125565537D01*
X201929987Y-125297748D01*
X201702252Y-125070013D01*
X201434463Y-124891082D01*
X201136912Y-124767832D01*
X200821033Y-124705000D01*
X200498967Y-124705000D01*
X200183088Y-124767832D01*
X199885537Y-124891082D01*
X199617748Y-125070013D01*
X199390013Y-125297748D01*
X199211082Y-125565537D01*
X199087832Y-125863088D01*
X199025000Y-126178967D01*
X161839056Y-126178967D01*
X161853795Y-126161008D01*
X161853799Y-126161004D01*
X161924973Y-126074277D01*
X161924974Y-126074276D01*
X161995546Y-125942247D01*
X162039003Y-125798986D01*
X162050000Y-125687333D01*
X162050000Y-125687324D01*
X162053676Y-125650001D01*
X162050000Y-125612678D01*
X162050000Y-123060901D01*
X162091101Y-123038932D01*
X162309608Y-122859608D01*
X162488932Y-122641101D01*
X162560000Y-122508142D01*
X162631068Y-122641101D01*
X162810392Y-122859608D01*
X163028899Y-123038932D01*
X163278192Y-123172182D01*
X163548691Y-123254236D01*
X163759508Y-123275000D01*
X163900492Y-123275000D01*
X164111309Y-123254236D01*
X164381808Y-123172182D01*
X164631101Y-123038932D01*
X164849608Y-122859608D01*
X165028932Y-122641101D01*
X165100000Y-122508142D01*
X165171068Y-122641101D01*
X165350392Y-122859608D01*
X165568899Y-123038932D01*
X165818192Y-123172182D01*
X166088691Y-123254236D01*
X166299508Y-123275000D01*
X166440492Y-123275000D01*
X166651309Y-123254236D01*
X166921808Y-123172182D01*
X167171101Y-123038932D01*
X167389608Y-122859608D01*
X167568932Y-122641101D01*
X167640000Y-122508142D01*
X167711068Y-122641101D01*
X167890392Y-122859608D01*
X168108899Y-123038932D01*
X168358192Y-123172182D01*
X168628691Y-123254236D01*
X168839508Y-123275000D01*
X168980492Y-123275000D01*
X169191309Y-123254236D01*
X169461808Y-123172182D01*
X169711101Y-123038932D01*
X169929608Y-122859608D01*
X170108932Y-122641101D01*
X170180000Y-122508142D01*
X170251068Y-122641101D01*
X170430392Y-122859608D01*
X170648899Y-123038932D01*
X170898192Y-123172182D01*
X171168691Y-123254236D01*
X171379508Y-123275000D01*
X171520492Y-123275000D01*
X171731309Y-123254236D01*
X172001808Y-123172182D01*
X172251101Y-123038932D01*
X172469608Y-122859608D01*
X172648932Y-122641101D01*
X172720000Y-122508142D01*
X172791068Y-122641101D01*
X172970392Y-122859608D01*
X173188899Y-123038932D01*
X173438192Y-123172182D01*
X173708691Y-123254236D01*
X173919508Y-123275000D01*
X174060492Y-123275000D01*
X174271309Y-123254236D01*
X174541808Y-123172182D01*
X174791101Y-123038932D01*
X175009608Y-122859608D01*
X175188932Y-122641101D01*
X175260000Y-122508142D01*
X175331068Y-122641101D01*
X175510392Y-122859608D01*
X175728899Y-123038932D01*
X175978192Y-123172182D01*
X176248691Y-123254236D01*
X176459508Y-123275000D01*
X176600492Y-123275000D01*
X176811309Y-123254236D01*
X177081808Y-123172182D01*
X177331101Y-123038932D01*
X177549608Y-122859608D01*
X177728932Y-122641101D01*
X177800000Y-122508142D01*
X177871068Y-122641101D01*
X178050392Y-122859608D01*
X178268899Y-123038932D01*
X178518192Y-123172182D01*
X178788691Y-123254236D01*
X178999508Y-123275000D01*
X179140492Y-123275000D01*
X179351309Y-123254236D01*
X179621808Y-123172182D01*
X179871101Y-123038932D01*
X180089608Y-122859608D01*
X180268932Y-122641101D01*
X180342579Y-122503318D01*
X180457615Y-122695131D01*
X180646586Y-122903519D01*
X180872580Y-123071037D01*
X181126913Y-123191246D01*
X181260961Y-123231904D01*
X181483000Y-123109915D01*
X181483000Y-121967000D01*
X181463000Y-121967000D01*
X181463000Y-121713000D01*
X181483000Y-121713000D01*
X181483000Y-120570085D01*
X181737000Y-120570085D01*
X181737000Y-121713000D01*
X181757000Y-121713000D01*
X181757000Y-121967000D01*
X181737000Y-121967000D01*
X181737000Y-123109915D01*
X181959039Y-123231904D01*
X182093087Y-123191246D01*
X182347420Y-123071037D01*
X182573414Y-122903519D01*
X182762385Y-122695131D01*
X182877421Y-122503318D01*
X182951068Y-122641101D01*
X183130392Y-122859608D01*
X183348899Y-123038932D01*
X183598192Y-123172182D01*
X183868691Y-123254236D01*
X184079508Y-123275000D01*
X184220492Y-123275000D01*
X184431309Y-123254236D01*
X184701808Y-123172182D01*
X184951101Y-123038932D01*
X185169608Y-122859608D01*
X185348932Y-122641101D01*
X185420000Y-122508142D01*
X185491068Y-122641101D01*
X185670392Y-122859608D01*
X185888899Y-123038932D01*
X186138192Y-123172182D01*
X186408691Y-123254236D01*
X186619508Y-123275000D01*
X186760492Y-123275000D01*
X186971309Y-123254236D01*
X187241808Y-123172182D01*
X187491101Y-123038932D01*
X187709608Y-122859608D01*
X187802419Y-122746518D01*
X187804188Y-122764482D01*
X187840498Y-122884180D01*
X187899463Y-122994494D01*
X187978815Y-123091185D01*
X188075506Y-123170537D01*
X188185820Y-123229502D01*
X188305518Y-123265812D01*
X188430000Y-123278072D01*
X190030000Y-123278072D01*
X190154482Y-123265812D01*
X190274180Y-123229502D01*
X190384494Y-123170537D01*
X190481185Y-123091185D01*
X190560537Y-122994494D01*
X190570736Y-122975413D01*
X199704192Y-122975413D01*
X199799956Y-123239814D01*
X200089571Y-123380704D01*
X200401108Y-123462384D01*
X200722595Y-123481718D01*
X201041675Y-123437961D01*
X201346088Y-123332795D01*
X201520044Y-123239814D01*
X201615808Y-122975413D01*
X206204192Y-122975413D01*
X206299956Y-123239814D01*
X206589571Y-123380704D01*
X206901108Y-123462384D01*
X207222595Y-123481718D01*
X207541675Y-123437961D01*
X207846088Y-123332795D01*
X208020044Y-123239814D01*
X208115808Y-122975413D01*
X212404192Y-122975413D01*
X212499956Y-123239814D01*
X212789571Y-123380704D01*
X213101108Y-123462384D01*
X213422595Y-123481718D01*
X213741675Y-123437961D01*
X214046088Y-123332795D01*
X214220044Y-123239814D01*
X214315808Y-122975413D01*
X218904192Y-122975413D01*
X218999956Y-123239814D01*
X219289571Y-123380704D01*
X219601108Y-123462384D01*
X219922595Y-123481718D01*
X220241675Y-123437961D01*
X220546088Y-123332795D01*
X220720044Y-123239814D01*
X220815808Y-122975413D01*
X219860000Y-122019605D01*
X218904192Y-122975413D01*
X214315808Y-122975413D01*
X213360000Y-122019605D01*
X212404192Y-122975413D01*
X208115808Y-122975413D01*
X207160000Y-122019605D01*
X206204192Y-122975413D01*
X201615808Y-122975413D01*
X200660000Y-122019605D01*
X199704192Y-122975413D01*
X190570736Y-122975413D01*
X190619502Y-122884180D01*
X190655812Y-122764482D01*
X190668072Y-122640000D01*
X190668072Y-121902595D01*
X199018282Y-121902595D01*
X199062039Y-122221675D01*
X199167205Y-122526088D01*
X199260186Y-122700044D01*
X199524587Y-122795808D01*
X200480395Y-121840000D01*
X200839605Y-121840000D01*
X201795413Y-122795808D01*
X202059814Y-122700044D01*
X202200704Y-122410429D01*
X202282384Y-122098892D01*
X202294189Y-121902595D01*
X205518282Y-121902595D01*
X205562039Y-122221675D01*
X205667205Y-122526088D01*
X205760186Y-122700044D01*
X206024587Y-122795808D01*
X206980395Y-121840000D01*
X207339605Y-121840000D01*
X208295413Y-122795808D01*
X208559814Y-122700044D01*
X208700704Y-122410429D01*
X208782384Y-122098892D01*
X208794189Y-121902595D01*
X211718282Y-121902595D01*
X211762039Y-122221675D01*
X211867205Y-122526088D01*
X211960186Y-122700044D01*
X212224587Y-122795808D01*
X213180395Y-121840000D01*
X213539605Y-121840000D01*
X214495413Y-122795808D01*
X214759814Y-122700044D01*
X214900704Y-122410429D01*
X214982384Y-122098892D01*
X214994189Y-121902595D01*
X218218282Y-121902595D01*
X218262039Y-122221675D01*
X218367205Y-122526088D01*
X218460186Y-122700044D01*
X218724587Y-122795808D01*
X219680395Y-121840000D01*
X220039605Y-121840000D01*
X220995413Y-122795808D01*
X221259814Y-122700044D01*
X221400704Y-122410429D01*
X221482384Y-122098892D01*
X221501718Y-121777405D01*
X221457961Y-121458325D01*
X221352795Y-121153912D01*
X221259814Y-120979956D01*
X220995413Y-120884192D01*
X220039605Y-121840000D01*
X219680395Y-121840000D01*
X218724587Y-120884192D01*
X218460186Y-120979956D01*
X218319296Y-121269571D01*
X218237616Y-121581108D01*
X218218282Y-121902595D01*
X214994189Y-121902595D01*
X215001718Y-121777405D01*
X214957961Y-121458325D01*
X214852795Y-121153912D01*
X214759814Y-120979956D01*
X214495413Y-120884192D01*
X213539605Y-121840000D01*
X213180395Y-121840000D01*
X212224587Y-120884192D01*
X211960186Y-120979956D01*
X211819296Y-121269571D01*
X211737616Y-121581108D01*
X211718282Y-121902595D01*
X208794189Y-121902595D01*
X208801718Y-121777405D01*
X208757961Y-121458325D01*
X208652795Y-121153912D01*
X208559814Y-120979956D01*
X208295413Y-120884192D01*
X207339605Y-121840000D01*
X206980395Y-121840000D01*
X206024587Y-120884192D01*
X205760186Y-120979956D01*
X205619296Y-121269571D01*
X205537616Y-121581108D01*
X205518282Y-121902595D01*
X202294189Y-121902595D01*
X202301718Y-121777405D01*
X202257961Y-121458325D01*
X202152795Y-121153912D01*
X202059814Y-120979956D01*
X201795413Y-120884192D01*
X200839605Y-121840000D01*
X200480395Y-121840000D01*
X199524587Y-120884192D01*
X199260186Y-120979956D01*
X199119296Y-121269571D01*
X199037616Y-121581108D01*
X199018282Y-121902595D01*
X190668072Y-121902595D01*
X190668072Y-121040000D01*
X190655812Y-120915518D01*
X190619502Y-120795820D01*
X190570737Y-120704587D01*
X199704192Y-120704587D01*
X200660000Y-121660395D01*
X201615808Y-120704587D01*
X206204192Y-120704587D01*
X207160000Y-121660395D01*
X208115808Y-120704587D01*
X212404192Y-120704587D01*
X213360000Y-121660395D01*
X214315808Y-120704587D01*
X218904192Y-120704587D01*
X219860000Y-121660395D01*
X220815808Y-120704587D01*
X220720044Y-120440186D01*
X220430429Y-120299296D01*
X220118892Y-120217616D01*
X219797405Y-120198282D01*
X219478325Y-120242039D01*
X219173912Y-120347205D01*
X218999956Y-120440186D01*
X218904192Y-120704587D01*
X214315808Y-120704587D01*
X214220044Y-120440186D01*
X213930429Y-120299296D01*
X213618892Y-120217616D01*
X213297405Y-120198282D01*
X212978325Y-120242039D01*
X212673912Y-120347205D01*
X212499956Y-120440186D01*
X212404192Y-120704587D01*
X208115808Y-120704587D01*
X208020044Y-120440186D01*
X207730429Y-120299296D01*
X207418892Y-120217616D01*
X207097405Y-120198282D01*
X206778325Y-120242039D01*
X206473912Y-120347205D01*
X206299956Y-120440186D01*
X206204192Y-120704587D01*
X201615808Y-120704587D01*
X201520044Y-120440186D01*
X201230429Y-120299296D01*
X200918892Y-120217616D01*
X200597405Y-120198282D01*
X200278325Y-120242039D01*
X199973912Y-120347205D01*
X199799956Y-120440186D01*
X199704192Y-120704587D01*
X190570737Y-120704587D01*
X190560537Y-120685506D01*
X190481185Y-120588815D01*
X190384494Y-120509463D01*
X190274180Y-120450498D01*
X190154482Y-120414188D01*
X190030000Y-120401928D01*
X188430000Y-120401928D01*
X188305518Y-120414188D01*
X188185820Y-120450498D01*
X188075506Y-120509463D01*
X187978815Y-120588815D01*
X187899463Y-120685506D01*
X187840498Y-120795820D01*
X187804188Y-120915518D01*
X187802419Y-120933482D01*
X187709608Y-120820392D01*
X187491101Y-120641068D01*
X187241808Y-120507818D01*
X186971309Y-120425764D01*
X186760492Y-120405000D01*
X186619508Y-120405000D01*
X186408691Y-120425764D01*
X186138192Y-120507818D01*
X185888899Y-120641068D01*
X185670392Y-120820392D01*
X185491068Y-121038899D01*
X185420000Y-121171858D01*
X185348932Y-121038899D01*
X185169608Y-120820392D01*
X184951101Y-120641068D01*
X184701808Y-120507818D01*
X184431309Y-120425764D01*
X184220492Y-120405000D01*
X184079508Y-120405000D01*
X183868691Y-120425764D01*
X183598192Y-120507818D01*
X183348899Y-120641068D01*
X183130392Y-120820392D01*
X182951068Y-121038899D01*
X182877421Y-121176682D01*
X182762385Y-120984869D01*
X182573414Y-120776481D01*
X182347420Y-120608963D01*
X182093087Y-120488754D01*
X181959039Y-120448096D01*
X181737000Y-120570085D01*
X181483000Y-120570085D01*
X181260961Y-120448096D01*
X181126913Y-120488754D01*
X180872580Y-120608963D01*
X180646586Y-120776481D01*
X180457615Y-120984869D01*
X180342579Y-121176682D01*
X180268932Y-121038899D01*
X180089608Y-120820392D01*
X179871101Y-120641068D01*
X179621808Y-120507818D01*
X179351309Y-120425764D01*
X179140492Y-120405000D01*
X178999508Y-120405000D01*
X178788691Y-120425764D01*
X178518192Y-120507818D01*
X178268899Y-120641068D01*
X178050392Y-120820392D01*
X177871068Y-121038899D01*
X177800000Y-121171858D01*
X177728932Y-121038899D01*
X177549608Y-120820392D01*
X177331101Y-120641068D01*
X177081808Y-120507818D01*
X176811309Y-120425764D01*
X176600492Y-120405000D01*
X176459508Y-120405000D01*
X176248691Y-120425764D01*
X175978192Y-120507818D01*
X175728899Y-120641068D01*
X175510392Y-120820392D01*
X175331068Y-121038899D01*
X175260000Y-121171858D01*
X175188932Y-121038899D01*
X175009608Y-120820392D01*
X174791101Y-120641068D01*
X174541808Y-120507818D01*
X174271309Y-120425764D01*
X174060492Y-120405000D01*
X173919508Y-120405000D01*
X173708691Y-120425764D01*
X173438192Y-120507818D01*
X173188899Y-120641068D01*
X172970392Y-120820392D01*
X172791068Y-121038899D01*
X172720000Y-121171858D01*
X172648932Y-121038899D01*
X172469608Y-120820392D01*
X172251101Y-120641068D01*
X172001808Y-120507818D01*
X171731309Y-120425764D01*
X171520492Y-120405000D01*
X171379508Y-120405000D01*
X171168691Y-120425764D01*
X170898192Y-120507818D01*
X170648899Y-120641068D01*
X170430392Y-120820392D01*
X170251068Y-121038899D01*
X170180000Y-121171858D01*
X170108932Y-121038899D01*
X169929608Y-120820392D01*
X169711101Y-120641068D01*
X169461808Y-120507818D01*
X169191309Y-120425764D01*
X168980492Y-120405000D01*
X168839508Y-120405000D01*
X168628691Y-120425764D01*
X168358192Y-120507818D01*
X168108899Y-120641068D01*
X167890392Y-120820392D01*
X167711068Y-121038899D01*
X167640000Y-121171858D01*
X167568932Y-121038899D01*
X167389608Y-120820392D01*
X167171101Y-120641068D01*
X166921808Y-120507818D01*
X166651309Y-120425764D01*
X166440492Y-120405000D01*
X166299508Y-120405000D01*
X166088691Y-120425764D01*
X165818192Y-120507818D01*
X165568899Y-120641068D01*
X165350392Y-120820392D01*
X165171068Y-121038899D01*
X165100000Y-121171858D01*
X165028932Y-121038899D01*
X164849608Y-120820392D01*
X164631101Y-120641068D01*
X164381808Y-120507818D01*
X164111309Y-120425764D01*
X163900492Y-120405000D01*
X163759508Y-120405000D01*
X163548691Y-120425764D01*
X163278192Y-120507818D01*
X163028899Y-120641068D01*
X162810392Y-120820392D01*
X162631068Y-121038899D01*
X162560000Y-121171858D01*
X162488932Y-121038899D01*
X162309608Y-120820392D01*
X162091101Y-120641068D01*
X161841808Y-120507818D01*
X161571309Y-120425764D01*
X161360492Y-120405000D01*
X161219508Y-120405000D01*
X161008691Y-120425764D01*
X160738192Y-120507818D01*
X160488899Y-120641068D01*
X160270392Y-120820392D01*
X160091068Y-121038899D01*
X160020000Y-121171858D01*
X159948932Y-121038899D01*
X159769608Y-120820392D01*
X159551101Y-120641068D01*
X159301808Y-120507818D01*
X159031309Y-120425764D01*
X158820492Y-120405000D01*
X158679508Y-120405000D01*
X158468691Y-120425764D01*
X158198192Y-120507818D01*
X157948899Y-120641068D01*
X157730392Y-120820392D01*
X157551068Y-121038899D01*
X157480000Y-121171858D01*
X157408932Y-121038899D01*
X157229608Y-120820392D01*
X157011101Y-120641068D01*
X156970000Y-120619099D01*
X156970000Y-117074801D01*
X158554801Y-115490000D01*
X161118057Y-115490000D01*
X161145764Y-115771309D01*
X161227818Y-116041808D01*
X161361068Y-116291101D01*
X161540392Y-116509608D01*
X161758899Y-116688932D01*
X162008192Y-116822182D01*
X162278691Y-116904236D01*
X162489508Y-116925000D01*
X162630492Y-116925000D01*
X162841309Y-116904236D01*
X163111808Y-116822182D01*
X163361101Y-116688932D01*
X163579608Y-116509608D01*
X163758932Y-116291101D01*
X163892182Y-116041808D01*
X163974236Y-115771309D01*
X164001943Y-115490000D01*
X170008057Y-115490000D01*
X170035764Y-115771309D01*
X170117818Y-116041808D01*
X170251068Y-116291101D01*
X170430392Y-116509608D01*
X170648899Y-116688932D01*
X170898192Y-116822182D01*
X171168691Y-116904236D01*
X171379508Y-116925000D01*
X171520492Y-116925000D01*
X171731309Y-116904236D01*
X172001808Y-116822182D01*
X172251101Y-116688932D01*
X172469608Y-116509608D01*
X172648932Y-116291101D01*
X172782182Y-116041808D01*
X172864236Y-115771309D01*
X172891943Y-115490000D01*
X178898057Y-115490000D01*
X178925764Y-115771309D01*
X179007818Y-116041808D01*
X179141068Y-116291101D01*
X179320392Y-116509608D01*
X179538899Y-116688932D01*
X179788192Y-116822182D01*
X180058691Y-116904236D01*
X180269508Y-116925000D01*
X180410492Y-116925000D01*
X180621309Y-116904236D01*
X180891808Y-116822182D01*
X181141101Y-116688932D01*
X181359608Y-116509608D01*
X181538932Y-116291101D01*
X181672182Y-116041808D01*
X181754236Y-115771309D01*
X181781943Y-115490000D01*
X181754236Y-115208691D01*
X181672182Y-114938192D01*
X181538932Y-114688899D01*
X181359608Y-114470392D01*
X181141101Y-114291068D01*
X180891808Y-114157818D01*
X180621309Y-114075764D01*
X180410492Y-114055000D01*
X180269508Y-114055000D01*
X180058691Y-114075764D01*
X179788192Y-114157818D01*
X179538899Y-114291068D01*
X179320392Y-114470392D01*
X179141068Y-114688899D01*
X179007818Y-114938192D01*
X178925764Y-115208691D01*
X178898057Y-115490000D01*
X172891943Y-115490000D01*
X172864236Y-115208691D01*
X172782182Y-114938192D01*
X172648932Y-114688899D01*
X172469608Y-114470392D01*
X172251101Y-114291068D01*
X172001808Y-114157818D01*
X171731309Y-114075764D01*
X171520492Y-114055000D01*
X171379508Y-114055000D01*
X171168691Y-114075764D01*
X170898192Y-114157818D01*
X170648899Y-114291068D01*
X170430392Y-114470392D01*
X170251068Y-114688899D01*
X170117818Y-114938192D01*
X170035764Y-115208691D01*
X170008057Y-115490000D01*
X164001943Y-115490000D01*
X163974236Y-115208691D01*
X163892182Y-114938192D01*
X163758932Y-114688899D01*
X163579608Y-114470392D01*
X163361101Y-114291068D01*
X163111808Y-114157818D01*
X162841309Y-114075764D01*
X162630492Y-114055000D01*
X162489508Y-114055000D01*
X162278691Y-114075764D01*
X162008192Y-114157818D01*
X161758899Y-114291068D01*
X161540392Y-114470392D01*
X161361068Y-114688899D01*
X161227818Y-114938192D01*
X161145764Y-115208691D01*
X161118057Y-115490000D01*
X158554801Y-115490000D01*
X160334802Y-113710000D01*
X199075199Y-113710000D01*
X200529292Y-115164094D01*
X200515764Y-115208691D01*
X200488057Y-115490000D01*
X200515764Y-115771309D01*
X200597818Y-116041808D01*
X200731068Y-116291101D01*
X200910392Y-116509608D01*
X201128899Y-116688932D01*
X201378192Y-116822182D01*
X201648691Y-116904236D01*
X201859508Y-116925000D01*
X202000492Y-116925000D01*
X202211309Y-116904236D01*
X202481808Y-116822182D01*
X202731101Y-116688932D01*
X202949608Y-116509608D01*
X203128932Y-116291101D01*
X203262182Y-116041808D01*
X203344236Y-115771309D01*
X203371943Y-115490000D01*
X203344236Y-115208691D01*
X203262182Y-114938192D01*
X203128932Y-114688899D01*
X202949608Y-114470392D01*
X202731101Y-114291068D01*
X202481808Y-114157818D01*
X202211309Y-114075764D01*
X202000492Y-114055000D01*
X201859508Y-114055000D01*
X201648691Y-114075764D01*
X201604094Y-114089292D01*
X199954801Y-112440000D01*
X204155199Y-112440000D01*
X207716201Y-116001003D01*
X207739999Y-116030001D01*
X207855724Y-116124974D01*
X207987753Y-116195546D01*
X208131014Y-116239003D01*
X208242667Y-116250000D01*
X208242675Y-116250000D01*
X208280000Y-116253676D01*
X208317325Y-116250000D01*
X209599099Y-116250000D01*
X209621068Y-116291101D01*
X209800392Y-116509608D01*
X210018899Y-116688932D01*
X210268192Y-116822182D01*
X210538691Y-116904236D01*
X210749508Y-116925000D01*
X210890492Y-116925000D01*
X211101309Y-116904236D01*
X211371808Y-116822182D01*
X211621101Y-116688932D01*
X211839608Y-116509608D01*
X212018932Y-116291101D01*
X212152182Y-116041808D01*
X212234236Y-115771309D01*
X212261943Y-115490000D01*
X212234236Y-115208691D01*
X212152182Y-114938192D01*
X212018932Y-114688899D01*
X211839608Y-114470392D01*
X211621101Y-114291068D01*
X211371808Y-114157818D01*
X211101309Y-114075764D01*
X210890492Y-114055000D01*
X210749508Y-114055000D01*
X210538691Y-114075764D01*
X210268192Y-114157818D01*
X210018899Y-114291068D01*
X209800392Y-114470392D01*
X209621068Y-114688899D01*
X209599099Y-114730000D01*
X208594802Y-114730000D01*
X205034801Y-111170000D01*
X214315199Y-111170000D01*
X218309292Y-115164094D01*
X218295764Y-115208691D01*
X218268057Y-115490000D01*
X218295764Y-115771309D01*
X218377818Y-116041808D01*
X218511068Y-116291101D01*
X218690392Y-116509608D01*
X218908899Y-116688932D01*
X219158192Y-116822182D01*
X219428691Y-116904236D01*
X219639508Y-116925000D01*
X219780492Y-116925000D01*
X219991309Y-116904236D01*
X220261808Y-116822182D01*
X220511101Y-116688932D01*
X220729608Y-116509608D01*
X220908932Y-116291101D01*
X221042182Y-116041808D01*
X221124236Y-115771309D01*
X221151943Y-115490000D01*
X221124236Y-115208691D01*
X221042182Y-114938192D01*
X220908932Y-114688899D01*
X220729608Y-114470392D01*
X220511101Y-114291068D01*
X220261808Y-114157818D01*
X219991309Y-114075764D01*
X219780492Y-114055000D01*
X219639508Y-114055000D01*
X219428691Y-114075764D01*
X219384094Y-114089292D01*
X215193804Y-109899003D01*
X215170001Y-109869999D01*
X215054276Y-109775026D01*
X214922247Y-109704454D01*
X214778986Y-109660997D01*
X214667333Y-109650000D01*
X214667322Y-109650000D01*
X214630000Y-109646324D01*
X214592678Y-109650000D01*
X157517333Y-109650000D01*
X157480000Y-109646323D01*
X157442667Y-109650000D01*
X157331014Y-109660997D01*
X157187753Y-109704454D01*
X157055724Y-109775026D01*
X156939999Y-109869999D01*
X156916201Y-109898997D01*
X148079003Y-118736196D01*
X148049999Y-118759999D01*
X147994871Y-118827174D01*
X147955026Y-118875724D01*
X147884455Y-119007753D01*
X147884454Y-119007754D01*
X147840997Y-119151015D01*
X147830000Y-119262668D01*
X147830000Y-119262678D01*
X147826324Y-119300000D01*
X141116881Y-119300000D01*
X141111208Y-102648665D01*
X161125000Y-102648665D01*
X161125000Y-102931335D01*
X161180147Y-103208574D01*
X161288320Y-103469727D01*
X161445363Y-103704759D01*
X161645241Y-103904637D01*
X161880273Y-104061680D01*
X162141426Y-104169853D01*
X162418665Y-104225000D01*
X162701335Y-104225000D01*
X162978574Y-104169853D01*
X163239727Y-104061680D01*
X163474759Y-103904637D01*
X163674637Y-103704759D01*
X163831680Y-103469727D01*
X163939853Y-103208574D01*
X163995000Y-102931335D01*
X163995000Y-102648665D01*
X170015000Y-102648665D01*
X170015000Y-102931335D01*
X170070147Y-103208574D01*
X170178320Y-103469727D01*
X170335363Y-103704759D01*
X170535241Y-103904637D01*
X170770273Y-104061680D01*
X171031426Y-104169853D01*
X171308665Y-104225000D01*
X171591335Y-104225000D01*
X171868574Y-104169853D01*
X172129727Y-104061680D01*
X172364759Y-103904637D01*
X172564637Y-103704759D01*
X172721680Y-103469727D01*
X172829853Y-103208574D01*
X172885000Y-102931335D01*
X172885000Y-102648665D01*
X178905000Y-102648665D01*
X178905000Y-102931335D01*
X178960147Y-103208574D01*
X179068320Y-103469727D01*
X179225363Y-103704759D01*
X179425241Y-103904637D01*
X179660273Y-104061680D01*
X179921426Y-104169853D01*
X180198665Y-104225000D01*
X180481335Y-104225000D01*
X180758574Y-104169853D01*
X181019727Y-104061680D01*
X181254759Y-103904637D01*
X181454637Y-103704759D01*
X181611680Y-103469727D01*
X181719853Y-103208574D01*
X181775000Y-102931335D01*
X181775000Y-102648665D01*
X200495000Y-102648665D01*
X200495000Y-102931335D01*
X200550147Y-103208574D01*
X200658320Y-103469727D01*
X200815363Y-103704759D01*
X201015241Y-103904637D01*
X201250273Y-104061680D01*
X201511426Y-104169853D01*
X201788665Y-104225000D01*
X202071335Y-104225000D01*
X202348574Y-104169853D01*
X202609727Y-104061680D01*
X202844759Y-103904637D01*
X203044637Y-103704759D01*
X203201680Y-103469727D01*
X203309853Y-103208574D01*
X203365000Y-102931335D01*
X203365000Y-102648665D01*
X209385000Y-102648665D01*
X209385000Y-102931335D01*
X209440147Y-103208574D01*
X209548320Y-103469727D01*
X209705363Y-103704759D01*
X209905241Y-103904637D01*
X210140273Y-104061680D01*
X210401426Y-104169853D01*
X210678665Y-104225000D01*
X210961335Y-104225000D01*
X211238574Y-104169853D01*
X211499727Y-104061680D01*
X211734759Y-103904637D01*
X211934637Y-103704759D01*
X212091680Y-103469727D01*
X212199853Y-103208574D01*
X212255000Y-102931335D01*
X212255000Y-102648665D01*
X218275000Y-102648665D01*
X218275000Y-102931335D01*
X218330147Y-103208574D01*
X218438320Y-103469727D01*
X218595363Y-103704759D01*
X218795241Y-103904637D01*
X219030273Y-104061680D01*
X219291426Y-104169853D01*
X219568665Y-104225000D01*
X219851335Y-104225000D01*
X220128574Y-104169853D01*
X220389727Y-104061680D01*
X220624759Y-103904637D01*
X220824637Y-103704759D01*
X220981680Y-103469727D01*
X221089853Y-103208574D01*
X221145000Y-102931335D01*
X221145000Y-102648665D01*
X221089853Y-102371426D01*
X220981680Y-102110273D01*
X220824637Y-101875241D01*
X220624759Y-101675363D01*
X220389727Y-101518320D01*
X220128574Y-101410147D01*
X219851335Y-101355000D01*
X219568665Y-101355000D01*
X219291426Y-101410147D01*
X219030273Y-101518320D01*
X218795241Y-101675363D01*
X218595363Y-101875241D01*
X218438320Y-102110273D01*
X218330147Y-102371426D01*
X218275000Y-102648665D01*
X212255000Y-102648665D01*
X212199853Y-102371426D01*
X212091680Y-102110273D01*
X211934637Y-101875241D01*
X211734759Y-101675363D01*
X211499727Y-101518320D01*
X211238574Y-101410147D01*
X210961335Y-101355000D01*
X210678665Y-101355000D01*
X210401426Y-101410147D01*
X210140273Y-101518320D01*
X209905241Y-101675363D01*
X209705363Y-101875241D01*
X209548320Y-102110273D01*
X209440147Y-102371426D01*
X209385000Y-102648665D01*
X203365000Y-102648665D01*
X203309853Y-102371426D01*
X203201680Y-102110273D01*
X203044637Y-101875241D01*
X202844759Y-101675363D01*
X202609727Y-101518320D01*
X202348574Y-101410147D01*
X202071335Y-101355000D01*
X201788665Y-101355000D01*
X201511426Y-101410147D01*
X201250273Y-101518320D01*
X201015241Y-101675363D01*
X200815363Y-101875241D01*
X200658320Y-102110273D01*
X200550147Y-102371426D01*
X200495000Y-102648665D01*
X181775000Y-102648665D01*
X181719853Y-102371426D01*
X181611680Y-102110273D01*
X181454637Y-101875241D01*
X181254759Y-101675363D01*
X181019727Y-101518320D01*
X180758574Y-101410147D01*
X180481335Y-101355000D01*
X180198665Y-101355000D01*
X179921426Y-101410147D01*
X179660273Y-101518320D01*
X179425241Y-101675363D01*
X179225363Y-101875241D01*
X179068320Y-102110273D01*
X178960147Y-102371426D01*
X178905000Y-102648665D01*
X172885000Y-102648665D01*
X172829853Y-102371426D01*
X172721680Y-102110273D01*
X172564637Y-101875241D01*
X172364759Y-101675363D01*
X172129727Y-101518320D01*
X171868574Y-101410147D01*
X171591335Y-101355000D01*
X171308665Y-101355000D01*
X171031426Y-101410147D01*
X170770273Y-101518320D01*
X170535241Y-101675363D01*
X170335363Y-101875241D01*
X170178320Y-102110273D01*
X170070147Y-102371426D01*
X170015000Y-102648665D01*
X163995000Y-102648665D01*
X163939853Y-102371426D01*
X163831680Y-102110273D01*
X163674637Y-101875241D01*
X163474759Y-101675363D01*
X163239727Y-101518320D01*
X162978574Y-101410147D01*
X162701335Y-101355000D01*
X162418665Y-101355000D01*
X162141426Y-101410147D01*
X161880273Y-101518320D01*
X161645241Y-101675363D01*
X161445363Y-101875241D01*
X161288320Y-102110273D01*
X161180147Y-102371426D01*
X161125000Y-102648665D01*
X141111208Y-102648665D01*
X141110390Y-100250000D01*
X149637815Y-100250000D01*
X149666487Y-100541111D01*
X149751401Y-100821034D01*
X149889294Y-101079014D01*
X150074866Y-101305134D01*
X150300986Y-101490706D01*
X150558966Y-101628599D01*
X150838889Y-101713513D01*
X151057050Y-101735000D01*
X151202950Y-101735000D01*
X151421111Y-101713513D01*
X151701034Y-101628599D01*
X151959014Y-101490706D01*
X152185134Y-101305134D01*
X152209607Y-101275313D01*
X152230498Y-101344180D01*
X152289463Y-101454494D01*
X152368815Y-101551185D01*
X152465506Y-101630537D01*
X152575820Y-101689502D01*
X152695518Y-101725812D01*
X152820000Y-101738072D01*
X154520000Y-101738072D01*
X154644482Y-101725812D01*
X154764180Y-101689502D01*
X154874494Y-101630537D01*
X154971185Y-101551185D01*
X155050537Y-101454494D01*
X155109502Y-101344180D01*
X155145812Y-101224482D01*
X155158072Y-101100000D01*
X155158072Y-100250000D01*
X189007815Y-100250000D01*
X189036487Y-100541111D01*
X189121401Y-100821034D01*
X189259294Y-101079014D01*
X189444866Y-101305134D01*
X189670986Y-101490706D01*
X189928966Y-101628599D01*
X190208889Y-101713513D01*
X190427050Y-101735000D01*
X190572950Y-101735000D01*
X190791111Y-101713513D01*
X191071034Y-101628599D01*
X191329014Y-101490706D01*
X191555134Y-101305134D01*
X191579607Y-101275313D01*
X191600498Y-101344180D01*
X191659463Y-101454494D01*
X191738815Y-101551185D01*
X191835506Y-101630537D01*
X191945820Y-101689502D01*
X192065518Y-101725812D01*
X192190000Y-101738072D01*
X193890000Y-101738072D01*
X194014482Y-101725812D01*
X194134180Y-101689502D01*
X194244494Y-101630537D01*
X194341185Y-101551185D01*
X194420537Y-101454494D01*
X194479502Y-101344180D01*
X194515812Y-101224482D01*
X194528072Y-101100000D01*
X194528072Y-99400000D01*
X194515812Y-99275518D01*
X194479502Y-99155820D01*
X194420537Y-99045506D01*
X194341185Y-98948815D01*
X194244494Y-98869463D01*
X194134180Y-98810498D01*
X194014482Y-98774188D01*
X193890000Y-98761928D01*
X192190000Y-98761928D01*
X192065518Y-98774188D01*
X191945820Y-98810498D01*
X191835506Y-98869463D01*
X191738815Y-98948815D01*
X191659463Y-99045506D01*
X191600498Y-99155820D01*
X191579607Y-99224687D01*
X191555134Y-99194866D01*
X191329014Y-99009294D01*
X191071034Y-98871401D01*
X190791111Y-98786487D01*
X190572950Y-98765000D01*
X190427050Y-98765000D01*
X190208889Y-98786487D01*
X189928966Y-98871401D01*
X189670986Y-99009294D01*
X189444866Y-99194866D01*
X189259294Y-99420986D01*
X189121401Y-99678966D01*
X189036487Y-99958889D01*
X189007815Y-100250000D01*
X155158072Y-100250000D01*
X155158072Y-99400000D01*
X155145812Y-99275518D01*
X155109502Y-99155820D01*
X155050537Y-99045506D01*
X154971185Y-98948815D01*
X154874494Y-98869463D01*
X154764180Y-98810498D01*
X154644482Y-98774188D01*
X154520000Y-98761928D01*
X152820000Y-98761928D01*
X152695518Y-98774188D01*
X152575820Y-98810498D01*
X152465506Y-98869463D01*
X152368815Y-98948815D01*
X152289463Y-99045506D01*
X152230498Y-99155820D01*
X152209607Y-99224687D01*
X152185134Y-99194866D01*
X151959014Y-99009294D01*
X151701034Y-98871401D01*
X151421111Y-98786487D01*
X151202950Y-98765000D01*
X151057050Y-98765000D01*
X150838889Y-98786487D01*
X150558966Y-98871401D01*
X150300986Y-99009294D01*
X150074866Y-99194866D01*
X149889294Y-99420986D01*
X149751401Y-99678966D01*
X149666487Y-99958889D01*
X149637815Y-100250000D01*
X141110390Y-100250000D01*
X141108966Y-96070000D01*
X158481928Y-96070000D01*
X158494188Y-96194482D01*
X158530498Y-96314180D01*
X158589463Y-96424494D01*
X158668815Y-96521185D01*
X158765506Y-96600537D01*
X158875820Y-96659502D01*
X158995518Y-96695812D01*
X159120000Y-96708072D01*
X159734250Y-96705000D01*
X159893000Y-96546250D01*
X159893000Y-95297000D01*
X158643750Y-95297000D01*
X158485000Y-95455750D01*
X158481928Y-96070000D01*
X141108966Y-96070000D01*
X141108353Y-94270000D01*
X158481928Y-94270000D01*
X158485000Y-94884250D01*
X158643750Y-95043000D01*
X159893000Y-95043000D01*
X159893000Y-93793750D01*
X160147000Y-93793750D01*
X160147000Y-95043000D01*
X160167000Y-95043000D01*
X160167000Y-95297000D01*
X160147000Y-95297000D01*
X160147000Y-96546250D01*
X160305750Y-96705000D01*
X160920000Y-96708072D01*
X161044482Y-96695812D01*
X161164180Y-96659502D01*
X161274494Y-96600537D01*
X161371185Y-96521185D01*
X161450537Y-96424494D01*
X161509502Y-96314180D01*
X161514495Y-96297720D01*
X161703073Y-96452481D01*
X161969739Y-96595017D01*
X162259087Y-96682790D01*
X162484592Y-96705000D01*
X162635408Y-96705000D01*
X162860913Y-96682790D01*
X163150261Y-96595017D01*
X163416927Y-96452481D01*
X163650661Y-96260661D01*
X163830000Y-96042135D01*
X164009339Y-96260661D01*
X164243073Y-96452481D01*
X164509739Y-96595017D01*
X164799087Y-96682790D01*
X165024592Y-96705000D01*
X165175408Y-96705000D01*
X165400913Y-96682790D01*
X165690261Y-96595017D01*
X165956927Y-96452481D01*
X166190661Y-96260661D01*
X166347132Y-96070000D01*
X167371928Y-96070000D01*
X167384188Y-96194482D01*
X167420498Y-96314180D01*
X167479463Y-96424494D01*
X167558815Y-96521185D01*
X167655506Y-96600537D01*
X167765820Y-96659502D01*
X167885518Y-96695812D01*
X168010000Y-96708072D01*
X168624250Y-96705000D01*
X168783000Y-96546250D01*
X168783000Y-95297000D01*
X167533750Y-95297000D01*
X167375000Y-95455750D01*
X167371928Y-96070000D01*
X166347132Y-96070000D01*
X166382481Y-96026927D01*
X166525017Y-95760261D01*
X166612790Y-95470913D01*
X166642427Y-95170000D01*
X166612790Y-94869087D01*
X166525017Y-94579739D01*
X166382481Y-94313073D01*
X166347133Y-94270000D01*
X167371928Y-94270000D01*
X167375000Y-94884250D01*
X167533750Y-95043000D01*
X168783000Y-95043000D01*
X168783000Y-93793750D01*
X169037000Y-93793750D01*
X169037000Y-95043000D01*
X169057000Y-95043000D01*
X169057000Y-95297000D01*
X169037000Y-95297000D01*
X169037000Y-96546250D01*
X169195750Y-96705000D01*
X169810000Y-96708072D01*
X169934482Y-96695812D01*
X170054180Y-96659502D01*
X170164494Y-96600537D01*
X170261185Y-96521185D01*
X170340537Y-96424494D01*
X170399502Y-96314180D01*
X170404495Y-96297720D01*
X170593073Y-96452481D01*
X170859739Y-96595017D01*
X171149087Y-96682790D01*
X171374592Y-96705000D01*
X171525408Y-96705000D01*
X171750913Y-96682790D01*
X172040261Y-96595017D01*
X172306927Y-96452481D01*
X172540661Y-96260661D01*
X172720000Y-96042135D01*
X172899339Y-96260661D01*
X173133073Y-96452481D01*
X173399739Y-96595017D01*
X173689087Y-96682790D01*
X173914592Y-96705000D01*
X174065408Y-96705000D01*
X174290913Y-96682790D01*
X174580261Y-96595017D01*
X174846927Y-96452481D01*
X175080661Y-96260661D01*
X175237132Y-96070000D01*
X176261928Y-96070000D01*
X176274188Y-96194482D01*
X176310498Y-96314180D01*
X176369463Y-96424494D01*
X176448815Y-96521185D01*
X176545506Y-96600537D01*
X176655820Y-96659502D01*
X176775518Y-96695812D01*
X176900000Y-96708072D01*
X177514250Y-96705000D01*
X177673000Y-96546250D01*
X177673000Y-95297000D01*
X176423750Y-95297000D01*
X176265000Y-95455750D01*
X176261928Y-96070000D01*
X175237132Y-96070000D01*
X175272481Y-96026927D01*
X175415017Y-95760261D01*
X175502790Y-95470913D01*
X175532427Y-95170000D01*
X175502790Y-94869087D01*
X175415017Y-94579739D01*
X175272481Y-94313073D01*
X175237133Y-94270000D01*
X176261928Y-94270000D01*
X176265000Y-94884250D01*
X176423750Y-95043000D01*
X177673000Y-95043000D01*
X177673000Y-93793750D01*
X177927000Y-93793750D01*
X177927000Y-95043000D01*
X177947000Y-95043000D01*
X177947000Y-95297000D01*
X177927000Y-95297000D01*
X177927000Y-96546250D01*
X178085750Y-96705000D01*
X178700000Y-96708072D01*
X178824482Y-96695812D01*
X178944180Y-96659502D01*
X179054494Y-96600537D01*
X179151185Y-96521185D01*
X179230537Y-96424494D01*
X179289502Y-96314180D01*
X179294495Y-96297720D01*
X179483073Y-96452481D01*
X179749739Y-96595017D01*
X180039087Y-96682790D01*
X180264592Y-96705000D01*
X180415408Y-96705000D01*
X180640913Y-96682790D01*
X180930261Y-96595017D01*
X181196927Y-96452481D01*
X181430661Y-96260661D01*
X181610000Y-96042135D01*
X181789339Y-96260661D01*
X182023073Y-96452481D01*
X182289739Y-96595017D01*
X182579087Y-96682790D01*
X182804592Y-96705000D01*
X182955408Y-96705000D01*
X183180913Y-96682790D01*
X183470261Y-96595017D01*
X183736927Y-96452481D01*
X183970661Y-96260661D01*
X184127132Y-96070000D01*
X197851928Y-96070000D01*
X197864188Y-96194482D01*
X197900498Y-96314180D01*
X197959463Y-96424494D01*
X198038815Y-96521185D01*
X198135506Y-96600537D01*
X198245820Y-96659502D01*
X198365518Y-96695812D01*
X198490000Y-96708072D01*
X199104250Y-96705000D01*
X199263000Y-96546250D01*
X199263000Y-95297000D01*
X198013750Y-95297000D01*
X197855000Y-95455750D01*
X197851928Y-96070000D01*
X184127132Y-96070000D01*
X184162481Y-96026927D01*
X184305017Y-95760261D01*
X184392790Y-95470913D01*
X184422427Y-95170000D01*
X184392790Y-94869087D01*
X184305017Y-94579739D01*
X184162481Y-94313073D01*
X184127133Y-94270000D01*
X197851928Y-94270000D01*
X197855000Y-94884250D01*
X198013750Y-95043000D01*
X199263000Y-95043000D01*
X199263000Y-93793750D01*
X199517000Y-93793750D01*
X199517000Y-95043000D01*
X199537000Y-95043000D01*
X199537000Y-95297000D01*
X199517000Y-95297000D01*
X199517000Y-96546250D01*
X199675750Y-96705000D01*
X200290000Y-96708072D01*
X200414482Y-96695812D01*
X200534180Y-96659502D01*
X200644494Y-96600537D01*
X200741185Y-96521185D01*
X200820537Y-96424494D01*
X200879502Y-96314180D01*
X200884495Y-96297720D01*
X201073073Y-96452481D01*
X201339739Y-96595017D01*
X201629087Y-96682790D01*
X201854592Y-96705000D01*
X202005408Y-96705000D01*
X202230913Y-96682790D01*
X202520261Y-96595017D01*
X202786927Y-96452481D01*
X203020661Y-96260661D01*
X203200000Y-96042135D01*
X203379339Y-96260661D01*
X203613073Y-96452481D01*
X203879739Y-96595017D01*
X204169087Y-96682790D01*
X204394592Y-96705000D01*
X204545408Y-96705000D01*
X204770913Y-96682790D01*
X205060261Y-96595017D01*
X205326927Y-96452481D01*
X205560661Y-96260661D01*
X205717132Y-96070000D01*
X206741928Y-96070000D01*
X206754188Y-96194482D01*
X206790498Y-96314180D01*
X206849463Y-96424494D01*
X206928815Y-96521185D01*
X207025506Y-96600537D01*
X207135820Y-96659502D01*
X207255518Y-96695812D01*
X207380000Y-96708072D01*
X207994250Y-96705000D01*
X208153000Y-96546250D01*
X208153000Y-95297000D01*
X206903750Y-95297000D01*
X206745000Y-95455750D01*
X206741928Y-96070000D01*
X205717132Y-96070000D01*
X205752481Y-96026927D01*
X205895017Y-95760261D01*
X205982790Y-95470913D01*
X206012427Y-95170000D01*
X205982790Y-94869087D01*
X205895017Y-94579739D01*
X205752481Y-94313073D01*
X205717133Y-94270000D01*
X206741928Y-94270000D01*
X206745000Y-94884250D01*
X206903750Y-95043000D01*
X208153000Y-95043000D01*
X208153000Y-93793750D01*
X208407000Y-93793750D01*
X208407000Y-95043000D01*
X208427000Y-95043000D01*
X208427000Y-95297000D01*
X208407000Y-95297000D01*
X208407000Y-96546250D01*
X208565750Y-96705000D01*
X209180000Y-96708072D01*
X209304482Y-96695812D01*
X209424180Y-96659502D01*
X209534494Y-96600537D01*
X209631185Y-96521185D01*
X209710537Y-96424494D01*
X209769502Y-96314180D01*
X209774495Y-96297720D01*
X209963073Y-96452481D01*
X210229739Y-96595017D01*
X210519087Y-96682790D01*
X210744592Y-96705000D01*
X210895408Y-96705000D01*
X211120913Y-96682790D01*
X211410261Y-96595017D01*
X211676927Y-96452481D01*
X211910661Y-96260661D01*
X212090000Y-96042135D01*
X212269339Y-96260661D01*
X212503073Y-96452481D01*
X212769739Y-96595017D01*
X213059087Y-96682790D01*
X213284592Y-96705000D01*
X213435408Y-96705000D01*
X213660913Y-96682790D01*
X213950261Y-96595017D01*
X214216927Y-96452481D01*
X214450661Y-96260661D01*
X214607132Y-96070000D01*
X215631928Y-96070000D01*
X215644188Y-96194482D01*
X215680498Y-96314180D01*
X215739463Y-96424494D01*
X215818815Y-96521185D01*
X215915506Y-96600537D01*
X216025820Y-96659502D01*
X216145518Y-96695812D01*
X216270000Y-96708072D01*
X216884250Y-96705000D01*
X217043000Y-96546250D01*
X217043000Y-95297000D01*
X215793750Y-95297000D01*
X215635000Y-95455750D01*
X215631928Y-96070000D01*
X214607132Y-96070000D01*
X214642481Y-96026927D01*
X214785017Y-95760261D01*
X214872790Y-95470913D01*
X214902427Y-95170000D01*
X214872790Y-94869087D01*
X214785017Y-94579739D01*
X214642481Y-94313073D01*
X214607133Y-94270000D01*
X215631928Y-94270000D01*
X215635000Y-94884250D01*
X215793750Y-95043000D01*
X217043000Y-95043000D01*
X217043000Y-93793750D01*
X217297000Y-93793750D01*
X217297000Y-95043000D01*
X217317000Y-95043000D01*
X217317000Y-95297000D01*
X217297000Y-95297000D01*
X217297000Y-96546250D01*
X217455750Y-96705000D01*
X218070000Y-96708072D01*
X218194482Y-96695812D01*
X218314180Y-96659502D01*
X218424494Y-96600537D01*
X218521185Y-96521185D01*
X218600537Y-96424494D01*
X218659502Y-96314180D01*
X218664495Y-96297720D01*
X218853073Y-96452481D01*
X219119739Y-96595017D01*
X219409087Y-96682790D01*
X219634592Y-96705000D01*
X219785408Y-96705000D01*
X220010913Y-96682790D01*
X220300261Y-96595017D01*
X220566927Y-96452481D01*
X220800661Y-96260661D01*
X220980000Y-96042135D01*
X221159339Y-96260661D01*
X221393073Y-96452481D01*
X221659739Y-96595017D01*
X221949087Y-96682790D01*
X222174592Y-96705000D01*
X222325408Y-96705000D01*
X222550913Y-96682790D01*
X222840261Y-96595017D01*
X223106927Y-96452481D01*
X223340661Y-96260661D01*
X223532481Y-96026927D01*
X223675017Y-95760261D01*
X223762790Y-95470913D01*
X223792427Y-95170000D01*
X223762790Y-94869087D01*
X223675017Y-94579739D01*
X223532481Y-94313073D01*
X223340661Y-94079339D01*
X223106927Y-93887519D01*
X222840261Y-93744983D01*
X222550913Y-93657210D01*
X222325408Y-93635000D01*
X222174592Y-93635000D01*
X221949087Y-93657210D01*
X221659739Y-93744983D01*
X221393073Y-93887519D01*
X221159339Y-94079339D01*
X220980000Y-94297865D01*
X220800661Y-94079339D01*
X220566927Y-93887519D01*
X220300261Y-93744983D01*
X220010913Y-93657210D01*
X219785408Y-93635000D01*
X219634592Y-93635000D01*
X219409087Y-93657210D01*
X219119739Y-93744983D01*
X218853073Y-93887519D01*
X218664495Y-94042280D01*
X218659502Y-94025820D01*
X218600537Y-93915506D01*
X218521185Y-93818815D01*
X218424494Y-93739463D01*
X218314180Y-93680498D01*
X218194482Y-93644188D01*
X218070000Y-93631928D01*
X217455750Y-93635000D01*
X217297000Y-93793750D01*
X217043000Y-93793750D01*
X216884250Y-93635000D01*
X216270000Y-93631928D01*
X216145518Y-93644188D01*
X216025820Y-93680498D01*
X215915506Y-93739463D01*
X215818815Y-93818815D01*
X215739463Y-93915506D01*
X215680498Y-94025820D01*
X215644188Y-94145518D01*
X215631928Y-94270000D01*
X214607133Y-94270000D01*
X214450661Y-94079339D01*
X214216927Y-93887519D01*
X213950261Y-93744983D01*
X213660913Y-93657210D01*
X213435408Y-93635000D01*
X213284592Y-93635000D01*
X213059087Y-93657210D01*
X212769739Y-93744983D01*
X212503073Y-93887519D01*
X212269339Y-94079339D01*
X212090000Y-94297865D01*
X211910661Y-94079339D01*
X211676927Y-93887519D01*
X211410261Y-93744983D01*
X211120913Y-93657210D01*
X210895408Y-93635000D01*
X210744592Y-93635000D01*
X210519087Y-93657210D01*
X210229739Y-93744983D01*
X209963073Y-93887519D01*
X209774495Y-94042280D01*
X209769502Y-94025820D01*
X209710537Y-93915506D01*
X209631185Y-93818815D01*
X209534494Y-93739463D01*
X209424180Y-93680498D01*
X209304482Y-93644188D01*
X209180000Y-93631928D01*
X208565750Y-93635000D01*
X208407000Y-93793750D01*
X208153000Y-93793750D01*
X207994250Y-93635000D01*
X207380000Y-93631928D01*
X207255518Y-93644188D01*
X207135820Y-93680498D01*
X207025506Y-93739463D01*
X206928815Y-93818815D01*
X206849463Y-93915506D01*
X206790498Y-94025820D01*
X206754188Y-94145518D01*
X206741928Y-94270000D01*
X205717133Y-94270000D01*
X205560661Y-94079339D01*
X205326927Y-93887519D01*
X205060261Y-93744983D01*
X204770913Y-93657210D01*
X204545408Y-93635000D01*
X204394592Y-93635000D01*
X204169087Y-93657210D01*
X203879739Y-93744983D01*
X203613073Y-93887519D01*
X203379339Y-94079339D01*
X203200000Y-94297865D01*
X203020661Y-94079339D01*
X202786927Y-93887519D01*
X202520261Y-93744983D01*
X202230913Y-93657210D01*
X202005408Y-93635000D01*
X201854592Y-93635000D01*
X201629087Y-93657210D01*
X201339739Y-93744983D01*
X201073073Y-93887519D01*
X200884495Y-94042280D01*
X200879502Y-94025820D01*
X200820537Y-93915506D01*
X200741185Y-93818815D01*
X200644494Y-93739463D01*
X200534180Y-93680498D01*
X200414482Y-93644188D01*
X200290000Y-93631928D01*
X199675750Y-93635000D01*
X199517000Y-93793750D01*
X199263000Y-93793750D01*
X199104250Y-93635000D01*
X198490000Y-93631928D01*
X198365518Y-93644188D01*
X198245820Y-93680498D01*
X198135506Y-93739463D01*
X198038815Y-93818815D01*
X197959463Y-93915506D01*
X197900498Y-94025820D01*
X197864188Y-94145518D01*
X197851928Y-94270000D01*
X184127133Y-94270000D01*
X183970661Y-94079339D01*
X183736927Y-93887519D01*
X183470261Y-93744983D01*
X183180913Y-93657210D01*
X182955408Y-93635000D01*
X182804592Y-93635000D01*
X182579087Y-93657210D01*
X182289739Y-93744983D01*
X182023073Y-93887519D01*
X181789339Y-94079339D01*
X181610000Y-94297865D01*
X181430661Y-94079339D01*
X181196927Y-93887519D01*
X180930261Y-93744983D01*
X180640913Y-93657210D01*
X180415408Y-93635000D01*
X180264592Y-93635000D01*
X180039087Y-93657210D01*
X179749739Y-93744983D01*
X179483073Y-93887519D01*
X179294495Y-94042280D01*
X179289502Y-94025820D01*
X179230537Y-93915506D01*
X179151185Y-93818815D01*
X179054494Y-93739463D01*
X178944180Y-93680498D01*
X178824482Y-93644188D01*
X178700000Y-93631928D01*
X178085750Y-93635000D01*
X177927000Y-93793750D01*
X177673000Y-93793750D01*
X177514250Y-93635000D01*
X176900000Y-93631928D01*
X176775518Y-93644188D01*
X176655820Y-93680498D01*
X176545506Y-93739463D01*
X176448815Y-93818815D01*
X176369463Y-93915506D01*
X176310498Y-94025820D01*
X176274188Y-94145518D01*
X176261928Y-94270000D01*
X175237133Y-94270000D01*
X175080661Y-94079339D01*
X174846927Y-93887519D01*
X174580261Y-93744983D01*
X174290913Y-93657210D01*
X174065408Y-93635000D01*
X173914592Y-93635000D01*
X173689087Y-93657210D01*
X173399739Y-93744983D01*
X173133073Y-93887519D01*
X172899339Y-94079339D01*
X172720000Y-94297865D01*
X172540661Y-94079339D01*
X172306927Y-93887519D01*
X172040261Y-93744983D01*
X171750913Y-93657210D01*
X171525408Y-93635000D01*
X171374592Y-93635000D01*
X171149087Y-93657210D01*
X170859739Y-93744983D01*
X170593073Y-93887519D01*
X170404495Y-94042280D01*
X170399502Y-94025820D01*
X170340537Y-93915506D01*
X170261185Y-93818815D01*
X170164494Y-93739463D01*
X170054180Y-93680498D01*
X169934482Y-93644188D01*
X169810000Y-93631928D01*
X169195750Y-93635000D01*
X169037000Y-93793750D01*
X168783000Y-93793750D01*
X168624250Y-93635000D01*
X168010000Y-93631928D01*
X167885518Y-93644188D01*
X167765820Y-93680498D01*
X167655506Y-93739463D01*
X167558815Y-93818815D01*
X167479463Y-93915506D01*
X167420498Y-94025820D01*
X167384188Y-94145518D01*
X167371928Y-94270000D01*
X166347133Y-94270000D01*
X166190661Y-94079339D01*
X165956927Y-93887519D01*
X165690261Y-93744983D01*
X165400913Y-93657210D01*
X165175408Y-93635000D01*
X165024592Y-93635000D01*
X164799087Y-93657210D01*
X164509739Y-93744983D01*
X164243073Y-93887519D01*
X164009339Y-94079339D01*
X163830000Y-94297865D01*
X163650661Y-94079339D01*
X163416927Y-93887519D01*
X163150261Y-93744983D01*
X162860913Y-93657210D01*
X162635408Y-93635000D01*
X162484592Y-93635000D01*
X162259087Y-93657210D01*
X161969739Y-93744983D01*
X161703073Y-93887519D01*
X161514495Y-94042280D01*
X161509502Y-94025820D01*
X161450537Y-93915506D01*
X161371185Y-93818815D01*
X161274494Y-93739463D01*
X161164180Y-93680498D01*
X161044482Y-93644188D01*
X160920000Y-93631928D01*
X160305750Y-93635000D01*
X160147000Y-93793750D01*
X159893000Y-93793750D01*
X159734250Y-93635000D01*
X159120000Y-93631928D01*
X158995518Y-93644188D01*
X158875820Y-93680498D01*
X158765506Y-93739463D01*
X158668815Y-93818815D01*
X158589463Y-93915506D01*
X158530498Y-94025820D01*
X158494188Y-94145518D01*
X158481928Y-94270000D01*
X141108353Y-94270000D01*
X141102841Y-78100000D01*
X148231928Y-78100000D01*
X148244188Y-78224482D01*
X148280498Y-78344180D01*
X148339463Y-78454494D01*
X148418815Y-78551185D01*
X148515506Y-78630537D01*
X148625820Y-78689502D01*
X148745518Y-78725812D01*
X148870000Y-78738072D01*
X149574250Y-78735000D01*
X149733000Y-78576250D01*
X149733000Y-76247000D01*
X149987000Y-76247000D01*
X149987000Y-78576250D01*
X150145750Y-78735000D01*
X150850000Y-78738072D01*
X150974482Y-78725812D01*
X151094180Y-78689502D01*
X151204494Y-78630537D01*
X151301185Y-78551185D01*
X151380537Y-78454494D01*
X151439502Y-78344180D01*
X151475812Y-78224482D01*
X151488072Y-78100000D01*
X151485000Y-76405750D01*
X151326250Y-76247000D01*
X149987000Y-76247000D01*
X149733000Y-76247000D01*
X148393750Y-76247000D01*
X148235000Y-76405750D01*
X148231928Y-78100000D01*
X141102841Y-78100000D01*
X141101492Y-74140000D01*
X148231928Y-74140000D01*
X148235000Y-75834250D01*
X148393750Y-75993000D01*
X149733000Y-75993000D01*
X149733000Y-73663750D01*
X149987000Y-73663750D01*
X149987000Y-75993000D01*
X151326250Y-75993000D01*
X151485000Y-75834250D01*
X151486421Y-75050177D01*
X153235000Y-75050177D01*
X153235001Y-77189824D01*
X153258514Y-77428556D01*
X153351433Y-77734869D01*
X153502326Y-78017170D01*
X153705393Y-78264608D01*
X153952831Y-78467675D01*
X154235132Y-78618568D01*
X154541445Y-78711487D01*
X154860000Y-78742862D01*
X155178556Y-78711487D01*
X155484869Y-78618568D01*
X155767170Y-78467675D01*
X156014608Y-78264608D01*
X156217675Y-78017170D01*
X156368568Y-77734869D01*
X156461487Y-77428556D01*
X156485000Y-77189824D01*
X156485000Y-75050176D01*
X156461487Y-74811444D01*
X156368568Y-74505131D01*
X156217675Y-74222830D01*
X156149699Y-74140000D01*
X163471928Y-74140000D01*
X163471928Y-78100000D01*
X163484188Y-78224482D01*
X163520498Y-78344180D01*
X163579463Y-78454494D01*
X163658815Y-78551185D01*
X163755506Y-78630537D01*
X163865820Y-78689502D01*
X163985518Y-78725812D01*
X164110000Y-78738072D01*
X166090000Y-78738072D01*
X166214482Y-78725812D01*
X166334180Y-78689502D01*
X166444494Y-78630537D01*
X166541185Y-78551185D01*
X166620537Y-78454494D01*
X166679502Y-78344180D01*
X166715812Y-78224482D01*
X166728072Y-78100000D01*
X166728072Y-75050177D01*
X168475000Y-75050177D01*
X168475001Y-77189824D01*
X168498514Y-77428556D01*
X168591433Y-77734869D01*
X168742326Y-78017170D01*
X168945393Y-78264608D01*
X169192831Y-78467675D01*
X169475132Y-78618568D01*
X169781445Y-78711487D01*
X170100000Y-78742862D01*
X170418556Y-78711487D01*
X170724869Y-78618568D01*
X171007170Y-78467675D01*
X171254608Y-78264608D01*
X171457675Y-78017170D01*
X171608568Y-77734869D01*
X171701487Y-77428556D01*
X171725000Y-77189824D01*
X171725000Y-75050177D01*
X173475000Y-75050177D01*
X173475001Y-77189824D01*
X173498514Y-77428556D01*
X173591433Y-77734869D01*
X173742326Y-78017170D01*
X173945393Y-78264608D01*
X174192831Y-78467675D01*
X174475132Y-78618568D01*
X174781445Y-78711487D01*
X175100000Y-78742862D01*
X175418556Y-78711487D01*
X175724869Y-78618568D01*
X176007170Y-78467675D01*
X176254608Y-78264608D01*
X176457675Y-78017170D01*
X176608568Y-77734869D01*
X176701487Y-77428556D01*
X176725000Y-77189824D01*
X176725000Y-75050177D01*
X178475000Y-75050177D01*
X178475001Y-77189824D01*
X178498514Y-77428556D01*
X178591433Y-77734869D01*
X178742326Y-78017170D01*
X178945393Y-78264608D01*
X179192831Y-78467675D01*
X179475132Y-78618568D01*
X179781445Y-78711487D01*
X180100000Y-78742862D01*
X180418556Y-78711487D01*
X180724869Y-78618568D01*
X181007170Y-78467675D01*
X181254608Y-78264608D01*
X181389698Y-78100000D01*
X188871928Y-78100000D01*
X188884188Y-78224482D01*
X188920498Y-78344180D01*
X188979463Y-78454494D01*
X189058815Y-78551185D01*
X189155506Y-78630537D01*
X189265820Y-78689502D01*
X189385518Y-78725812D01*
X189510000Y-78738072D01*
X190214250Y-78735000D01*
X190373000Y-78576250D01*
X190373000Y-76247000D01*
X190627000Y-76247000D01*
X190627000Y-78576250D01*
X190785750Y-78735000D01*
X191490000Y-78738072D01*
X191614482Y-78725812D01*
X191734180Y-78689502D01*
X191844494Y-78630537D01*
X191941185Y-78551185D01*
X192020537Y-78454494D01*
X192079502Y-78344180D01*
X192115812Y-78224482D01*
X192128072Y-78100000D01*
X192125000Y-76405750D01*
X191966250Y-76247000D01*
X190627000Y-76247000D01*
X190373000Y-76247000D01*
X189033750Y-76247000D01*
X188875000Y-76405750D01*
X188871928Y-78100000D01*
X181389698Y-78100000D01*
X181457675Y-78017170D01*
X181608568Y-77734869D01*
X181701487Y-77428556D01*
X181725000Y-77189824D01*
X181725000Y-75050176D01*
X181701487Y-74811444D01*
X181608568Y-74505131D01*
X181457675Y-74222830D01*
X181389699Y-74140000D01*
X188871928Y-74140000D01*
X188875000Y-75834250D01*
X189033750Y-75993000D01*
X190373000Y-75993000D01*
X190373000Y-73663750D01*
X190627000Y-73663750D01*
X190627000Y-75993000D01*
X191966250Y-75993000D01*
X192125000Y-75834250D01*
X192126421Y-75050177D01*
X193875000Y-75050177D01*
X193875001Y-77189824D01*
X193898514Y-77428556D01*
X193991433Y-77734869D01*
X194142326Y-78017170D01*
X194345393Y-78264608D01*
X194592831Y-78467675D01*
X194875132Y-78618568D01*
X195181445Y-78711487D01*
X195500000Y-78742862D01*
X195818556Y-78711487D01*
X196124869Y-78618568D01*
X196407170Y-78467675D01*
X196654608Y-78264608D01*
X196857675Y-78017170D01*
X197008568Y-77734869D01*
X197101487Y-77428556D01*
X197125000Y-77189824D01*
X197125000Y-75050176D01*
X197101487Y-74811444D01*
X197008568Y-74505131D01*
X196857675Y-74222830D01*
X196789699Y-74140000D01*
X204111928Y-74140000D01*
X204111928Y-78100000D01*
X204124188Y-78224482D01*
X204160498Y-78344180D01*
X204219463Y-78454494D01*
X204298815Y-78551185D01*
X204395506Y-78630537D01*
X204505820Y-78689502D01*
X204625518Y-78725812D01*
X204750000Y-78738072D01*
X206730000Y-78738072D01*
X206854482Y-78725812D01*
X206974180Y-78689502D01*
X207084494Y-78630537D01*
X207181185Y-78551185D01*
X207260537Y-78454494D01*
X207319502Y-78344180D01*
X207355812Y-78224482D01*
X207368072Y-78100000D01*
X207368072Y-75050177D01*
X209115000Y-75050177D01*
X209115001Y-77189824D01*
X209138514Y-77428556D01*
X209231433Y-77734869D01*
X209382326Y-78017170D01*
X209585393Y-78264608D01*
X209832831Y-78467675D01*
X210115132Y-78618568D01*
X210421445Y-78711487D01*
X210740000Y-78742862D01*
X211058556Y-78711487D01*
X211364869Y-78618568D01*
X211647170Y-78467675D01*
X211894608Y-78264608D01*
X212097675Y-78017170D01*
X212248568Y-77734869D01*
X212341487Y-77428556D01*
X212365000Y-77189824D01*
X212365000Y-75050177D01*
X214115000Y-75050177D01*
X214115001Y-77189824D01*
X214138514Y-77428556D01*
X214231433Y-77734869D01*
X214382326Y-78017170D01*
X214585393Y-78264608D01*
X214832831Y-78467675D01*
X215115132Y-78618568D01*
X215421445Y-78711487D01*
X215740000Y-78742862D01*
X216058556Y-78711487D01*
X216364869Y-78618568D01*
X216647170Y-78467675D01*
X216894608Y-78264608D01*
X217097675Y-78017170D01*
X217248568Y-77734869D01*
X217341487Y-77428556D01*
X217365000Y-77189824D01*
X217365000Y-75050177D01*
X219115000Y-75050177D01*
X219115001Y-77189824D01*
X219138514Y-77428556D01*
X219231433Y-77734869D01*
X219382326Y-78017170D01*
X219585393Y-78264608D01*
X219832831Y-78467675D01*
X220115132Y-78618568D01*
X220421445Y-78711487D01*
X220740000Y-78742862D01*
X221058556Y-78711487D01*
X221364869Y-78618568D01*
X221647170Y-78467675D01*
X221894608Y-78264608D01*
X222097675Y-78017170D01*
X222248568Y-77734869D01*
X222341487Y-77428556D01*
X222365000Y-77189824D01*
X222365000Y-75050176D01*
X222341487Y-74811444D01*
X222248568Y-74505131D01*
X222097675Y-74222830D01*
X221894608Y-73975392D01*
X221647169Y-73772325D01*
X221364868Y-73621432D01*
X221058555Y-73528513D01*
X220740000Y-73497138D01*
X220421444Y-73528513D01*
X220115131Y-73621432D01*
X219832830Y-73772325D01*
X219585392Y-73975392D01*
X219382325Y-74222831D01*
X219231432Y-74505132D01*
X219138513Y-74811445D01*
X219115000Y-75050177D01*
X217365000Y-75050177D01*
X217365000Y-75050176D01*
X217341487Y-74811444D01*
X217248568Y-74505131D01*
X217097675Y-74222830D01*
X216894608Y-73975392D01*
X216647169Y-73772325D01*
X216364868Y-73621432D01*
X216058555Y-73528513D01*
X215740000Y-73497138D01*
X215421444Y-73528513D01*
X215115131Y-73621432D01*
X214832830Y-73772325D01*
X214585392Y-73975392D01*
X214382325Y-74222831D01*
X214231432Y-74505132D01*
X214138513Y-74811445D01*
X214115000Y-75050177D01*
X212365000Y-75050177D01*
X212365000Y-75050176D01*
X212341487Y-74811444D01*
X212248568Y-74505131D01*
X212097675Y-74222830D01*
X211894608Y-73975392D01*
X211647169Y-73772325D01*
X211364868Y-73621432D01*
X211058555Y-73528513D01*
X210740000Y-73497138D01*
X210421444Y-73528513D01*
X210115131Y-73621432D01*
X209832830Y-73772325D01*
X209585392Y-73975392D01*
X209382325Y-74222831D01*
X209231432Y-74505132D01*
X209138513Y-74811445D01*
X209115000Y-75050177D01*
X207368072Y-75050177D01*
X207368072Y-74140000D01*
X207355812Y-74015518D01*
X207319502Y-73895820D01*
X207260537Y-73785506D01*
X207181185Y-73688815D01*
X207084494Y-73609463D01*
X206974180Y-73550498D01*
X206854482Y-73514188D01*
X206730000Y-73501928D01*
X204750000Y-73501928D01*
X204625518Y-73514188D01*
X204505820Y-73550498D01*
X204395506Y-73609463D01*
X204298815Y-73688815D01*
X204219463Y-73785506D01*
X204160498Y-73895820D01*
X204124188Y-74015518D01*
X204111928Y-74140000D01*
X196789699Y-74140000D01*
X196654608Y-73975392D01*
X196407169Y-73772325D01*
X196124868Y-73621432D01*
X195818555Y-73528513D01*
X195500000Y-73497138D01*
X195181444Y-73528513D01*
X194875131Y-73621432D01*
X194592830Y-73772325D01*
X194345392Y-73975392D01*
X194142325Y-74222831D01*
X193991432Y-74505132D01*
X193898513Y-74811445D01*
X193875000Y-75050177D01*
X192126421Y-75050177D01*
X192128072Y-74140000D01*
X192115812Y-74015518D01*
X192079502Y-73895820D01*
X192020537Y-73785506D01*
X191941185Y-73688815D01*
X191844494Y-73609463D01*
X191734180Y-73550498D01*
X191614482Y-73514188D01*
X191490000Y-73501928D01*
X190785750Y-73505000D01*
X190627000Y-73663750D01*
X190373000Y-73663750D01*
X190214250Y-73505000D01*
X189510000Y-73501928D01*
X189385518Y-73514188D01*
X189265820Y-73550498D01*
X189155506Y-73609463D01*
X189058815Y-73688815D01*
X188979463Y-73785506D01*
X188920498Y-73895820D01*
X188884188Y-74015518D01*
X188871928Y-74140000D01*
X181389699Y-74140000D01*
X181254608Y-73975392D01*
X181007169Y-73772325D01*
X180724868Y-73621432D01*
X180418555Y-73528513D01*
X180100000Y-73497138D01*
X179781444Y-73528513D01*
X179475131Y-73621432D01*
X179192830Y-73772325D01*
X178945392Y-73975392D01*
X178742325Y-74222831D01*
X178591432Y-74505132D01*
X178498513Y-74811445D01*
X178475000Y-75050177D01*
X176725000Y-75050177D01*
X176725000Y-75050176D01*
X176701487Y-74811444D01*
X176608568Y-74505131D01*
X176457675Y-74222830D01*
X176254608Y-73975392D01*
X176007169Y-73772325D01*
X175724868Y-73621432D01*
X175418555Y-73528513D01*
X175100000Y-73497138D01*
X174781444Y-73528513D01*
X174475131Y-73621432D01*
X174192830Y-73772325D01*
X173945392Y-73975392D01*
X173742325Y-74222831D01*
X173591432Y-74505132D01*
X173498513Y-74811445D01*
X173475000Y-75050177D01*
X171725000Y-75050177D01*
X171725000Y-75050176D01*
X171701487Y-74811444D01*
X171608568Y-74505131D01*
X171457675Y-74222830D01*
X171254608Y-73975392D01*
X171007169Y-73772325D01*
X170724868Y-73621432D01*
X170418555Y-73528513D01*
X170100000Y-73497138D01*
X169781444Y-73528513D01*
X169475131Y-73621432D01*
X169192830Y-73772325D01*
X168945392Y-73975392D01*
X168742325Y-74222831D01*
X168591432Y-74505132D01*
X168498513Y-74811445D01*
X168475000Y-75050177D01*
X166728072Y-75050177D01*
X166728072Y-74140000D01*
X166715812Y-74015518D01*
X166679502Y-73895820D01*
X166620537Y-73785506D01*
X166541185Y-73688815D01*
X166444494Y-73609463D01*
X166334180Y-73550498D01*
X166214482Y-73514188D01*
X166090000Y-73501928D01*
X164110000Y-73501928D01*
X163985518Y-73514188D01*
X163865820Y-73550498D01*
X163755506Y-73609463D01*
X163658815Y-73688815D01*
X163579463Y-73785506D01*
X163520498Y-73895820D01*
X163484188Y-74015518D01*
X163471928Y-74140000D01*
X156149699Y-74140000D01*
X156014608Y-73975392D01*
X155767169Y-73772325D01*
X155484868Y-73621432D01*
X155178555Y-73528513D01*
X154860000Y-73497138D01*
X154541444Y-73528513D01*
X154235131Y-73621432D01*
X153952830Y-73772325D01*
X153705392Y-73975392D01*
X153502325Y-74222831D01*
X153351432Y-74505132D01*
X153258513Y-74811445D01*
X153235000Y-75050177D01*
X151486421Y-75050177D01*
X151488072Y-74140000D01*
X151475812Y-74015518D01*
X151439502Y-73895820D01*
X151380537Y-73785506D01*
X151301185Y-73688815D01*
X151204494Y-73609463D01*
X151094180Y-73550498D01*
X150974482Y-73514188D01*
X150850000Y-73501928D01*
X150145750Y-73505000D01*
X149987000Y-73663750D01*
X149733000Y-73663750D01*
X149574250Y-73505000D01*
X148870000Y-73501928D01*
X148745518Y-73514188D01*
X148625820Y-73550498D01*
X148515506Y-73609463D01*
X148418815Y-73688815D01*
X148339463Y-73785506D01*
X148280498Y-73895820D01*
X148244188Y-74015518D01*
X148231928Y-74140000D01*
X141101492Y-74140000D01*
X141098248Y-64622285D01*
X141165000Y-64622285D01*
X141165000Y-65377715D01*
X141312377Y-66118628D01*
X141601467Y-66816554D01*
X142021161Y-67444670D01*
X142555330Y-67978839D01*
X143183446Y-68398533D01*
X143881372Y-68687623D01*
X144622285Y-68835000D01*
X145377715Y-68835000D01*
X146118628Y-68687623D01*
X146816554Y-68398533D01*
X147444670Y-67978839D01*
X147978839Y-67444670D01*
X148398533Y-66816554D01*
X148687623Y-66118628D01*
X148835000Y-65377715D01*
X148835000Y-64622285D01*
X221165000Y-64622285D01*
X221165000Y-65377715D01*
X221312377Y-66118628D01*
X221601467Y-66816554D01*
X222021161Y-67444670D01*
X222555330Y-67978839D01*
X223183446Y-68398533D01*
X223881372Y-68687623D01*
X224622285Y-68835000D01*
X225377715Y-68835000D01*
X226118628Y-68687623D01*
X226816554Y-68398533D01*
X227444670Y-67978839D01*
X227978839Y-67444670D01*
X228398533Y-66816554D01*
X228687623Y-66118628D01*
X228835000Y-65377715D01*
X228835000Y-64622285D01*
X228687623Y-63881372D01*
X228398533Y-63183446D01*
X227978839Y-62555330D01*
X227444670Y-62021161D01*
X226816554Y-61601467D01*
X226118628Y-61312377D01*
X225377715Y-61165000D01*
X224622285Y-61165000D01*
X223881372Y-61312377D01*
X223183446Y-61601467D01*
X222555330Y-62021161D01*
X222021161Y-62555330D01*
X221601467Y-63183446D01*
X221312377Y-63881372D01*
X221165000Y-64622285D01*
X148835000Y-64622285D01*
X148687623Y-63881372D01*
X148398533Y-63183446D01*
X147978839Y-62555330D01*
X147444670Y-62021161D01*
X146816554Y-61601467D01*
X146118628Y-61312377D01*
X145377715Y-61165000D01*
X144622285Y-61165000D01*
X143881372Y-61312377D01*
X143183446Y-61601467D01*
X142555330Y-62021161D01*
X142021161Y-62555330D01*
X141601467Y-63183446D01*
X141312377Y-63881372D01*
X141165000Y-64622285D01*
X141098248Y-64622285D01*
X141097043Y-61087058D01*
X228873000Y-61126942D01*
M02*
