G04 #@! TF.GenerationSoftware,KiCad,Pcbnew,5.1.4*
G04 #@! TF.CreationDate,2019-11-07T18:24:18+01:00*
G04 #@! TF.ProjectId,nano-rgb,6e616e6f-2d72-4676-922e-6b696361645f,rev?*
G04 #@! TF.SameCoordinates,Original*
G04 #@! TF.FileFunction,Copper,L1,Top*
G04 #@! TF.FilePolarity,Positive*
%FSLAX46Y46*%
G04 Gerber Fmt 4.6, Leading zero omitted, Abs format (unit mm)*
G04 Created by KiCad (PCBNEW 5.1.4) date 2019-11-07 18:24:18*
%MOMM*%
%LPD*%
G04 APERTURE LIST*
%ADD10C,6.400000*%
%ADD11C,2.000000*%
%ADD12C,1.600000*%
%ADD13O,1.600000X1.600000*%
%ADD14R,1.600000X1.600000*%
%ADD15R,1.980000X3.960000*%
%ADD16O,1.980000X3.960000*%
%ADD17R,1.700000X1.700000*%
%ADD18O,1.700000X1.700000*%
%ADD19O,1.800000X1.800000*%
%ADD20R,1.800000X1.800000*%
%ADD21C,0.250000*%
%ADD22C,2.000000*%
G04 APERTURE END LIST*
D10*
X145000000Y-145000000D03*
X225000000Y-145000000D03*
X225000000Y-65000000D03*
X145000000Y-65000000D03*
D11*
X200660000Y-126340000D03*
X200660000Y-121840000D03*
X207160000Y-126340000D03*
X207160000Y-121840000D03*
X219860000Y-132000000D03*
X219860000Y-136500000D03*
X213360000Y-132000000D03*
X213360000Y-136500000D03*
D12*
X219710000Y-102790000D03*
D13*
X219710000Y-115490000D03*
D14*
X189230000Y-121840000D03*
D13*
X156210000Y-137080000D03*
X186690000Y-121840000D03*
X158750000Y-137080000D03*
X184150000Y-121840000D03*
X161290000Y-137080000D03*
X181610000Y-121840000D03*
X163830000Y-137080000D03*
X179070000Y-121840000D03*
X166370000Y-137080000D03*
X176530000Y-121840000D03*
X168910000Y-137080000D03*
X173990000Y-121840000D03*
X171450000Y-137080000D03*
X171450000Y-121840000D03*
X173990000Y-137080000D03*
X168910000Y-121840000D03*
X176530000Y-137080000D03*
X166370000Y-121840000D03*
X179070000Y-137080000D03*
X163830000Y-121840000D03*
X181610000Y-137080000D03*
X161290000Y-121840000D03*
X184150000Y-137080000D03*
X158750000Y-121840000D03*
X186690000Y-137080000D03*
X156210000Y-121840000D03*
X189230000Y-137080000D03*
X153670000Y-121840000D03*
X153670000Y-137080000D03*
D15*
X149860000Y-76120000D03*
D16*
X154860000Y-76120000D03*
D15*
X165100000Y-76120000D03*
D16*
X170100000Y-76120000D03*
X180100000Y-76120000D03*
X175100000Y-76120000D03*
X195500000Y-76120000D03*
D15*
X190500000Y-76120000D03*
D16*
X215740000Y-76120000D03*
X220740000Y-76120000D03*
X210740000Y-76120000D03*
D15*
X205740000Y-76120000D03*
D17*
X153670000Y-100250000D03*
D18*
X151130000Y-100250000D03*
X190500000Y-100250000D03*
D17*
X193040000Y-100250000D03*
D13*
X162560000Y-115490000D03*
D12*
X162560000Y-102790000D03*
X171450000Y-102790000D03*
D13*
X171450000Y-115490000D03*
X180340000Y-115490000D03*
D12*
X180340000Y-102790000D03*
X201930000Y-102790000D03*
D13*
X201930000Y-115490000D03*
X210820000Y-115490000D03*
D12*
X210820000Y-102790000D03*
D11*
X219860000Y-121840000D03*
X219860000Y-126340000D03*
X213360000Y-121840000D03*
X213360000Y-126340000D03*
X200660000Y-136500000D03*
X200660000Y-132000000D03*
X207160000Y-136500000D03*
X207160000Y-132000000D03*
D19*
X165100000Y-95170000D03*
X162560000Y-95170000D03*
D20*
X160020000Y-95170000D03*
X168910000Y-95170000D03*
D19*
X171450000Y-95170000D03*
X173990000Y-95170000D03*
D20*
X177800000Y-95170000D03*
D19*
X180340000Y-95170000D03*
X182880000Y-95170000D03*
X204470000Y-95170000D03*
X201930000Y-95170000D03*
D20*
X199390000Y-95170000D03*
X208280000Y-95170000D03*
D19*
X210820000Y-95170000D03*
X213360000Y-95170000D03*
X222250000Y-95170000D03*
X219710000Y-95170000D03*
D20*
X217170000Y-95170000D03*
D21*
X205745787Y-126340000D02*
X200660000Y-126340000D01*
X207160000Y-126340000D02*
X205745787Y-126340000D01*
X183570000Y-126340000D02*
X179070000Y-121840000D01*
X200660000Y-126340000D02*
X183570000Y-126340000D01*
X176530000Y-121840000D02*
X176530000Y-119300000D01*
X176530000Y-119300000D02*
X180340000Y-115490000D01*
X173990000Y-121840000D02*
X181610000Y-129460000D01*
X210240000Y-129460000D02*
X213360000Y-126340000D01*
X181610000Y-129460000D02*
X210240000Y-129460000D01*
X213360000Y-126340000D02*
X219860000Y-126340000D01*
X171450000Y-115490000D02*
X171450000Y-121840000D01*
X162560000Y-115490000D02*
X165100000Y-115490000D01*
X168910000Y-119300000D02*
X168910000Y-121840000D01*
X165100000Y-115490000D02*
X168910000Y-119300000D01*
X205745787Y-136500000D02*
X200660000Y-136500000D01*
X207160000Y-136500000D02*
X205745787Y-136500000D01*
X200660000Y-136500000D02*
X194890000Y-130730000D01*
X175260000Y-130730000D02*
X166370000Y-121840000D01*
X194890000Y-130730000D02*
X175260000Y-130730000D01*
X219860000Y-136500000D02*
X213360000Y-136500000D01*
X163830000Y-121840000D02*
X173990000Y-132000000D01*
X173990000Y-132000000D02*
X190500000Y-132000000D01*
X190500000Y-132000000D02*
X198120000Y-139620000D01*
X210240000Y-139620000D02*
X213360000Y-136500000D01*
X198120000Y-139620000D02*
X210240000Y-139620000D01*
D22*
X189230000Y-138350000D02*
X189230000Y-137080000D01*
X187960000Y-139620000D02*
X189230000Y-138350000D01*
X148590000Y-139620000D02*
X187960000Y-139620000D01*
X148590000Y-139620000D02*
X144780000Y-135810000D01*
X144780000Y-135810000D02*
X144780000Y-115490000D01*
X144780000Y-115490000D02*
X153670000Y-106600000D01*
X153670000Y-106600000D02*
X153670000Y-100250000D01*
X193040000Y-104060000D02*
X193040000Y-100250000D01*
X153670000Y-106600000D02*
X190500000Y-106600000D01*
X190500000Y-106600000D02*
X193040000Y-104060000D01*
X165100000Y-76120000D02*
X154860000Y-76120000D01*
X151130000Y-100250000D02*
X151130000Y-91360000D01*
X154860000Y-87630000D02*
X154860000Y-76120000D01*
X151130000Y-91360000D02*
X154860000Y-87630000D01*
X165100000Y-95170000D02*
X165100000Y-93900000D01*
X170100000Y-88900000D02*
X170100000Y-76120000D01*
X165100000Y-93900000D02*
X170100000Y-88900000D01*
X182880000Y-95170000D02*
X184150000Y-93900000D01*
X184150000Y-84150000D02*
X180100000Y-80100000D01*
X180100000Y-80100000D02*
X180100000Y-76120000D01*
X184150000Y-93900000D02*
X184150000Y-84150000D01*
X173990000Y-95170000D02*
X173990000Y-93900000D01*
X175100000Y-92790000D02*
X175100000Y-76120000D01*
X173990000Y-93900000D02*
X175100000Y-92790000D01*
X195500000Y-76120000D02*
X205740000Y-76120000D01*
X190500000Y-100250000D02*
X190500000Y-93900000D01*
X195500000Y-88900000D02*
X195500000Y-76120000D01*
X190500000Y-93900000D02*
X195500000Y-88900000D01*
X215740000Y-91520000D02*
X215740000Y-87709998D01*
X213360000Y-95170000D02*
X213360000Y-93900000D01*
X215740000Y-87709998D02*
X215740000Y-76120000D01*
X213360000Y-93900000D02*
X215740000Y-91520000D01*
X220740000Y-80100000D02*
X223520000Y-82880000D01*
X220740000Y-76120000D02*
X220740000Y-80100000D01*
X223520000Y-93900000D02*
X222250000Y-95170000D01*
X223520000Y-82880000D02*
X223520000Y-93900000D01*
X210740000Y-87630000D02*
X210740000Y-76120000D01*
X204470000Y-95170000D02*
X204470000Y-93900000D01*
X204470000Y-93900000D02*
X210740000Y-87630000D01*
D21*
X162560000Y-102790000D02*
X162560000Y-95170000D01*
X171450000Y-95170000D02*
X171450000Y-102790000D01*
X180340000Y-102790000D02*
X180340000Y-95170000D01*
X201930000Y-102790000D02*
X201930000Y-95170000D01*
X210820000Y-102790000D02*
X210820000Y-95170000D01*
X219710000Y-102790000D02*
X219710000Y-95170000D01*
M02*
