M48
; DRILL file {KiCad 5.1.4} date 2019-11-07T18:24:29 CET
; FORMAT={-:-/ absolute / inch / decimal}
; #@! TF.CreationDate,2019-11-07T18:24:29+01:00
; #@! TF.GenerationSoftware,Kicad,Pcbnew,5.1.4
; #@! TF.FileFunction,Plated,1,2,PTH
FMAT,2
INCH
T1C0.0315
T2C0.0394
T3C0.0433
T4C0.0520
T5C0.1260
%
G90
G05
T1
X8.3Y-4.0469
X8.3Y-4.5469
X7.95Y-4.0469
X7.95Y-4.5469
X7.1Y-4.0469
X7.1Y-4.5469
X6.05Y-4.7969
X6.05Y-5.3969
X6.15Y-4.7969
X6.15Y-5.3969
X6.25Y-4.7969
X6.25Y-5.3969
X6.35Y-4.7969
X6.35Y-5.3969
X6.45Y-4.7969
X6.45Y-5.3969
X6.55Y-4.7969
X6.55Y-5.3969
X6.65Y-4.7969
X6.65Y-5.3969
X6.75Y-4.7969
X6.75Y-5.3969
X6.85Y-4.7969
X6.85Y-5.3969
X6.95Y-4.7969
X6.95Y-5.3969
X7.05Y-4.7969
X7.05Y-5.3969
X7.15Y-4.7969
X7.15Y-5.3969
X7.25Y-4.7969
X7.25Y-5.3969
X7.35Y-4.7969
X7.35Y-5.3969
X7.45Y-4.7969
X7.45Y-5.3969
X6.75Y-4.0469
X6.75Y-4.5469
X6.4Y-4.0469
X6.4Y-4.5469
X8.65Y-4.0469
X8.65Y-4.5469
T2
X7.0Y-3.7469
X7.1Y-3.7469
X7.2Y-3.7469
X8.55Y-3.7469
X8.65Y-3.7469
X8.75Y-3.7469
X8.2Y-3.7469
X8.3Y-3.7469
X8.4Y-3.7469
X7.85Y-3.7469
X7.95Y-3.7469
X8.05Y-3.7469
X6.65Y-3.7469
X6.75Y-3.7469
X6.85Y-3.7469
X7.5Y-3.9469
X7.6Y-3.9469
X6.3Y-3.7469
X6.4Y-3.7469
X6.5Y-3.7469
X5.95Y-3.9469
X6.05Y-3.9469
T3
X7.9Y-5.1969
X7.9Y-5.374
X8.1559Y-5.1969
X8.1559Y-5.374
X8.4Y-4.7969
X8.4Y-4.974
X8.6559Y-4.7969
X8.6559Y-4.974
X8.4Y-5.1969
X8.4Y-5.374
X8.6559Y-5.1969
X8.6559Y-5.374
X7.9Y-4.7969
X7.9Y-4.974
X8.1559Y-4.7969
X8.1559Y-4.974
T4
X7.5Y-2.9969
X7.6969Y-2.9969
X5.9Y-2.9969
X6.0969Y-2.9969
X6.5Y-2.9969
X6.6969Y-2.9969
X6.8937Y-2.9969
X7.0906Y-2.9969
X8.1Y-2.9969
X8.2969Y-2.9969
X8.4937Y-2.9969
X8.6906Y-2.9969
T5
X5.7087Y-2.5591
X5.7087Y-5.7087
X8.8583Y-5.7087
X8.8583Y-2.5591
T0
M30
